<svg width="354" height="242" viewBox="0 0 354 242" fill="none" xmlns="http://www.w3.org/2000/svg">
<path d="M309.418 0C309.176 0.655046 308.556 0.930855 308.074 0.689522C306.903 0.137905 305.593 0.413713 304.422 0H309.418Z" fill="black"/>
<path d="M288.327 33.4894C288.258 32.1448 288.568 31.076 289.257 30.1107C289.774 29.4212 290.497 29.1799 291.358 29.3522C292.22 29.5246 292.874 30.1452 292.874 30.9726C292.874 32.593 293.701 32.3172 294.7 32.0759C299.455 30.8692 304.175 29.5246 308.585 27.2492C309.101 27.0079 309.653 26.801 310.169 26.6286C311.169 26.3183 312.168 26.1804 311.651 24.5601C311.341 23.5603 312.202 22.6984 313.132 22.1467C313.959 21.6641 314.717 21.7675 315.613 22.1467C317.818 22.9742 318.92 24.7324 320.126 26.5942C321.366 28.4214 323.261 29.8349 325.329 30.6279C329.118 32.0759 332.253 34.3513 335.044 37.2817C336.56 38.8677 338.558 40.0054 340.212 41.4878C342.245 43.3151 343.451 45.7629 344.932 48.0038C346.207 49.9345 347.413 51.8652 348.205 54.0371C349.032 56.3815 350.651 58.1398 352.167 60.0015C353.476 61.6219 352.959 63.4146 352.684 65.1385C352.58 65.828 351.891 66.1727 351.133 66.0693C350.41 65.9659 349.928 65.4832 349.859 64.7592C349.824 64.3455 349.928 63.8973 349.996 63.4836C350.134 62.7251 350.307 62.0356 349.273 61.7253C348.791 61.5874 348.446 61.0703 348.239 60.5876C347.378 58.1398 345.966 56.0023 344.622 53.8303C343.692 52.3133 342.314 51.1411 341.211 49.7621C339.936 48.1417 338.283 46.8661 337.249 44.9699C335.974 42.66 334.217 40.6949 332.288 38.8332C330.049 36.6957 327.602 34.9374 324.674 33.9031C323.468 33.4894 322.4 32.7999 321.332 32.0759C320.609 31.5932 320.126 31.4208 319.747 32.4206C319.644 32.7309 319.368 33.1101 319.093 33.1791C317.542 33.6273 317.301 35.0753 316.715 36.2475C316.578 36.5578 316.509 36.937 316.302 37.2128C313.305 40.7294 315.544 43.7977 318.162 45.6594C320.402 47.2453 321.366 49.3829 321.883 51.8652C321.987 52.3478 322.09 52.7615 322.538 53.0718C325.26 55.0369 328.085 56.6229 331.599 56.7608C333.356 56.8297 334.665 57.9674 335.802 59.1741C336.112 59.4844 336.319 59.8981 336.732 60.0705C338.593 60.7945 339.695 62.3114 340.625 63.9663C341.246 65.104 342.072 65.4832 343.278 65.3453C344.863 65.1729 345.931 66.0004 346.792 67.207C347.413 68.0345 347.481 68.9308 346.724 69.7238C345.931 70.5167 344.863 70.5857 344.14 69.8272C343.278 68.9308 342.279 68.655 341.108 68.5171C339.936 68.3792 339.11 67.6897 338.558 66.6554C337.663 64.9316 336.112 63.8973 334.803 62.5872C332.77 60.5187 330.462 59.7257 327.74 59.243C325.122 58.7604 322.951 57.071 320.643 55.692C318.886 54.6232 318.714 53.0373 318.335 51.3825C318.059 50.1758 317.439 49.2794 316.405 48.5554C314.373 47.1074 312.788 45.1768 311.927 42.8669C311.203 40.9362 311.41 38.8677 312.374 37.0404C313.029 35.8338 313.615 34.6271 314.131 33.3859C314.717 31.9724 314.097 29.8004 312.995 28.7661C312.478 28.318 312.03 28.2145 311.444 28.4559C309.963 29.0764 308.378 29.4901 307 30.3865C305.243 31.5242 303.244 32.0414 301.315 32.6275C299.214 33.2825 297.112 34.041 294.941 34.4892C293.357 34.8339 291.772 35.4545 290.084 35.2477C289.636 35.1787 289.326 35.2477 289.05 35.7648C288.533 36.868 287.603 37.0059 286.638 36.4543C285.157 35.5924 283.469 35.2477 281.85 34.765C280.506 34.3513 279.197 33.9031 278.06 33.0757C275.441 31.1795 272.513 29.9039 269.481 28.973C267.552 28.3869 265.898 27.4216 264.106 26.5597C262.177 25.6288 260.282 24.698 258.112 24.3877C256.734 24.1808 255.493 23.5258 254.494 22.6639C252.427 20.8711 249.912 19.9747 247.604 18.6302C244.365 16.7685 241.023 15.0102 238.543 12.0797C238.474 11.9763 238.336 11.9418 238.129 11.8039C237.302 13.4932 237.544 15.1826 237.888 16.8719C238.198 18.3888 238.853 19.7679 239.611 21.1124C240.782 23.181 241.127 25.3875 240.954 27.6974C240.851 29.1799 241.023 30.6623 240.748 32.1448C240.472 33.5928 239.99 34.9374 239.266 36.1785C238.853 36.937 238.646 37.6955 238.508 38.5229C237.957 41.7292 235.442 44.4183 232.307 45.1423C229.344 45.8318 226.794 47.2453 224.486 49.176C223.659 49.8655 223.246 50.8309 222.522 51.6238C220.938 53.3476 218.698 54.0716 216.975 55.5541C216.769 55.7265 216.562 55.8644 216.355 56.0368C214.874 57.4158 214.977 57.3469 215.976 59.1396C216.838 60.6566 218.319 61.6219 219.249 62.932C220.352 64.5524 221.661 66.0004 222.66 67.7242C222.97 68.2758 223.177 68.655 223.935 68.3447C224.589 68.0689 225.244 68.3447 225.692 68.9308C226.14 69.5169 226.174 70.172 225.864 70.7925C225.313 71.8268 224.59 72.7232 223.28 72.6887C222.006 72.6887 221.351 71.8268 221.006 70.6891C220.076 67.8621 218.044 65.7935 215.942 63.8284C214.15 62.1735 213.117 60.0705 212.152 57.9329C210.43 54.1061 208.225 50.6585 205.331 47.6246C204.986 47.2453 204.573 47.073 204.056 47.0385C203.195 46.9351 202.368 46.4524 202.368 45.625C202.368 44.0391 201.369 43.1082 200.404 42.2808C198.233 40.4536 196.993 38.2126 196.476 35.42C195.994 32.9722 194.03 31.3174 192.411 29.5591C189.689 26.5597 186.933 23.5603 183.522 21.2504C183.384 21.1469 183.247 21.0435 183.143 20.9056C181.11 17.8372 177.975 16.1824 174.875 14.4586C173.634 13.769 172.256 13.3208 170.878 12.8037C168.604 11.9763 166.606 10.5972 164.401 9.66638C164.056 9.52847 163.678 9.18371 163.333 9.494C163.057 9.76981 163.057 10.218 163.161 10.6317C163.919 13.4588 163.092 16.0445 162.127 18.6302C161.989 19.0094 161.817 19.3886 161.886 19.7679C162.162 21.5951 161.507 23.3189 161.335 25.0772C161.197 26.4562 160.473 27.4216 159.337 28.1456C158.234 28.8696 157.235 29.6625 156.442 30.7658C155.409 32.2138 153.755 32.6964 152.205 33.1791C149.139 34.1444 146.038 35.1442 142.937 35.9372C138.32 37.1094 138.148 39.4193 138.493 43.4185C138.631 44.901 139.285 46.4179 139.182 47.9004C139.044 50.7274 139.32 53.4511 140.319 56.0712C140.457 56.416 140.319 56.8642 140.25 57.2434C139.664 59.4844 139.974 61.6564 140.767 63.7939C141.593 66.0004 140.181 69.3445 138.045 70.3444C136.46 71.1028 134.462 70.1375 133.704 68.2758C133.394 67.5173 133.153 66.7244 132.877 65.9314C132.429 64.5868 131.533 63.5526 130.603 62.4838C127.985 59.4154 125.745 56.1057 124.781 52.1065C124.298 50.0724 123.024 48.4175 122.335 46.4869C121.852 45.1078 121.232 43.7288 120.715 42.3497C120.302 41.212 119.578 40.5915 118.338 40.4536C116.34 40.2122 114.479 39.5917 113.515 37.592C113.239 37.0059 112.791 37.2128 112.378 37.3507C111.172 37.7644 109.966 37.661 108.76 37.4541C106.107 36.9715 103.558 37.2128 101.077 38.2816C99.2858 39.04 97.5632 38.5574 95.9784 37.5576C94.9793 36.9025 94.5314 35.9027 94.807 34.696C95.3583 32.2482 95.8406 29.766 96.4263 27.2837C97.4943 22.7328 98.7691 18.113 98.2523 13.3208C98.1489 12.2176 98.4245 11.1489 98.5968 10.0801C98.6657 9.6319 98.7001 9.14924 98.3901 8.83895C97.9766 8.45971 97.5632 8.90791 97.2187 9.11476C94.1524 11.0109 91.3962 13.3553 88.9156 15.8721C85.7805 19.0784 81.9907 21.4572 78.6833 24.4222C76.6506 26.2494 74.4112 27.9042 72.5163 29.9039C71.3449 31.145 70.0357 32.2482 68.692 33.2825C64.8678 36.2475 61.1125 39.3158 57.0127 41.936C55.5312 42.8669 54.2565 44.108 53.1195 45.4181C47.366 52.141 40.9234 58.1743 34.5496 64.2766C32.7581 66.0004 30.9321 67.7242 29.5196 69.7927C28.6238 71.0684 27.3491 71.3442 26.35 70.5857C25.3508 69.8617 25.3164 68.655 26.2121 67.3105C27.3835 65.5522 28.9683 64.1387 30.4498 62.6907C31.6556 61.5185 31.4834 61.6564 30.3809 60.4497C28.6238 58.519 26.5222 58.0019 24.0761 57.9674C22.9392 57.9674 21.8022 57.8295 20.6998 57.5882C18.9771 57.2089 17.8402 57.9674 16.6688 59.1396C14.9806 60.8634 13.8437 63.0354 12.1211 64.7247C10.1228 66.6899 9.12372 69.448 7.02212 71.3442C6.57424 71.7579 6.16081 72.1716 5.60957 72.5163C4.92052 72.9301 4.33483 73.4127 3.9903 74.1712C3.37016 75.4123 2.23323 75.8261 1.1652 75.3089C0.131628 74.8262 -0.281802 73.5851 0.200533 72.3784C0.545057 71.5165 1.13075 70.896 1.8887 70.4478C4.33483 69.0343 5.85074 66.7588 7.60781 64.6213C10.3296 61.2427 12.6723 57.4848 16.2209 54.8301C17.0133 54.244 17.8057 53.9337 18.7704 54.0371C22.1123 54.4853 25.4542 54.9335 28.7616 55.3817C29.5196 55.4851 30.1053 55.8299 30.5187 56.416C31.3111 57.4848 32.5514 58.0709 33.4816 58.9672C33.964 59.4154 34.274 59.0362 34.5841 58.7604C38.1327 55.4162 41.9225 52.2789 45.1266 48.5554C47.2282 46.1076 49.5365 43.8322 51.7759 41.4878C54.2909 38.9021 57.5294 37.2473 60.3201 35.0063C63.8342 32.2138 67.4173 29.4901 70.6903 26.3873C73.6877 23.5258 76.7539 20.6987 80.1992 18.3888C82.9209 16.5616 85.0225 14.1138 87.4686 11.9763C90.5349 9.25267 93.4634 6.35667 97.1153 4.35706C99.6648 2.94354 103.42 2.46087 105.625 5.15001C107.141 7.01172 109.312 7.87362 111.62 8.39076C113.515 8.80448 115.1 9.80428 116.65 10.873C118.958 12.4589 121.267 14.0448 123.816 15.1481C125.711 15.9755 127.778 16.4237 129.638 17.389C131.499 18.3888 133.394 19.2507 135.048 20.5608C136.426 21.6296 137.115 21.5606 138.355 20.3195C141.835 16.8374 146.072 14.5275 150.275 12.0797C151.585 11.3212 152.894 10.4938 154.1 9.52847C155.685 8.28733 157.579 7.52886 158.958 6.01191C159.509 5.42582 160.232 5.28791 161.025 5.39134C163.264 5.7361 165.503 6.11534 167.467 7.39096C169.948 8.94238 172.842 9.73533 175.391 11.0799C178.63 12.7692 182.11 14.3207 184.383 17.458C185.038 18.3544 185.83 19.0784 186.726 19.7334C191.171 23.0776 194.788 27.1802 198.268 31.4208C199.301 32.6964 199.818 34.1444 200.128 35.6959C200.369 37.0749 200.955 38.2471 202.058 39.1779C202.505 39.5572 202.953 40.0398 203.332 40.488C204.814 42.1774 205.02 42.2463 206.467 40.488C208.707 37.7644 211.566 35.7648 213.978 33.2136C215.873 31.214 217.837 29.2833 219.525 27.1113C221.316 24.8359 223.211 22.6639 225.141 20.5608C226.278 19.3197 226.829 17.9406 226.967 16.3203C227.139 13.769 228.517 11.9073 230.55 10.4938C231.446 9.87324 232.307 9.25267 233.099 8.49419C234.856 6.83934 237.096 6.97724 239.06 8.28734C240.265 9.08029 241.023 10.2525 242.091 11.1144C244.124 12.7348 246.26 14.2517 248.568 15.4928C251.152 16.8719 253.909 17.8717 256.182 19.8024C257.044 20.5264 258.077 21.009 259.249 21.1469C262.212 21.4917 264.83 22.9397 267.379 24.2843C269.033 25.1462 270.756 25.6978 272.478 26.3183C274.821 27.1458 276.957 28.3524 278.887 29.8349C280.988 31.4898 283.469 32.1448 285.88 32.9033C286.569 33.1101 287.327 33.2136 288.189 33.6273L288.327 33.4894ZM102.903 7.83914C102.283 10.5972 101.766 13.2174 102.008 15.9066C102.076 16.8719 101.904 17.8027 101.766 18.7681C101.043 23.6637 99.7337 28.3869 98.6312 33.1791C98.1834 35.0408 98.5623 35.3166 100.354 34.696C103.42 33.5928 106.521 33.2136 109.725 34.0065C110.414 34.1789 111.103 34.1789 111.723 33.7652C112.481 33.248 113.274 32.8343 114.066 32.3517C114.893 31.869 115.72 31.6966 116.478 32.4206C117.201 33.1101 117.132 33.972 116.719 34.8339C116.168 36.0061 116.409 36.5578 117.615 36.937C118.062 37.0749 118.545 37.1783 119.027 37.2128C121.404 37.3162 122.748 38.7642 123.575 40.7983C124.126 42.1774 124.643 43.5564 125.125 44.9699C125.849 47.1074 127.089 49.0381 127.675 51.2791C128.743 55.5886 131.258 59.0362 134.496 62.0701C134.806 61.4495 134.6 60.9324 134.393 60.4842C133.497 58.5535 132.739 56.5539 132.119 54.5198C131.189 51.6238 130.017 48.7623 129.328 45.8318C128.639 42.8669 128.467 39.7985 128.088 36.7646C127.985 36.0061 128.088 35.2477 128.398 34.5581C129.397 32.3517 130.086 29.9383 131.568 27.9732C132.36 26.9044 132.67 25.7323 132.808 24.4566C132.877 23.6982 132.67 23.181 132.016 22.8363C130.81 22.2157 129.638 21.5262 128.433 20.9056C126.538 19.9403 124.402 19.4921 122.472 18.6302C119.888 17.4925 117.408 16.1134 115.134 14.3551C113.928 13.4243 112.619 12.4589 111.172 12.1142C108.037 11.3902 105.246 10.1146 102.903 7.83914ZM237.75 26.3528C238.026 25.1806 237.302 23.8361 236.545 22.457C234.994 19.5955 233.857 16.5961 234.029 13.2519C234.064 12.4589 233.685 12.6313 233.237 12.8037C231.273 13.6311 230.24 15.1136 229.964 17.1822C229.757 18.837 229.344 20.3885 228.104 21.6985C226.519 23.3879 224.934 25.1117 223.556 26.9389C220.627 30.8002 217.458 34.4547 213.944 37.7644C211.842 39.7296 209.913 41.8326 208.018 44.0046C207.673 44.4183 207.088 44.7631 207.742 45.4181C210.051 47.6591 211.773 50.3482 213.289 53.1408C213.771 54.0371 214.185 53.8303 214.736 53.3131C215.735 52.3133 216.907 51.5549 218.147 50.8998C219.146 50.3827 219.938 49.6242 220.593 48.7623C223.039 45.3836 226.484 43.5909 230.343 42.3497C231.48 42.005 232.72 42.0739 233.685 41.0741C234.891 39.8675 235.718 38.6263 235.855 36.9025C235.855 36.4198 235.959 35.9027 236.2 35.5235C238.06 32.8343 237.681 29.8004 237.681 26.3528H237.75ZM136.736 56.9676C137.115 56.1747 136.77 55.5196 136.529 54.8301C136.012 53.3476 135.461 51.8307 135.805 50.2448C136.116 48.7278 136.012 47.1764 135.495 45.8663C134.462 43.2116 135.358 40.5915 135.22 37.9713C135.22 37.6955 135.358 37.3507 135.564 37.1438C136.839 35.8682 137.976 34.3168 139.63 33.6962C143.109 32.4551 146.692 31.4553 150.275 30.4555C152.067 29.9728 153.79 29.4901 154.927 27.8353C155.271 27.3526 155.719 26.8355 156.236 26.5597C157.993 25.6288 158.579 24.1119 158.682 22.2502C158.682 21.7675 158.785 21.3193 158.682 20.8366C158.441 19.5955 158.682 18.3544 159.199 17.2511C160.198 14.9757 160.68 12.7348 159.612 10.2869C158.682 10.8386 157.717 11.2868 156.787 11.8729C154.995 13.045 153.273 14.3207 151.412 15.3894C149.035 16.734 146.727 18.2509 144.419 19.7334C141.731 21.4572 139.871 24.2153 137.011 25.7322C136.701 25.9046 136.632 26.2149 136.598 26.5252C136.357 28.0077 135.461 29.1454 134.703 30.3865C133.015 33.1446 131.189 35.9027 132.085 39.4882C132.636 41.6257 132.326 43.9701 133.084 46.0732C133.807 48.0728 134.531 50.0724 135.013 52.1754C135.426 53.8303 136.116 55.4162 136.701 57.0366L136.736 56.9676Z" fill="black"/>
<path d="M156.104 135.87C160.135 138.56 164.097 141.007 167.198 144.489C169.058 146.592 169.851 149.006 169.024 151.764C168.92 152.178 168.783 152.626 168.541 152.971C166.578 155.625 164.269 157.866 161.41 159.624C158.929 161.141 156.276 162.21 153.692 163.486C152.418 164.106 151.04 164.555 149.73 165.141C147.319 166.175 144.942 167.175 142.771 168.623C140.669 170.002 139.567 171.898 139.774 174.484C139.877 175.863 139.222 176.725 138.086 176.828C136.914 176.931 135.777 176.035 135.881 174.759C136.018 172.76 136.156 170.691 137.328 168.967C139.05 166.416 141.255 164.486 144.218 163.417C145.7 162.865 147.078 161.969 148.559 161.314C150.661 160.383 152.797 159.452 154.898 158.521C158.171 157.073 161.134 155.28 163.718 152.764C166.061 150.523 166.13 148.558 163.787 146.282C161.306 143.869 158.447 141.904 155.45 140.214C154.347 139.594 153.107 139.49 151.901 139.628C149.73 139.87 148.835 139.077 149.007 136.974C149.041 136.422 148.904 136.25 148.456 136.181C147.939 136.077 147.422 135.974 146.905 135.87C145.837 135.629 145.183 134.974 145.183 133.871C145.183 132.699 145.803 131.871 146.905 131.526C147.973 131.216 148.938 131.423 149.386 132.561C149.558 133.009 149.868 133.25 150.247 133.043C152.624 131.733 155.208 132.595 157.654 132.181C159.136 131.94 160.549 131.526 162.03 132.009C162.822 132.25 163.546 132.63 164.338 132.905C167.68 134.043 171.022 135.112 174.329 136.319C175.811 136.87 177.051 137.904 178.05 139.146C178.567 139.766 179.118 140.352 179.842 140.628C182.77 141.766 184.459 143.8 184.769 146.972C184.769 147.282 184.769 147.627 184.941 147.868C187.008 151.074 185.079 153.901 184.183 156.832C183.391 159.418 181.392 160.969 179.36 162.52C176.431 164.761 173.778 167.382 170.712 169.519C168.335 171.139 165.82 172.208 163.098 172.932C160.032 173.725 157.482 175.208 155.346 177.552C154.933 178 154.45 178.379 153.934 178.69C152.831 179.345 151.522 179.069 150.867 178.138C150.178 177.173 150.419 176.035 151.453 175.139C152.831 173.932 154.175 172.691 155.622 171.553C157.448 170.14 159.722 169.588 161.927 169.036C165.992 168.037 169.299 165.761 172.4 163.107C174.467 161.348 176.397 159.452 178.671 157.935C179.291 157.521 179.807 156.97 180.083 156.246C180.703 154.763 181.702 153.281 181.806 151.764C181.944 149.419 181.358 147.075 180.083 145.007C179.807 144.524 179.187 144.317 178.671 144.11C177.292 143.559 176.19 142.662 175.26 141.524C174.433 140.525 173.399 139.939 172.193 139.421C168.748 138.077 165.131 137.249 161.789 135.629C161.031 135.25 160.238 135.146 159.377 135.319C158.378 135.56 157.344 135.664 156.139 135.836L156.104 135.87Z" fill="black"/>
<path d="M236.792 88.9829C234.449 88.3968 234.139 86.2937 233.312 84.5354C232.968 83.777 233.14 82.5703 231.9 82.3979C230.625 82.1911 230.246 83.3288 229.591 84.0528C229.488 84.1562 229.419 84.2596 229.35 84.3631C227.627 86.7764 226.491 86.7419 225.181 84.1217C224.699 83.1564 223.838 83.053 222.942 83.1909C222.184 83.2943 221.46 83.6735 220.703 83.8804C220.255 84.0183 220.289 84.2596 220.324 84.6733C220.53 86.4316 219.635 87.328 217.843 87.0522C216.809 86.8798 216.878 87.2246 217.119 87.9831C217.602 89.4655 217.119 90.5343 215.948 90.8446C214.673 91.1893 213.502 90.3274 213.192 88.9139C212.778 87.0867 212.778 87.0522 210.952 87.7762C209.127 88.5002 207.301 89.2587 205.854 90.6377C205.268 91.2238 204.51 91.8789 204.889 92.7752C205.268 93.7061 206.301 93.4303 207.094 93.4648C208.024 93.4648 208.782 93.051 209.505 92.5339C209.781 92.327 210.091 92.1547 210.401 91.9478C211.814 91.1204 213.089 91.2583 213.743 92.3615C214.363 93.4303 213.915 94.5335 212.675 95.4644C210.091 97.3606 207.335 97.9467 204.269 96.9124C202.029 96.1539 200.789 93.9474 201.271 91.603C201.754 89.3621 203.166 87.7762 204.992 86.5695C207.128 85.1215 209.402 83.9149 211.952 83.3288C212.985 83.0874 213.571 82.6393 213.64 81.536C213.674 80.881 213.846 80.2259 214.019 79.6054C214.363 78.3297 215.293 77.6747 216.43 77.8815C217.533 78.0884 218.119 78.9848 218.05 80.3638C218.05 80.5707 218.015 80.7775 217.981 80.9499C221.013 79.8812 224.01 79.1227 226.973 80.9499C227.559 81.3292 227.731 80.9154 228.041 80.6052C229.281 79.364 230.659 78.64 232.485 78.9848C234.38 79.364 235.655 80.3294 236.103 82.2945C236.275 83.053 236.447 83.8114 236.93 84.501C237.446 82.2945 237.963 81.8808 240.616 82.0187C241.96 82.0876 243.303 82.3634 244.578 82.8116C245.749 83.2254 246.507 84.1907 246.955 85.2939C247.334 86.2248 247.128 87.1556 246.232 87.7072C245.302 88.2589 244.475 88.0175 243.751 87.2246C243.51 86.9488 243.338 86.673 243.097 86.3971C242.924 86.1903 242.683 86.0179 242.476 86.3971C241.512 88.1899 239.582 88.3278 237.757 89.0518C239.617 89.431 241.305 89.8103 242.959 90.155C243.958 90.3619 245.026 90.6377 245.095 91.9133C245.164 93.2234 244.199 93.6716 243.131 94.0508C242.339 94.3267 241.512 94.6369 240.34 95.0507C241.615 95.4988 242.614 95.8436 243.062 96.7745C243.958 98.5672 243.579 100.429 243.338 102.291C243.2 103.428 242.545 104.325 241.65 105.014C240.926 105.566 240.099 105.6 239.307 105.152C238.652 104.773 238.273 104.187 238.308 103.428C238.377 102.532 238.893 101.98 239.789 101.842C240.478 101.739 240.582 101.291 240.582 100.705C240.651 98.5672 240.375 98.2225 237.722 97.2227C237.515 97.1537 237.309 97.0847 237.102 97.0503C236.172 96.8434 235.241 96.6366 234.966 95.5678C234.69 94.4646 235.138 93.6027 235.999 92.9131C236.103 92.8442 236.172 92.7063 236.309 92.5339C234.897 92.1547 233.553 92.0857 232.175 92.2926C231.624 92.396 231.452 92.5339 231.624 93.1545C232.003 94.6025 230.969 95.7057 230.556 96.9124C230.28 97.6364 229.35 97.7398 228.592 97.5674C226.904 97.2227 225.216 97.3261 223.528 97.2227C221.116 97.0848 219.359 98.3604 217.671 99.7739C216.568 100.705 216.878 102.015 218.188 102.67C219.428 103.29 220.806 103.704 221.839 104.704C222.425 105.29 222.839 105.911 222.632 106.807C222.356 108.014 220.978 108.6 219.945 107.807C218.704 106.876 217.361 106.186 216.086 105.325C213.605 103.601 213.192 99.9118 215.431 97.7743C217.464 95.8436 219.6 93.9819 222.632 93.8785C223.183 93.8785 223.355 93.6027 223.355 93.051C223.355 91.8789 224.113 91.2928 225.112 90.8446C228.695 89.2242 232.416 88.5691 236.344 89.1208C236.482 89.1208 236.654 89.0863 236.826 89.0518L236.792 88.9829Z" fill="black"/>
<path d="M32.9021 76.7094C33.8668 75.6406 34.4869 74.7787 35.0037 73.8134C35.6583 72.6412 36.623 71.8827 37.8633 71.4C39.4481 70.7795 40.7917 71.538 40.9984 73.2618C41.1018 74.1581 41.1018 75.089 41.1707 76.3301C42.1009 75.02 43.3757 74.5374 44.5126 73.8823C45.3395 73.3997 46.2697 73.1928 47.131 73.7444C48.0612 74.365 47.9578 75.2958 47.7167 76.2267C47.5789 76.8473 47.4755 77.5023 47.3377 78.3642C49.0603 77.6747 50.6451 77.0541 52.4022 76.9162C54.4694 76.7438 56.4331 77.1576 58.328 77.7092C59.9128 78.1574 60.2918 79.6054 60.4296 81.0189C60.4985 81.7429 60.533 82.4324 60.9464 83.1219C61.4977 84.0528 61.0498 85.0526 60.154 85.3629C59.3271 85.6387 58.3625 85.156 58.1213 84.2252C57.9146 83.4667 57.9491 82.6737 58.0524 81.8808C58.2591 80.3983 57.9491 80.088 56.4676 79.7433C53.5047 79.0882 50.7485 79.4675 48.1301 81.0534C47.7511 81.2947 47.3377 81.4671 46.9587 81.605C45.4428 82.1566 44.3059 81.2602 44.4437 79.6743C44.5126 78.7779 44.8571 77.916 44.7882 76.9162C43.7546 77.261 43.2379 78.1229 42.5833 78.7779C41.6875 79.6743 40.9295 80.9499 39.3103 80.4328C38.4145 80.157 37.9322 78.3642 38.2078 76.6404C38.3456 75.9164 38.4834 75.1924 38.3456 74.4339C37.7255 74.3305 37.5532 74.8132 37.3465 75.1579C35.8306 77.6747 33.7634 79.7777 32.2131 82.26C31.8341 82.8461 31.2828 83.2598 30.5593 83.1219C29.8014 82.984 29.4913 83.2943 29.388 83.9494C29.2157 85.0871 28.8712 86.1558 28.4233 87.1901C28.2166 87.7073 28.1821 88.2589 28.3544 88.845C28.5955 89.7413 28.3544 90.5343 27.5275 90.9825C26.5973 91.4651 25.6671 91.3617 25.0469 90.5343C24.5646 89.9137 24.1856 90.0516 23.531 90.1206C21.395 90.3274 19.2934 89.9827 17.7086 88.3623C16.4683 87.1211 15.0213 86.2592 13.5054 85.5352C12.1617 84.8802 11.4382 85.225 11.1281 86.673C10.8181 88.1554 10.508 89.6034 11.1626 91.1549C11.7138 92.3615 12.4029 93.12 13.7465 93.1889C14.3667 93.1889 14.9524 93.2579 15.5725 93.2579C16.4683 93.2579 17.1573 93.5682 17.3296 94.499C17.5019 95.4644 16.9162 96.2573 16.0893 96.3608C14.6078 96.4987 13.6776 97.4295 12.8508 98.3948C11.0592 100.394 9.64669 102.601 8.88874 105.221C8.30304 107.255 9.1299 108.565 10.508 109.772C11.3349 110.496 12.1617 111.117 13.4365 110.427C14.3322 109.979 15.3313 110.22 16.0893 111.013C16.6061 111.565 16.8128 112.22 16.5027 112.944C16.2271 113.599 15.7103 113.944 14.9868 114.013C12.1962 114.323 9.92231 113.289 8.09633 111.254C5.51239 108.358 5.27123 105.704 7.0283 102.187C8.06188 100.153 9.26771 98.2569 10.7492 96.4987C11.0937 96.0849 11.0937 95.9815 10.6803 95.6367C7.99297 93.6027 7.0283 90.8446 7.57954 87.5693C7.75181 86.5351 7.82071 85.4663 8.26859 84.501C9.47443 82.0187 11.9895 81.1568 14.7112 82.2945C16.5372 83.053 18.3287 83.8459 19.8102 85.1905C20.3614 85.6732 20.9816 85.949 21.7051 86.0179C22.2563 86.0869 22.9453 86.0179 23.3588 86.3627C24.668 87.328 25.0125 86.7074 25.4259 85.4663C26.2528 82.8806 27.2174 80.3638 28.1477 77.8471C28.4233 77.0541 28.8023 76.3301 29.1468 75.5717C29.5947 74.5718 30.2837 73.8823 31.4896 74.0892C32.6954 74.296 32.9366 75.1924 32.9021 76.6059V76.7094Z" fill="black"/>
<path d="M293.776 107.6C293.742 109.737 292.398 110.979 291.433 112.392C290.779 113.357 289.78 113.771 288.712 114.081C286.472 114.771 284.233 115.185 281.89 114.633C281.442 114.53 280.925 114.53 280.478 114.53C279.72 114.53 278.996 114.323 278.376 113.944C277.652 113.495 277.205 112.84 277.446 111.944C277.652 111.117 278.307 110.772 279.134 110.703C279.926 110.634 280.684 110.772 281.408 111.117C283.854 112.358 286.3 111.772 288.436 110.599C289.78 109.841 290.607 108.221 290.71 106.497C290.744 105.566 290.09 105.842 289.607 105.98C288.987 106.186 288.471 106.6 287.747 106.566C286.61 106.497 285.68 105.704 285.645 104.635C285.577 103.601 286.3 102.739 287.437 102.566C289.022 102.36 290.641 102.153 292.329 102.808C291.95 100.636 292.949 99.3946 294.637 98.4638C296.498 97.4295 297.256 95.6023 297.463 93.5337C297.531 92.8442 297.118 92.4305 296.601 92.0512C295.258 90.9825 293.501 90.948 292.019 90.1206C290.434 89.2587 289.849 88.6726 289.952 87.328C290.055 86.0869 291.123 84.8802 292.536 84.5354C293.707 84.2596 294.879 84.432 295.981 84.9492C296.808 85.3284 297.428 86.1558 297.084 86.9488C296.498 88.3278 297.428 88.707 298.255 89.2242C300.184 90.3619 300.908 92.0168 300.598 94.1888C300.219 96.9468 298.979 99.2223 296.739 100.946C296.291 101.291 295.774 101.567 295.912 102.36C297.118 101.877 298.221 101.808 299.047 102.98C299.461 103.566 299.84 103.049 300.15 102.842C301.459 101.911 302.734 100.912 304.077 99.9807C305.042 99.2912 306.11 98.8775 307.282 99.1533C307.936 99.2912 308.108 99.0154 308.246 98.4638C308.866 95.9815 308.522 93.3958 309.245 90.948C309.349 90.6377 309.073 90.3964 308.935 90.1206C308.418 89.2587 308.453 88.4312 309.211 87.7417C309.969 87.0522 310.934 87.0522 311.76 87.6038C312.828 88.2933 313.38 89.3621 312.966 90.5343C312.002 93.4648 312.174 96.6021 311.381 99.5326C311.175 100.257 311.312 100.843 311.76 101.498C312.691 102.773 312.105 104.118 310.52 104.394C309.9 104.497 309.624 104.635 309.728 105.256C309.728 105.359 309.728 105.428 309.728 105.531C309.728 106.807 309.728 108.048 309.728 109.565C311.002 108.772 312.243 108.841 313.517 109.186C315.068 109.6 316.515 111.461 316.48 113.047C316.48 113.978 316.032 114.668 315.137 114.909C314.241 115.15 313.517 114.805 313.035 114.013C311.864 112.151 311.795 112.116 309.797 113.116C309.487 113.254 309.176 113.461 308.866 113.599C308.108 113.978 307.35 113.978 306.627 113.495C305.869 112.978 305.731 112.185 305.938 111.392C306.661 108.807 306.317 106.186 306.42 103.566C306.42 103.29 306.558 102.877 306.282 102.704C305.903 102.498 305.628 102.842 305.387 103.049C303.388 104.566 301.39 106.049 299.461 107.6C297.463 109.22 295.947 109.324 293.707 107.531L293.776 107.6Z" fill="black"/>
<path d="M112.97 126.32C111.385 128.803 109.145 130.354 106.665 131.561C104.46 132.63 102.255 131.595 101.394 129.285C101.221 128.803 101.256 127.768 100.532 128.01C99.7743 128.286 98.913 128.803 99.0508 130.044C99.5332 134.284 100.016 138.56 100.05 142.835C100.05 144.283 99.9122 145.765 100.773 147.144C101.221 147.903 100.911 148.799 100.084 149.316C99.2231 149.833 98.3963 149.695 97.7072 148.971C96.8114 148.04 96.5014 146.868 96.5014 145.593C96.5703 140.869 95.8812 136.181 95.2266 131.526C95.0888 130.527 94.7443 130.078 93.6763 129.837C90.5411 129.148 88.2672 127.01 86.269 124.7C85.2699 123.528 85.6833 121.908 86.3379 120.563C86.9925 119.184 88.095 118.046 89.3008 117.115C90.3688 116.288 91.678 116.426 92.3671 117.322C93.0217 118.184 92.8494 119.322 91.8847 120.253C91.2646 120.873 90.5755 121.425 89.9554 122.045C89.3008 122.701 89.1285 123.39 89.9554 124.045C91.1268 124.941 92.0914 126.114 93.4695 126.734C94.0897 127.01 94.6065 127.113 95.1233 126.527C95.5367 126.045 96.1913 125.769 96.777 125.976C97.7072 126.286 98.224 125.872 98.8441 125.321C99.5676 124.666 100.153 123.907 100.739 123.149C101.394 122.321 102.255 121.873 103.254 122.356C104.288 122.838 104.253 123.769 104.046 124.735C103.805 125.838 103.461 126.907 103.978 128.079C104.322 128.837 104.804 129.113 105.493 128.63C107.009 127.562 108.594 126.527 109.593 124.838C110.179 123.873 110.799 122.907 111.523 122.045C112.797 120.494 114.865 120.804 115.416 122.735C115.898 124.424 116.932 125.665 118.103 126.803C119.171 127.872 120.136 127.768 120.997 126.562C121.789 125.424 122.479 124.183 123.34 123.08C124.167 122.011 125.51 121.873 126.337 122.666C127.199 123.528 127.13 124.459 126.475 125.39C125.579 126.665 124.649 127.941 123.684 129.182C121.686 131.664 118.172 131.837 115.898 129.561C114.899 128.561 113.797 127.596 112.901 126.32H112.97Z" fill="black"/>
<path d="M41.4119 133.698C41.5841 135.56 41.4808 137.387 41.7564 139.249C42.1009 141.766 42.032 144.283 41.4808 146.799C41.1362 148.42 40.8606 150.04 40.7917 151.729C40.7228 153.488 39.6548 154.522 38.3456 154.315C37.0709 154.108 36.3474 152.729 36.933 151.04C37.5187 149.316 37.7255 147.558 38.2078 145.834C38.8279 143.593 38.7935 141.352 38.6212 139.077C38.2078 134.457 38.5179 129.837 39.0002 125.217C39.0691 124.597 39.0002 124.424 38.3801 124.286C35.3827 123.597 33.4533 121.528 32.282 118.839C31.7652 117.633 30.8005 118.012 30.0426 117.701C29.2157 117.357 29.2846 118.184 29.0779 118.598C28.4577 119.77 27.4931 120.46 26.2183 120.666C23.2899 121.115 20.4648 120.701 17.7086 119.736C16.7784 119.425 16.1582 118.701 16.0204 117.736C15.8826 116.736 16.5027 116.081 17.2607 115.598C20.1547 113.806 23.3588 112.944 26.7351 113.151C29.0434 113.289 31.3173 113.771 33.5912 114.15C35.2793 114.426 35.7272 115.012 35.865 116.771C35.9339 117.908 38.1044 120.322 39.4136 120.701C42.411 121.528 45.3739 121.321 48.3368 120.46C49.8872 120.011 50.9207 120.287 51.2997 121.425C51.6787 122.563 50.9897 123.769 49.5771 124.217C47.9923 124.735 46.3041 124.769 44.6504 124.7C43.4446 124.666 42.8589 124.7 42.4454 126.252C41.7219 128.768 41.8253 131.251 41.5152 133.733L41.4119 133.698Z" fill="black"/>
<path d="M55.4685 119.115C54.0904 117.184 54.8139 115.219 55.0895 113.323C55.2618 112.254 56.1575 111.703 57.26 111.944C58.3625 112.185 59.0515 113.082 58.707 114.081C57.9835 116.081 58.3625 117.839 59.1549 119.701C59.6028 120.735 59.775 121.942 58.6726 122.942C60.0851 123.114 60.912 123.735 60.8775 125.148C60.8775 125.528 61.0842 125.631 61.3943 125.734C62.7724 126.321 63.1858 126.976 62.7724 128.527C61.7044 132.388 61.5666 136.284 61.8422 140.214C62.0833 143.524 62.2556 146.834 62.3245 150.143C62.3245 151.419 62.2901 152.695 62.0144 153.936C61.7733 155.074 60.912 155.729 59.8784 155.591C58.8104 155.453 57.9835 154.487 58.2936 153.315C58.9826 150.73 58.6725 148.109 59.0171 145.524C59.1549 144.558 58.8448 143.628 58.8448 142.662C58.7415 137.904 58.3969 133.147 59.0515 128.389C59.086 128.044 59.2238 127.7 58.9826 127.389C55.0895 128.079 53.1602 126.562 52.7467 122.563C52.5056 120.322 53.1602 119.494 55.4685 119.184V119.115Z" fill="black"/>
<path d="M189.557 130.492C189.523 131.044 189.73 131.664 189.868 132.319C190.109 133.664 189.316 134.871 188.076 135.043C186.801 135.215 185.527 134.147 185.595 132.768C185.699 129.251 185.768 125.7 185.94 122.183C186.043 120.011 187.938 118.874 189.764 118.081C192.107 117.046 194.691 116.909 197.137 116.288C197.861 116.116 198.584 115.909 199.308 115.771C200.651 115.529 201.719 116.15 201.995 117.253C202.27 118.356 201.581 119.391 200.203 119.667C198.136 120.08 196.069 120.356 194.002 120.701C193.382 120.804 192.796 120.873 192.176 121.011C190.109 121.459 189.661 122.183 190.109 124.252C190.212 124.804 190.591 124.941 191.005 125.079C192.107 125.459 193.244 125.321 194.381 125.148C196.861 124.769 199.308 124.011 201.857 123.976C203.097 123.976 204.303 123.976 205.233 124.976C205.543 125.321 205.957 125.252 206.336 125.355C207.438 125.734 207.955 126.803 207.542 127.872C207.163 128.803 205.44 129.906 204.338 129.872C203.028 129.872 202.339 129.079 202.167 127.872C202.064 127.182 201.581 127.32 201.168 127.355C199.204 127.458 197.309 128.01 195.38 128.32C194.071 128.527 192.796 128.699 191.487 128.561C189.695 128.424 189.592 128.492 189.661 130.458L189.557 130.492Z" fill="black"/>
<path d="M46.373 94.1888C47.6478 93.0166 48.9225 92.2236 50.1972 91.3617C51.6098 90.3964 53.0224 90.7067 54.4694 91.2238C55.3307 91.5341 55.5374 92.327 55.434 93.1889C55.3307 93.9474 55.1929 94.7404 55.0206 95.6712C55.9853 95.4644 56.8466 95.292 57.7079 95.0851C58.3625 94.9472 59.0171 94.8783 59.6717 94.9472C62.5657 95.1886 63.5304 97.0158 62.1523 99.567C62.0144 99.8428 61.8077 100.05 61.8766 100.394C62.4279 103.187 61.3598 105.6 60.0162 107.945C59.6372 108.634 59.0171 109.013 58.328 109.324C57.3978 109.737 56.502 109.772 55.8819 108.876C55.2618 108.014 55.4685 107.117 56.1231 106.359C56.5021 105.945 56.9499 105.566 57.4667 105.325C58.6037 104.773 58.6381 103.67 58.8793 102.67C58.9482 102.325 58.7759 102.187 58.4314 102.256C58.2936 102.256 58.1902 102.325 58.0524 102.325C55.7441 102.704 54.8139 101.67 55.434 99.3946C54.5383 99.3946 53.8148 99.7394 53.1946 100.326C52.5056 100.946 51.7821 101.291 50.9897 100.636C50.1973 99.9463 50.2662 99.0844 50.7485 98.2569C51.5409 96.8779 52.2644 95.5333 52.2989 93.5337C51.0241 94.4301 49.8183 95.0162 48.957 96.1194C48.3368 96.9124 47.7856 97.7398 47.2343 98.6017C46.7865 99.2912 46.2352 99.7394 45.3739 99.5326C44.5126 99.3257 43.9958 98.7051 43.9958 97.8432C44.0303 96.0505 43.2379 94.4646 42.8244 92.7752C42.5833 91.7065 42.4799 90.7067 42.6866 89.6724C42.8589 88.5691 43.7202 87.9486 44.7193 88.052C45.7184 88.1554 46.4764 89.0518 46.2352 90.1206C45.9251 91.4307 46.3041 92.6373 46.4764 94.1198L46.373 94.1888Z" fill="black"/>
<path d="M206.784 147.558C205.785 147.903 204.992 148.316 204.2 148.627C200.169 150.143 196.448 147.385 195.483 143.283C194.725 140.076 195.966 137.456 197.344 134.802C197.757 134.043 198.171 133.285 198.515 132.457C199.101 131.044 200.1 130.423 201.34 130.596C202.236 130.733 202.891 131.182 203.166 132.078C203.407 132.94 203.166 133.733 202.443 134.319C200.686 135.767 199.514 137.663 198.687 139.732C197.964 141.421 198.446 143.11 199.411 144.593C200.341 145.972 202.098 146.179 203.89 145.213C205.13 144.558 206.37 143.903 207.369 142.869C208.058 142.145 208.92 141.8 209.85 142.317C210.815 142.869 210.849 143.765 210.573 144.731C210.332 145.627 210.195 146.523 209.919 147.42C209.609 148.454 209.988 149.109 210.815 149.626C211.676 150.178 212.468 150.764 213.571 150.075C214.777 149.316 215.845 148.523 216.293 147.041C216.603 145.972 217.533 145.558 218.601 145.868C219.6 146.179 219.979 147.041 219.876 148.04C219.738 149.109 219.29 150.075 218.498 150.799C214.673 154.246 211.642 154.487 208.231 151.316C207.197 150.35 206.611 149.144 206.784 147.489V147.558Z" fill="black"/>
<path d="M279.823 86.8453C279.065 86.9143 278.376 86.9143 277.687 86.673C276.826 86.3627 276.205 85.8455 276.274 84.8802C276.343 83.9494 276.929 83.5012 277.825 83.3633C279.272 83.1219 280.788 83.2254 282.131 82.4669C284.095 81.3292 285.852 80.0535 286.3 77.5713C286.507 76.4336 286.128 76.1577 285.129 76.1577C283.613 76.1577 282.2 76.537 280.719 76.8128C279.065 77.1231 277.446 77.2265 275.792 76.7094C274.724 76.3646 273.966 75.744 274.001 74.6063C274.001 73.2962 274.069 71.9172 275.413 71.1587C276.447 70.6071 277.721 71.2277 277.894 72.4343C278.031 73.3997 278.41 73.4341 279.168 73.2962C280.719 73.0204 282.269 72.8136 283.819 72.5722C285.198 72.3654 286.507 72.5722 287.85 72.9515C289.608 73.4341 290.4 74.7098 290.159 76.537C289.745 79.6743 288.712 82.5014 285.887 84.2941C285.301 84.6734 285.266 85.0181 285.577 85.6732C286.576 87.6038 285.99 89.5 285.232 91.3617C284.991 91.9133 284.474 92.1891 283.923 92.396C282.683 92.8787 281.339 92.7752 280.03 92.8442C279.237 92.8787 278.652 92.3615 278.376 91.5686C278.1 90.8446 278.273 90.1551 278.858 89.6724C279.547 89.0518 280.34 89.0518 281.167 89.4311C282.579 90.0861 283.027 89.8103 283.062 88.2244C283.062 87.6383 282.855 87.2591 282.2 87.1212C281.373 86.9832 280.581 86.7419 279.789 86.8798L279.823 86.8453Z" fill="black"/>
<path d="M149.489 84.6389C148.111 83.6391 147.904 82.26 147.732 80.881C147.629 79.9156 147.973 79.1572 148.835 78.709C149.662 78.2953 150.523 78.3987 151.143 79.0537C151.694 79.6398 152.108 79.433 152.728 79.1916C155.174 78.1918 157.689 77.916 160.273 78.5366C161.203 78.7435 161.995 79.2261 162.581 79.9846C163.029 80.5707 163.511 81.1223 164.132 81.5705C164.958 82.2255 165.165 83.0874 164.579 84.0183C163.994 84.9492 163.064 85.0181 162.133 84.5699C161.238 84.1562 160.48 83.5356 160.101 82.6048C159.687 81.6739 158.964 81.4326 158.068 81.5015C156.139 81.6739 154.278 82.1221 152.797 83.5356C152.108 84.1907 151.315 84.7768 150.04 84.8457C151.281 85.2594 152.349 85.3973 153.176 86.0869C154.45 87.1212 154.795 88.3278 154.003 89.7758C153.52 90.6722 153.245 91.4996 153.451 92.4994C153.589 93.1545 153.382 93.8095 153.21 94.4301C152.969 95.2575 152.349 95.7402 151.488 95.8436C150.73 95.947 150.075 95.7747 149.662 95.0851C149.214 94.3611 149.42 93.7061 149.903 93.051C150.488 92.2236 150.04 91.1893 150.282 90.2585C150.764 88.2589 150.592 88.121 148.49 88.2933C147.284 88.3968 146.044 88.1554 144.838 88.6036C144.356 88.776 144.046 88.9139 144.011 89.569C143.942 90.9825 143.012 91.7065 141.669 91.5686C140.187 91.4307 139.291 90.4309 139.395 89.0518C139.498 87.1901 140.842 85.7421 142.909 85.3629C143.977 85.156 145.045 84.9492 146.147 84.8457C147.181 84.7768 148.215 85.0871 149.455 84.7078L149.489 84.6389Z" fill="black"/>
<path d="M47.5789 141.8C48.1301 138.111 47.5789 133.698 47.7511 129.32C47.82 127.631 47.9578 125.907 49.5082 124.735C50.6107 123.907 51.9199 123.907 52.6778 124.804C53.4358 125.7 53.1946 126.803 51.9888 127.7C51.0586 128.389 51.1275 129.354 51.0586 130.285C50.8174 133.25 51.0586 136.215 50.9552 139.18C50.8518 142.18 50.5762 145.179 50.4729 148.178C50.3695 151.454 50.6796 154.694 50.9207 157.97C50.9897 159.004 51.1619 160.073 50.9207 161.107C50.6796 162.348 49.6805 163.107 48.578 162.934C47.51 162.762 46.9587 161.865 46.9587 160.59C46.9932 157.142 46.9587 153.695 47.0621 150.247C47.131 147.696 47.3721 145.11 47.5444 141.835L47.5789 141.8Z" fill="black"/>
<path d="M130.713 95.7747C130.713 95.7747 130.609 95.7747 130.575 95.7747C129.61 95.7402 128.439 96.1194 127.922 94.9128C127.405 93.6716 128.267 92.9821 129.231 92.396C129.541 92.1891 129.955 91.8789 129.817 91.4651C129.679 91.0514 129.162 91.0859 128.783 91.0859C127.819 91.0514 126.854 91.0859 125.889 91.0859C125.373 91.0859 125.407 91.4307 125.304 91.7754C124.959 93.051 124.201 93.5682 122.892 93.3958C122.134 93.2924 121.445 93.0855 120.825 92.6029C119.55 91.6375 118.964 90.1206 119.412 88.9484C119.826 87.8451 121.273 87.0177 122.857 87.4314C125.476 88.0865 128.163 87.9141 130.747 88.4657C132.814 88.9139 133.365 89.569 132.918 91.672C132.745 92.5339 132.952 92.8097 133.813 92.9821C135.502 93.2579 137.155 93.6371 138.809 94.0164C140.911 94.4646 141.427 95.4299 141.117 97.4985C140.773 99.7739 139.636 101.567 138.085 103.153C137.224 104.049 136.466 105.083 135.639 106.014C135.364 106.359 135.054 106.669 134.744 106.945C133.744 107.772 132.711 107.772 132.091 106.945C131.436 106.117 131.643 104.842 132.711 104.221C134.123 103.394 135.295 102.325 136.397 101.118C137.362 100.084 138.292 99.0499 138.396 97.5329C138.43 97.0503 138.396 96.74 137.879 96.671C135.502 96.3952 133.193 95.6368 130.747 95.7747H130.713Z" fill="black"/>
<path d="M263.699 70.9518C262.941 70.9174 262.114 70.745 261.356 70.4002C260.874 70.1589 260.392 70.1589 260.047 70.5726C258.91 71.9861 257.532 73.2617 256.981 75.0545C256.912 75.2614 256.705 75.4682 256.878 75.6406C257.015 75.744 257.291 75.744 257.498 75.744C257.67 75.744 257.808 75.6406 257.98 75.5716C259.772 75.089 260.909 75.9854 260.564 77.8126C260.22 79.7433 259.875 81.6739 258.979 83.4667C258.462 84.501 257.98 85.5008 259.496 86.2592C260.185 86.604 260.288 87.5004 260.047 88.2589C259.806 89.0518 259.22 89.4655 258.394 89.5345C256.016 89.8103 254.19 87.8451 254.604 85.3973C254.845 83.9838 255.327 82.6392 255.982 81.2947C256.774 79.6398 256.671 79.4674 254.983 78.8469C253.639 78.3297 253.053 77.3644 253.157 75.8819C253.26 74.3305 254.018 72.9859 254.742 71.7448C256.258 69.1246 258.118 66.7802 261.184 65.7115C263.217 65.0219 265.594 66.2976 266.042 68.4006C266.352 69.7452 265.284 70.9174 263.699 70.9174V70.9518Z" fill="black"/>
<path d="M311.898 145.007C312.381 145.317 312.76 145.558 313.173 145.799C314.585 146.592 314.827 146.455 314.792 144.869C314.758 142.903 315.585 141.662 316.928 141.697C318.341 141.697 319.271 143.041 319.064 144.972C318.995 145.731 319.237 146.006 319.891 146.11C321.131 146.282 322.199 146.248 322.751 144.8C323.13 143.8 324.06 143.317 325.197 143.386C325.886 143.421 326.437 143.8 326.713 144.455C327.023 145.11 326.851 145.731 326.403 146.282C324.404 148.937 321.786 149.833 318.582 148.971C318.169 148.868 317.721 148.627 317.342 148.971C315.343 150.661 313.414 149.695 311.485 148.902C311.106 148.764 310.796 148.558 310.417 148.385C308.005 147.351 307.247 145.765 308.246 143.352C308.66 142.386 308.35 142.076 307.557 141.835C306.834 141.593 306.179 141.249 305.731 140.628C304.939 139.525 305.18 138.008 306.282 137.284C307.385 136.56 308.866 136.939 309.521 138.18C309.831 138.766 310.21 139.249 310.83 139.318C312.622 139.49 313.38 140.628 313.69 142.248C313.965 143.696 312.863 144.317 311.829 145.075L311.898 145.007Z" fill="black"/>
<path d="M152.935 115.116C151.901 115.771 150.764 116.185 149.662 116.633C147.353 117.564 145.527 116.633 144.08 115.116C142.185 113.151 141.427 110.634 141.979 107.876C142.151 106.945 142.599 106.221 143.46 105.807C144.976 105.118 146.457 104.394 148.042 103.842C149.42 103.359 150.592 103.911 150.971 105.049C151.35 106.255 150.695 107.359 149.248 107.807C148.215 108.152 147.146 108.427 146.113 108.738C145.665 108.876 145.252 108.979 145.286 109.565C145.389 110.772 145.699 111.909 146.561 112.771C147.422 113.668 148.662 113.668 150.178 112.875C150.73 112.599 151.212 112.185 151.729 111.875C153.83 110.53 156.035 111.565 156.414 113.978C156.552 114.737 156.139 115.84 156.724 116.219C157.31 116.598 157.896 115.529 158.55 115.254C159.515 114.874 160.376 114.909 160.996 115.805C161.651 116.736 161.41 117.667 160.583 118.357C159.756 119.081 158.826 119.632 157.758 119.977C155.76 120.632 153.761 119.218 153.348 116.84C153.245 116.288 153.348 115.702 152.969 115.116H152.935Z" fill="black"/>
<path d="M77.208 91.2238C78.5172 91.0859 79.8264 90.8791 81.1356 91.0859C82.8237 91.3617 83.375 92.1202 83.0649 93.8095C82.8926 94.7404 83.0649 95.1196 84.064 94.9817C84.5808 94.9128 85.0976 94.8783 85.6488 94.9128C87.1303 94.9817 87.8882 95.8436 87.7504 97.2916C87.5093 99.8773 86.1656 101.98 84.5808 103.911C84.0296 104.601 83.2027 104.98 82.3759 104.359C81.5145 103.739 81.5834 102.877 82.1002 102.015C82.4792 101.394 82.8237 100.739 83.5817 100.394C84.443 100.015 84.5119 99.1188 84.7186 98.2914C84.822 97.8432 84.5119 97.8087 84.1674 97.7743C83.3405 97.7053 82.617 98.0156 81.928 98.3948C81.4456 98.6707 80.9978 99.0499 80.481 99.2912C79.8264 99.6015 79.1029 99.6705 78.5516 99.0499C78.0004 98.4293 78.1727 97.7398 78.5516 97.1192C78.9995 96.3952 79.6541 95.7402 79.9642 94.9128C80.1709 94.3267 80.2398 93.9129 79.344 94.0164C77.897 94.1888 76.4845 94.2922 75.0375 94.3267C74.2106 94.3267 73.556 94.6714 72.9014 95.1541C72.1435 95.7057 71.3855 96.1884 72.1435 97.2916C72.3846 97.6364 72.2468 98.1535 72.0401 98.5672C71.4889 99.7394 69.2839 100.326 67.9747 99.6705C66.7 99.0154 66.2177 97.4985 67.1823 96.1884C69.215 93.4992 71.4544 91.0514 75.2442 91.1204C75.8988 91.1204 76.5534 91.1204 77.208 91.1204V91.2238Z" fill="black"/>
<path d="M276.895 158.383C276.929 157.901 277.067 157.28 277.48 156.832C278.273 156.004 278.376 155.005 278.376 153.936C278.514 148.04 279.065 142.18 279.582 136.319C279.72 134.767 279.651 133.181 280.03 131.63C280.374 130.147 281.683 129.32 283.061 129.734C283.819 129.94 284.371 130.423 284.577 131.216C284.784 132.009 284.577 132.768 283.888 133.181C283.13 133.664 283.061 134.319 282.993 135.077C282.614 140.49 282.131 145.868 282.028 151.281C282.028 153.867 282.269 156.418 281.614 158.969C281.201 160.452 280.374 161.245 279.099 161.141C277.756 161.038 276.791 159.935 276.86 158.418L276.895 158.383Z" fill="black"/>
<path d="M101.359 72.9515C101.359 73.1238 101.359 73.2962 101.359 73.4686C101.244 74.5948 101.761 74.997 102.91 74.6753C104.977 74.0892 105.356 74.2616 106.493 75.9854C106.699 76.2957 107.078 76.468 107.423 76.6749C108.25 77.192 108.835 77.8816 108.973 78.8469C109.111 79.6743 108.87 80.3638 108.077 80.7086C107.251 81.0534 106.458 80.8465 106.045 80.0535C105.597 79.2951 104.942 78.6745 104.563 77.916C104.184 77.1576 103.736 77.192 103.082 77.4334C101.979 77.8471 100.946 78.4332 99.671 78.0884C98.3618 77.7092 97.845 77.0886 97.9828 75.7095C98.0517 74.8132 98.1895 73.8823 98.2584 72.9859C98.2929 72.2964 97.9484 72.1585 97.3627 72.4343C96.5703 72.848 95.8812 73.3652 95.3644 74.0892C94.951 74.6063 94.6065 75.1924 94.1586 75.6406C93.2973 76.468 92.6082 77.1576 93.9519 78.2608C94.6754 78.8469 94.4342 79.8812 93.7452 80.6396C92.9528 81.5015 91.2301 81.536 89.8176 80.7431C88.7151 80.1225 88.405 79.1227 88.7496 77.9505C88.8874 77.5023 88.9563 76.9852 89.2319 76.6059C91.0923 73.9513 92.9183 71.2621 95.8468 69.6762C98.9819 67.9524 101.394 69.4349 101.428 72.9859L101.359 72.9515Z" fill="black"/>
<path d="M121.996 136.698C121.686 138.215 121.342 139.835 121.376 141.524C121.411 147.972 121.376 154.453 121.376 160.9C121.376 162.21 121.135 163.486 121.342 164.796C121.479 165.83 120.928 166.692 119.86 166.968C118.723 167.278 117.896 166.727 117.311 165.796C116.759 164.899 116.828 164.003 117.621 163.279C118.379 162.555 118.413 161.659 118.413 160.762C118.413 155.487 118.413 150.212 118.344 144.903C118.344 143.421 118.069 141.938 117.931 140.456C117.759 138.904 118.069 137.387 118.413 135.905C118.689 134.836 119.481 134.284 120.584 134.491C121.686 134.698 122.031 135.526 122.065 136.629L121.996 136.698Z" fill="black"/>
<path d="M231.589 121.942C231.762 122.769 232.037 123.907 232.21 125.079C232.554 127.32 231.658 129.113 229.867 130.389C228.764 131.147 227.421 130.975 226.663 130.044C225.905 129.079 226.18 127.734 227.317 127.148C229.006 126.217 229.316 125.459 228.661 123.631C228.523 123.252 228.282 122.873 228.351 122.528C228.661 120.735 227.559 120.046 226.112 119.529C224.665 119.012 223.183 118.701 221.633 118.839C221.116 118.874 220.84 119.012 220.875 119.632C220.909 120.563 220.461 121.218 219.566 121.528C218.635 121.839 217.843 121.528 217.154 120.942C216.086 119.977 215.638 118.219 216.12 116.977C216.568 115.805 217.705 115.047 219.29 115.116C222.494 115.254 225.733 115.426 228.695 116.909C230.556 117.839 231.727 119.563 231.589 121.908V121.942Z" fill="black"/>
<path d="M320.063 91.2583C321.028 91.3272 321.717 91.9823 321.924 93.0166C322.578 96.2573 324.198 99.0154 326.093 101.67C326.334 102.015 326.54 102.153 326.919 102.118C328.608 101.946 330.192 102.049 331.295 103.532C332.26 104.807 333.224 106.118 333.638 107.738C333.844 108.565 334.154 109.393 334.706 110.082C335.395 110.979 335.154 112.047 334.223 112.53C333.362 113.013 332.26 112.633 331.846 111.599C331.467 110.668 331.226 109.703 330.985 108.703C330.813 108.014 330.468 107.393 330.089 106.807C328.642 104.635 326.403 104.807 325.162 107.152C325.025 107.393 324.956 107.634 324.852 107.876C324.336 108.807 323.509 109.151 322.544 108.841C321.51 108.496 321.2 107.634 321.338 106.635C321.476 105.635 322.096 104.876 322.785 104.187C323.199 103.773 323.233 103.463 322.889 102.98C321.235 100.601 320.442 97.7743 319.237 95.1886C318.995 94.6714 318.72 94.1888 318.479 93.6716C317.893 92.465 318.651 91.2583 320.063 91.2583Z" fill="black"/>
<path d="M112.935 152.557C112.935 154.901 113.073 157.28 112.728 159.624C112.66 160.142 112.901 160.417 113.142 160.797C113.762 161.762 113.659 162.727 112.901 163.555C112.281 164.279 111.419 164.52 110.524 164.072C109.49 163.589 109.283 162.658 109.49 161.624C110.903 155.108 110.041 148.592 109.524 142.076C109.421 140.904 109.283 139.732 109.111 138.56C108.939 137.318 108.663 136.25 107.63 135.353C106.837 134.664 106.734 133.56 107.182 132.561C107.526 131.802 108.181 131.492 109.008 131.561C110.145 131.699 110.696 132.457 111.109 133.457C112.418 136.629 112.35 140.008 112.66 143.352C112.935 146.386 112.97 149.454 112.901 152.522L112.935 152.557Z" fill="black"/>
<path d="M317.514 119.425C321.614 119.322 324.921 122.528 323.509 126.458C323.44 126.631 323.405 126.838 323.302 126.941C321.855 127.941 322.027 129.389 321.924 130.906C321.786 133.664 318.892 136.353 316.308 136.56C314.448 136.698 313.104 134.974 313.862 133.423C314.31 132.526 315.068 132.181 316.032 132.388C317.927 132.768 319.34 131.354 318.995 129.423C318.926 129.079 318.789 128.768 318.651 128.424C317.996 126.838 318.375 126.01 320.029 125.665C320.615 125.562 320.856 125.286 320.925 124.769C321.063 123.804 320.305 122.701 319.271 122.39C318.134 122.045 316.894 122.425 316.48 123.287C315.653 124.907 311.933 125.148 310.865 123.666C310.21 122.735 310.52 121.528 311.588 121.046C313.724 120.115 315.929 119.425 317.479 119.46L317.514 119.425Z" fill="black"/>
<path d="M244.44 122.942C246.094 123.321 247.472 123.7 248.885 123.976C249.815 124.149 252.158 123.045 252.606 122.321C252.778 122.011 252.674 121.839 252.502 121.632C251.813 120.701 252.123 119.908 252.812 119.184C253.915 117.977 255.258 116.977 256.257 115.598C256.809 114.874 257.705 114.771 258.497 115.288C259.358 115.84 259.53 116.667 259.186 117.564C259.048 117.977 258.807 118.391 258.497 118.667C257.394 119.736 256.912 121.149 256.292 122.459C254.879 125.631 251.124 127.7 247.679 126.976C245.784 126.562 243.786 126.458 242.029 125.424C239.961 124.217 239.72 121.977 241.443 120.287C241.891 119.873 242.304 119.425 242.787 119.046C243.717 118.253 244.888 118.253 245.612 119.046C246.301 119.805 246.266 120.804 245.474 121.77C245.198 122.114 244.888 122.425 244.406 122.942H244.44Z" fill="black"/>
<path d="M169.954 95.0507C171.194 95.0507 172.159 94.6369 173.055 94.0508C173.916 93.4992 174.777 93.3268 175.535 94.1543C176.259 94.9472 176.052 95.8436 175.57 96.7055C175.225 97.3261 174.329 97.8087 174.536 98.4293C174.743 99.1188 175.777 98.8085 176.397 99.0154C177.534 99.3602 178.154 100.188 178.016 101.222C177.844 102.256 176.982 102.842 175.777 102.739C174.054 102.601 172.572 101.877 171.263 100.808C170.988 100.601 170.643 100.257 170.643 99.9807C170.643 98.188 169.299 98.3259 168.163 98.0501C165.854 97.5674 165.027 96.3263 165.303 94.0164C165.372 93.3613 165.475 92.7063 165.579 92.0857C165.682 91.4307 165.958 90.7756 166.543 90.4309C168.231 89.3966 170.161 88.9829 171.987 88.3623C172.71 88.1209 173.434 88.6036 173.813 89.3276C174.226 90.155 174.123 90.948 173.537 91.6375C172.951 92.327 172.193 92.7408 171.332 92.9476C170.85 93.051 170.402 93.1889 169.92 93.2579C169.231 93.3613 168.576 93.5337 168.679 94.4301C168.817 95.2575 169.61 94.7748 169.885 95.0162L169.954 95.0507Z" fill="black"/>
<path d="M75.5543 83.6046C76.3122 82.9495 77.1735 82.5358 78.0693 82.1911C80.1709 81.3636 81.2734 81.9153 81.928 84.0872C82.1691 84.9147 82.3069 85.7076 83.2372 86.1903C83.9951 86.604 84.1674 87.4659 83.754 88.2589C83.3061 89.1208 82.5481 89.3621 81.6179 89.1208C80.4121 88.845 79.5852 87.6038 79.4129 86.0179C79.3785 85.6387 79.5852 85.0871 79.1718 84.9492C78.7239 84.7768 78.2416 85.1905 77.9315 85.5008C77.2769 86.1213 76.6567 86.8109 76.0021 87.4659C75.4854 87.9831 74.8997 88.3623 74.1073 88.0865C73.3838 87.8451 73.177 87.2246 73.1426 86.5351C73.0392 84.501 71.4889 83.6735 70.0763 82.7427C69.594 82.4324 69.1806 82.6048 68.8705 83.0874C68.4915 83.6391 68.5604 84.2252 68.6293 84.8457C68.7327 86.0524 68.0781 86.8109 66.9756 86.9488C65.7698 87.0867 64.7706 86.3627 64.5639 85.225C64.2194 83.1564 65.8731 80.0535 67.8025 79.2261C69.215 78.64 70.5242 79.2261 71.6267 79.9501C73.1081 80.9499 74.5551 82.0187 75.5543 83.6391V83.6046Z" fill="black"/>
<path d="M172.021 82.0187C172.676 82.5703 173.468 82.7772 174.295 82.8806C175.087 82.9495 175.88 83.0185 176.638 83.2253C177.775 83.5012 178.36 84.432 178.188 85.4663C178.016 86.4661 177.12 87.2246 175.983 87.0522C174.467 86.8453 172.986 86.4661 171.573 85.8111C171.057 85.5697 170.574 85.2939 170.023 85.1215C168.197 84.4665 167.542 82.8116 168.507 81.1568C170.884 76.9507 175.432 75.744 179.566 76.8817C180.703 77.192 181.737 77.9505 182.736 78.6056C183.459 79.0882 183.632 79.8812 183.39 80.7086C183.184 81.5015 182.667 82.0187 181.875 82.1566C180.6 82.3979 179.428 82.1566 178.464 81.2947C176.534 79.5364 173.503 79.8467 171.987 82.0187H172.021Z" fill="black"/>
<path d="M274.242 128.01C275.62 128.01 276.447 129.285 275.999 130.837C274.931 134.319 274.69 137.939 274.517 141.559C274.448 143.455 274.689 145.317 274.896 147.179C274.965 147.661 275.103 148.075 275.413 148.489C276.102 149.351 276.102 150.281 275.516 151.178C275 151.936 274.242 152.247 273.346 152.074C272.243 151.902 271.623 151.178 271.554 150.109C271.175 145.937 270.555 141.766 271.106 137.594C271.417 135.146 271.382 132.63 272.037 130.216C272.416 128.768 273.139 128.01 274.242 128.044V128.01Z" fill="black"/>
<path d="M114.313 81.9497C114.313 80.812 115.14 79.5709 116.105 79.7777C117.793 80.157 119.24 79.2951 120.825 79.1572C122.444 79.0193 123.719 79.2606 124.373 80.881C124.649 81.5015 125.028 81.2947 125.441 81.1568C126.785 80.6741 128.267 80.5362 129.369 81.3981C130.782 82.5014 131.884 83.9494 133.676 84.6044C134.33 84.8457 134.365 85.7766 134.055 86.5006C133.779 87.1901 133.193 87.5693 132.435 87.6383C130.713 87.8107 128.646 86.7764 128.025 85.156C127.509 83.8804 126.854 84.2596 126.131 84.7423C125.752 85.0181 125.476 85.4318 125.131 85.7766C124.546 86.3972 123.857 86.7074 123.03 86.3972C122.237 86.0524 121.824 85.4318 121.755 84.5699C121.617 83.0989 120.882 82.6967 119.55 83.3633C118.62 83.8459 117.69 84.3631 116.587 84.2252C115.244 84.0873 114.348 83.1909 114.348 81.9497H114.313Z" fill="black"/>
<path d="M256.12 98.5672C256.189 98.8775 256.223 99.1188 256.257 99.3947C256.361 100.257 256.12 100.981 255.362 101.429C254.569 101.911 253.742 101.842 253.053 101.222C252.261 100.532 251.365 100.015 250.332 99.7049C249.401 99.4291 248.712 98.7741 248.816 97.6709C248.919 96.5676 249.677 96.2229 250.676 95.9815C253.363 95.292 255.982 95.0162 258.669 96.016C260.977 96.8779 262.459 98.5672 263.389 100.774C263.734 101.636 263.389 102.498 263.045 103.325C262.803 103.808 262.872 104.083 263.32 104.394C264.147 104.945 264.388 105.807 263.975 106.704C263.527 107.669 262.631 107.945 261.667 107.703C260.598 107.428 259.565 107.083 258.566 106.669C257.877 106.393 257.429 105.876 257.463 105.049C257.498 104.29 257.98 103.877 258.635 103.635C259.083 103.463 259.53 103.256 259.875 102.911C260.667 102.118 260.805 101.394 259.978 100.429C258.945 99.2912 257.877 98.4983 256.12 98.5672Z" fill="black"/>
<path d="M237.171 151.143C237.309 147.661 236.861 144.145 237.757 140.697C237.825 140.352 237.894 140.008 238.032 139.697C238.411 138.663 239.135 138.077 240.272 138.353C241.374 138.594 241.787 139.456 241.719 140.525C241.719 140.766 241.65 141.042 241.546 141.283C240.306 144.248 240.616 147.351 240.719 150.454C240.788 152.212 240.823 153.936 240.926 155.694C240.961 156.556 240.961 157.418 241.34 158.245C241.96 159.555 241.581 160.659 240.478 161.072C239.272 161.555 237.963 160.9 237.55 159.624C237.136 158.349 237.205 157.039 237.171 155.729C237.171 154.212 237.171 152.66 237.171 151.143Z" fill="black"/>
<path d="M91.2646 33.6487C91.1957 34.7175 90.4377 35.2346 89.5764 35.7862C85.6144 38.4064 81.4801 40.7852 78.2071 44.3363C77.4492 45.1292 76.829 46.0256 76.2089 46.922C75.4165 48.1287 74.2795 48.4734 73.3493 47.8529C72.3846 47.1978 72.2813 46.0946 73.1081 44.8534C74.5896 42.6814 76.45 40.8887 78.5516 39.3717C81.7902 37.0274 85.0632 34.683 88.2328 32.2007C88.8529 31.718 89.5764 31.5457 90.2999 31.9594C90.9201 32.3041 91.2301 32.8557 91.2646 33.6142V33.6487Z" fill="black"/>
<path d="M102.462 107.359C101.841 106.876 101.049 106.29 101.428 105.29C101.945 103.911 103.116 103.118 104.494 102.877C105.907 102.635 107.388 102.911 108.766 103.187C109.8 103.394 110.248 104.256 110.041 105.29C109.834 106.359 109.077 106.91 108.043 106.738C107.182 106.6 106.803 106.807 106.665 107.669C106.596 108.117 106.286 108.496 105.907 108.703C104.391 109.531 103.357 110.91 102.117 112.185C102.772 112.496 103.461 112.461 104.115 112.496C105.321 112.599 106.01 113.357 105.804 114.323C105.631 115.254 104.77 115.736 103.667 115.461C101.979 115.047 100.291 114.599 98.603 114.15C97.2249 113.771 96.9493 112.875 97.9828 111.875C99.5332 110.427 101.359 109.255 102.427 107.29L102.462 107.359Z" fill="black"/>
<path d="M77.4491 147.834C77.3113 144.627 77.2769 141.387 76.5534 138.215C76.2433 136.939 76.3467 135.595 76.6567 134.319C76.9324 133.112 77.8281 132.423 78.8961 132.595C79.9297 132.768 80.6532 133.664 80.4121 134.836C79.7575 138.18 80.9633 141.421 80.8255 144.731C80.791 145.8 80.9288 146.903 80.9977 148.006C81.0322 148.799 81.1356 149.557 81.4801 150.281C82.1002 151.557 81.7557 152.729 80.6532 153.143C79.5507 153.591 78.276 153.005 77.8281 151.729C77.6214 151.109 77.518 150.454 77.4491 149.799C77.3802 149.144 77.4491 148.489 77.4491 147.834Z" fill="black"/>
<path d="M108.87 90.0861C106.906 91.7754 106.768 91.7754 104.632 90.1895C104.012 89.7413 103.495 89.6724 102.944 90.3619C102.255 91.2238 101.359 91.6375 100.291 91.1549C99.3265 90.7411 99.0164 89.8792 99.0853 88.8794C99.1887 87.7073 99.7399 86.9143 100.946 86.4661C102.703 85.8111 104.357 86.0179 105.976 86.8109C106.458 87.0522 106.768 86.9832 107.113 86.6385C107.595 86.1903 108.146 85.8455 108.801 85.6387C110.041 85.225 111.281 85.8111 111.592 87.0522C111.798 87.9141 112.039 88.5002 113.004 88.8105C113.9 89.0863 114.348 89.9482 114.038 90.948C113.728 91.9823 112.935 92.3615 111.902 92.2581C110.489 92.0857 109.49 91.3272 108.835 90.0861H108.87Z" fill="black"/>
<path d="M133.124 116.426C134.502 116.771 136.294 116.426 137.155 118.288C137.362 118.736 137.672 118.357 137.844 118.15C138.361 117.564 138.878 116.977 139.636 116.667C140.463 116.357 141.221 116.495 141.737 117.219C142.254 117.943 142.254 118.736 141.669 119.391C139.016 122.183 133.813 124.217 130.024 122.011C128.094 120.873 127.853 118.977 129.576 117.564C130.54 116.771 131.712 116.426 133.124 116.426Z" fill="black"/>
<path d="M331.019 90.0516C329.469 90.1206 328.125 89.8448 326.816 89.5689C325.989 89.3966 325.404 88.8794 325.3 87.983C325.197 87.1211 325.438 86.3971 326.23 85.9834C327.023 85.5697 327.746 85.7421 328.366 86.3627C329.021 87.0177 329.848 87.0867 330.675 87.1211C332.087 87.1901 333.431 87.4314 334.809 87.7762C338.013 88.6381 339.77 91.1893 339.357 94.499C339.219 95.6023 339.495 96.5676 339.977 97.5329C340.528 98.6362 340.287 99.6015 339.391 100.015C338.289 100.498 337.496 99.9807 337.014 99.0499C336.153 97.5329 336.187 95.8436 336.532 94.1888C336.945 92.1202 336.118 90.8446 334.051 90.3964C332.983 90.155 331.915 89.9137 330.985 90.0171L331.019 90.0516Z" fill="black"/>
<path d="M179.911 124.08C180.462 122.356 180.083 120.287 180.393 118.253C180.634 116.84 180.703 115.426 179.876 114.081C179.291 113.116 179.739 111.806 180.669 111.185C181.599 110.565 182.805 110.737 183.632 111.668C184.217 112.323 184.493 113.116 184.424 113.944C184.183 116.977 183.873 120.011 183.597 123.045C183.528 123.631 183.494 124.114 184.011 124.562C184.975 125.459 185.079 126.493 184.355 127.32C183.597 128.217 182.15 128.32 181.151 127.562C180.393 126.976 179.945 125.803 179.911 124.08Z" fill="black"/>
<path d="M91.0923 143.696C90.9545 145.834 90.8512 147.972 90.231 150.006C90.0243 150.626 90.0588 151.281 90.0588 151.936C90.0243 152.833 90.1966 153.419 91.1957 153.763C92.057 154.039 92.3671 154.901 92.1604 155.832C91.9192 156.763 91.2646 157.177 90.3344 157.211C88.3706 157.28 86.7513 155.694 86.7169 153.557C86.7169 151.867 86.5791 150.178 86.958 148.489C87.3026 146.937 87.3026 145.386 86.958 143.834C86.7513 142.972 86.958 142.18 87.7504 141.662C88.4739 141.214 89.2664 141.214 89.9899 141.559C90.8512 142.007 91.2301 142.731 91.1612 143.696H91.0923Z" fill="black"/>
<path d="M264.216 114.599C264.974 114.668 265.87 114.84 266.731 115.185C267.489 115.461 267.937 116.012 268.04 116.84C268.212 118.115 268.729 118.391 269.901 117.874C270.865 117.426 271.864 117.115 272.932 117.253C273.932 117.357 274.552 117.908 274.69 118.908C274.827 119.908 274.242 120.529 273.311 120.873C269.556 122.252 266.076 121.528 262.769 119.46C261.977 118.977 261.288 118.357 261.15 117.357C260.909 115.805 262.218 114.564 264.182 114.633L264.216 114.599Z" fill="black"/>
<path d="M191.556 92.1891C190.763 92.0857 189.868 92.1891 188.937 92.2926C187.697 92.4305 186.698 91.4996 186.629 90.2929C186.595 89.0518 187.456 87.9486 188.696 88.1209C191.28 88.4312 193.933 88.2589 196.448 89.1208C197.861 89.6034 198.377 90.3274 198.171 91.7754C198.033 92.9821 197.826 94.2232 196.758 95.0507C196.448 95.292 196.379 95.7057 196.207 96.0849C195.724 97.0847 194.932 97.395 193.933 96.9813C193.003 96.6365 192.624 95.4644 193.141 94.568C193.451 94.0164 193.967 93.5682 194.381 93.051C194.829 92.5684 194.725 92.2926 194.105 92.1891C193.657 92.1202 193.244 92.0512 192.796 92.0512C192.417 92.0512 192.004 92.1202 191.487 92.1547L191.556 92.1891Z" fill="black"/>
<path d="M90.8512 43.6123C90.7478 44.9224 89.8865 45.8877 88.6117 46.267C86.0278 47.0254 84.7186 49.094 83.2716 51.0591C82.6859 51.8521 82.1347 52.5071 81.1011 52.4727C80.3087 52.4382 79.6541 52.0245 79.344 51.266C78.9306 50.2662 79.2407 49.4043 79.9642 48.6458C82.3069 46.129 84.8909 43.8536 87.6815 41.8195C88.3361 41.3369 89.0596 41.3024 89.7831 41.6816C90.5066 42.0609 90.8167 42.7159 90.8512 43.6468V43.6123Z" fill="black"/>
<path d="M295.292 146.868C295.533 143.559 295.809 140.249 295.43 136.939C295.327 136.146 295.533 135.284 295.706 134.491C295.981 133.457 296.739 132.974 297.807 133.216C298.806 133.457 299.323 134.284 299.047 135.215C298.186 138.111 298.875 141.042 298.703 143.938C298.668 144.696 298.806 145.489 299.082 146.248C299.461 147.316 299.22 148.351 298.358 149.109C297.773 149.626 297.084 149.695 296.395 149.351C295.361 148.833 295.292 147.868 295.292 146.868Z" fill="black"/>
<path d="M307.213 156.211C307.35 154.039 307.764 152.247 308.763 150.661C309.28 149.833 310.038 149.454 311.002 149.764C312.036 150.109 312.381 150.902 312.277 151.936C312.208 152.557 311.898 153.074 311.588 153.626C310.107 156.039 310.313 157.315 312.484 159.038C313.483 159.831 314.069 160.797 313.724 162.107C313.483 163.003 312.897 163.555 311.933 163.555C311.002 163.555 310.313 163.072 310.176 162.107C310.038 161.245 309.521 160.693 309.039 160.107C308.04 158.866 307.213 157.521 307.247 156.177L307.213 156.211Z" fill="black"/>
<path d="M174.467 120.218C173.744 122.769 174.398 125.286 174.605 127.837C174.674 128.734 174.743 129.665 174.536 130.561C174.295 131.63 173.606 132.25 172.504 132.216C171.435 132.181 170.643 131.492 170.712 130.492C170.988 127.044 170.092 123.631 170.574 120.218C170.678 119.598 170.781 119.012 171.229 118.563C171.849 117.943 172.607 117.805 173.399 118.15C174.261 118.529 174.502 119.322 174.467 120.218Z" fill="black"/>
<path d="M174.812 22.3405C175.535 22.3405 176.121 22.6163 176.466 23.2369C177.396 25.0641 178.671 26.65 179.36 28.6497C179.876 30.2011 181.082 31.4767 181.702 33.0281C182.288 34.4761 182.081 35.5104 181.013 35.8896C179.876 36.3034 178.912 35.6138 178.533 34.0969C178.326 33.235 177.947 32.4765 177.43 31.7525C176.018 29.8218 175.329 27.443 173.365 25.8916C172.676 25.3399 172.745 24.2712 173.158 23.4438C173.503 22.7542 174.088 22.4095 174.846 22.375L174.812 22.3405Z" fill="black"/>
<path d="M320.752 152.833C320.132 154.522 320.098 156.522 320.305 158.521C320.374 159.28 320.442 160.004 320.752 160.693C321.2 161.727 320.925 162.624 319.891 163.107C318.858 163.589 318.031 163.141 317.411 162.245C317.273 162.072 317.169 161.865 317.135 161.659C316.722 158.418 316.205 155.143 317.135 151.902C317.411 150.868 318.203 150.316 319.34 150.523C320.408 150.73 320.821 151.523 320.787 152.798L320.752 152.833Z" fill="black"/>
<path d="M211.297 165.554C211.952 163.727 211.745 161.348 212.124 159.038C212.331 157.728 213.433 156.866 214.708 156.866C215.569 156.866 216.258 157.211 216.568 158.039C216.878 158.866 216.672 159.624 215.948 160.107C215.19 160.59 215.087 161.176 215.156 162.003C215.293 163.555 214.777 165.037 215.156 166.658C215.431 167.761 214.225 168.761 213.123 168.692C211.917 168.623 211.263 167.657 211.331 165.554H211.297Z" fill="black"/>
<path d="M172.572 34.6485C173.365 34.6485 174.123 35.0967 174.398 35.9586C175.053 38.0961 176.293 39.9923 176.81 42.1298C177.189 43.6812 176.776 44.819 175.57 45.0948C174.33 45.405 173.193 44.5431 173.02 42.9917C172.883 41.923 172.435 40.9921 171.883 40.1302C171.263 39.1304 170.712 38.0616 170.609 36.8894C170.505 35.6483 171.298 34.7175 172.607 34.683L172.572 34.6485Z" fill="black"/>
<path d="M193.106 101.429C194.036 101.429 194.691 101.877 195.139 102.635C195.621 103.463 196.035 104.325 196.172 105.29C196.276 106.117 196.586 106.841 197.171 107.497C198.171 108.669 198.102 109.979 197.137 110.703C196.172 111.427 194.932 111.082 194.036 109.806C193.761 109.427 193.485 109.013 193.347 108.565C193.003 107.428 192.658 106.462 191.625 105.669C190.694 104.945 190.694 103.739 191.142 102.635C191.487 101.774 192.21 101.394 193.106 101.394V101.429Z" fill="black"/>
<path d="M292.501 53.8172C294.19 53.9206 295.774 53.7483 297.118 52.4726C297.842 51.7831 299.013 52.0589 299.495 52.8519C300.012 53.6793 299.771 54.8515 298.772 55.2997C297.187 56.0237 295.602 56.7477 293.845 56.989C292.949 57.1269 292.088 57.1959 291.296 57.782C290.4 58.437 289.228 58.0578 288.712 57.1269C288.16 56.1271 288.539 54.817 289.573 54.1965C290.503 53.6448 291.502 53.7827 292.501 53.8172Z" fill="black"/>
<path d="M301.769 80.7431C303.319 80.7431 304.353 81.5705 304.525 82.8461C304.629 83.5701 304.835 84.1217 305.283 84.7078C305.938 85.5352 305.903 86.4661 305.077 87.1556C304.25 87.8796 303.388 87.7072 302.63 86.9832C302.458 86.8453 302.32 86.673 302.217 86.4661C301.804 85.5697 301.39 85.3284 300.391 85.949C299.495 86.5006 298.496 86.1213 297.945 85.156C297.359 84.1907 297.635 82.5013 298.6 81.9842C299.668 81.3981 300.908 81.0533 301.804 80.7086L301.769 80.7431Z" fill="black"/>
<path d="M43.4101 102.601C43.4101 103.945 42.3765 104.773 41.1707 104.635C40.3438 104.532 39.7581 104.049 39.2069 103.428C38.3111 102.394 37.4843 101.291 35.8995 101.118C34.9348 101.015 34.4869 100.084 34.6936 99.0844C34.9003 98.0846 35.6239 97.5329 36.5885 97.6708C37.8288 97.8432 39.0691 98.119 39.8615 99.3257C40.4127 100.119 41.1018 100.739 42.1009 101.015C42.9278 101.256 43.3412 101.911 43.3757 102.601H43.4101Z" fill="black"/>
<path d="M96.398 50.0249C96.398 50.6454 95.9846 51.266 95.2266 51.5418C93.9863 51.99 93.0906 52.8864 92.2637 53.8172C91.9192 54.1965 91.5058 54.5757 91.0234 54.7481C90.1966 55.0928 89.3697 54.9549 88.8185 54.162C88.3017 53.438 88.3017 52.5761 88.9563 52.0245C90.4377 50.8178 91.678 49.3009 93.4006 48.37C94.8821 47.577 96.3636 48.301 96.3636 49.9904L96.398 50.0249Z" fill="black"/>
<path d="M260.702 43.8881C259.978 43.7157 258.807 43.5089 257.704 43.1296C256.774 42.8193 256.395 42.0264 256.43 41.0611C256.499 39.9923 256.843 39.0614 257.946 38.6822C258.876 38.3719 259.599 38.6822 260.013 39.5786C260.22 40.0268 260.288 40.406 260.909 40.1302C261.77 39.751 262.562 39.8889 263.148 40.6129C263.665 41.2679 263.665 41.9919 263.286 42.6814C262.838 43.5778 262.08 43.8881 260.702 43.8881Z" fill="black"/>
<path d="M249.505 138.904C248.161 138.904 247.059 138.042 247.059 136.87C247.059 134.974 248.23 133.25 249.539 133.216C250.848 133.181 252.468 134.698 252.502 136.043C252.537 137.491 251.09 138.87 249.505 138.904Z" fill="black"/>
<path d="M300.047 46.0256C299.461 46.0256 299.151 45.9911 298.841 45.9567C297.532 45.7843 296.739 44.9224 296.911 43.8191C297.049 42.7504 297.945 42.0953 299.22 42.2677C299.909 42.3712 300.46 42.2677 301.115 42.0609C301.976 41.7506 302.803 41.9574 303.251 42.8193C303.733 43.7157 303.492 44.5431 302.699 45.1292C301.838 45.7843 300.873 46.129 300.081 46.0601L300.047 46.0256Z" fill="black"/>
<path d="M110.914 208.516C110.219 210.587 109.691 212.385 109.003 214.131C108.573 215.219 108.92 215.914 109.675 216.625C110.68 217.562 111.865 218.302 112.651 219.496C114.063 221.635 115.686 223.645 117.008 225.836C118.133 227.71 117.906 229.841 117.408 231.889C117.204 232.743 116.857 233.559 116.57 234.39C116.192 235.486 115.739 236.393 116.675 237.647C117.529 238.781 116.691 240.232 115.883 241.282C115.195 242.181 114.138 242.121 113.111 241.728C112.53 241.509 111.896 241.433 111.299 241.237C109.91 240.783 108.49 240.36 108.218 238.584C108.195 238.418 108.037 238.244 107.893 238.139C106.67 237.224 106.904 236.113 107.395 234.919C108.097 233.227 108.52 231.451 108.837 229.645C108.966 228.927 108.883 228.466 108.218 228.073C106.919 227.31 105.704 226.38 104.367 225.693C102.57 224.763 100.909 223.637 99.2096 222.549C97.7371 221.612 96.2646 221.34 94.5656 221.982C92.9044 222.61 91.3111 223.35 89.8688 224.37C88.1698 225.572 86.4179 225.798 84.5301 224.922C82.1439 223.811 79.6823 222.927 77.3338 221.673C74.4417 220.131 72.0556 218.053 69.609 215.997C69.1635 215.62 68.8463 215.484 68.3026 215.846C67.3512 216.481 66.2714 216.481 65.2067 216.217C63.5077 215.801 62.9036 214.222 64.0211 212.907C64.5271 212.31 64.9197 211.72 65.1538 210.995C65.4181 210.186 65.9542 209.574 66.664 209.113C67.0869 208.841 67.54 208.599 67.9251 208.282C70.1753 206.438 72.637 206.756 74.7664 208.146C76.9714 209.582 79.4557 210.587 81.4266 212.4C82.2421 213.156 83.4729 213.353 84.3262 214.139C84.7717 214.547 85.2928 214.282 85.7609 214.139C87.2636 213.662 88.2528 212.476 89.4006 211.501C89.6724 211.267 89.6725 210.972 89.529 210.647C89.0608 209.559 89.6045 208.781 90.2237 207.904C91.9907 205.418 93.1535 202.63 94.1276 199.751C94.2862 199.282 94.4221 198.791 94.1125 198.322C93.8105 198.254 93.5991 198.398 93.4405 198.594C92.1945 200.121 90.7523 201.421 89.0684 202.448C89.0155 202.479 88.94 202.516 88.9173 202.562C88.0414 204.481 86.1007 205.003 84.4848 205.962C83.2464 206.703 82.0533 206.914 80.7394 206.212C79.3198 205.448 77.7794 205.003 76.994 203.257C76.6693 202.531 75.3781 202.184 74.4644 201.806C73.1278 201.254 71.746 200.824 70.3717 200.37C69.8355 200.196 69.2767 200.068 68.718 200C66.1883 199.713 65.5767 200.295 64.8895 202.758C63.8475 206.506 62.964 210.353 61.3933 213.882C59.8302 217.411 57.882 220.864 54.922 223.547C53.6836 224.673 53.7666 225.315 55.1485 226.343C57.429 228.043 57.5875 229.834 55.6846 231.655C54.6803 232.615 53.5477 232.622 52.347 232.222C51.4333 231.919 50.6858 231.36 50.0515 230.627C49.1906 229.63 48.3223 228.678 46.7592 228.851C46.0267 228.935 45.4906 228.338 45.2565 227.627C45.0299 226.947 45.2414 226.29 45.8304 225.972C46.9253 225.383 46.7365 224.249 47.0763 223.358C47.3179 222.708 46.7441 222.413 46.2834 222.292C43.4215 221.544 40.7786 220.191 37.8865 219.496C34.3224 218.635 31.2793 216.783 28.9988 213.829C28.2512 212.861 26.2804 212.242 25.1628 212.657C24.8985 212.756 24.7551 212.929 24.6795 213.179C24.604 213.421 24.4908 213.647 24.4304 213.897C24.1208 215.151 23.5318 216.134 22.0895 216.247C20.6472 216.36 19.2805 215.446 18.6839 214.018C18.261 213.005 18.1402 211.94 18.2837 210.867C18.3743 210.202 18.261 209.763 17.6872 209.264C16.5243 208.259 16.8188 207.05 18.3139 206.597C19.9903 206.091 21.7572 205.94 23.494 205.902C26.522 205.834 26.522 205.902 26.4994 202.872C26.4994 202.494 26.4994 202.116 26.4994 201.738C26.5371 199.32 27.2696 198.466 29.6105 198.02C32.646 197.446 34.8283 198.98 36.7992 200.937C37.441 201.572 38.0602 202.086 38.9135 202.426C40.1896 202.94 41.2166 202.615 42.2738 201.912C44.8185 200.219 47.0537 198.262 48.4204 195.421C48.9565 194.302 49.7041 193.252 50.9425 192.36C49.7947 191.861 48.8659 191.348 47.8692 191.045C45.8304 190.441 44.2673 189.292 43.2479 187.418C43.1044 187.154 42.9609 186.867 42.606 186.761C42.0095 187.441 41.9113 188.355 41.5337 189.141C40.9825 190.282 40.2198 190.713 39.3439 190.343C38.4982 189.98 38.2414 189.103 38.6794 187.917C38.9437 187.207 39.2911 186.534 39.5402 185.824C39.9329 184.705 39.9254 184.38 39.6082 183.126C39.0721 182.975 38.9966 183.458 38.8229 183.746C38.1508 184.834 37.2824 185.748 36.2555 186.489C35.4173 187.093 34.5867 186.987 34.0883 186.285C33.5673 185.544 33.7409 184.849 34.3299 184.237C34.6773 183.874 35.1153 183.594 35.4551 183.232C36.4594 182.159 37.2447 180.957 37.2296 179.408C37.2145 178.501 37.4486 177.64 37.9016 176.884C38.6114 175.705 38.7172 174.557 38.0904 173.31C37.8941 172.924 37.811 172.463 37.7808 172.033C37.7053 171.035 37.2598 170.469 36.2706 170.151C35.3267 169.849 34.7603 169.055 34.5036 168.081C34.3752 167.574 34.2997 166.849 34.6924 166.66C35.9912 166.04 35.6891 164.824 35.9761 163.811C36.5047 161.952 38.7247 160.652 40.7711 161.068C41.7074 161.257 42.6136 161.302 43.565 161.302C46.0871 161.295 47.3557 163.131 46.442 165.504C45.9965 166.66 45.8077 167.929 44.9016 168.912C44.3805 169.479 44.4863 170.332 44.4561 171.088C44.3881 172.819 44.9393 174.625 43.8142 176.234C43.7009 176.393 43.784 176.733 43.8595 176.967C44.5014 178.811 45.1281 180.662 46.2683 182.28C47.0159 183.338 47.99 184.093 49.2888 184.403C50.6329 184.72 51.9695 185.083 53.3211 185.393C53.963 185.544 54.5897 185.446 55.1108 185.023C55.9414 184.35 56.9079 183.897 57.9424 183.292C56.5304 181.97 55.0277 180.98 53.3513 180.285C52.2715 179.831 51.3503 179.234 50.6933 178.259C50.2327 177.564 49.6135 177.028 48.9188 176.589C48.2618 176.174 47.9522 175.592 48.0731 174.836C48.511 172.071 49.7419 170.098 52.6944 169.237C56.8249 168.028 61.0686 167.537 65.3577 167.446C66.2714 167.423 67.1549 167.431 67.6683 168.345C67.8949 168.738 68.2422 168.746 68.6122 168.836C70.3792 169.275 70.5756 169.705 70.9984 171.511C71.459 173.484 71.089 175.388 70.9078 177.315C70.7568 178.924 69.8959 180.141 68.4461 180.897C67.8873 181.184 67.3361 181.501 66.7547 181.728C65.9542 182.045 65.5314 182.363 65.9769 183.383C66.6565 184.955 66.1506 186.761 66.7396 188.393C67.0567 189.277 67.2681 190.199 67.5022 191.113C67.8647 192.526 68.8388 193.267 70.2206 193.312C72.0405 193.373 73.6338 193.992 75.2271 194.801C76.4504 195.421 77.7869 195.851 79.1084 196.244C80.3317 196.615 81.4794 197.076 82.4233 197.967C83.0048 198.511 83.4276 198.353 84.0015 197.801C86.2593 195.617 88.6908 193.637 91.3035 191.884C92.255 191.242 93.2064 190.909 94.3164 191.34C94.9658 191.597 95.5775 191.461 96.1287 191.136C98.2128 189.889 100.591 189.98 102.872 189.625C103.982 189.451 104.76 188.605 104.359 187.494C104.042 186.617 104.201 185.907 104.526 185.136C105.183 183.564 105.824 181.977 107.161 180.829C107.516 180.519 107.629 180.149 107.742 179.703C108.377 177.134 110.106 176.106 112.552 177.103C114.085 177.723 115.694 178.32 116.962 179.537C117.559 180.111 117.921 180.655 117.929 181.463C117.967 185.582 116.985 189.217 113.194 191.529C112.198 192.141 111.405 192.844 111.533 194.204C111.578 194.657 111.661 194.914 112.084 195.02C113.602 195.413 114.289 196.705 114.901 197.907C115.626 199.335 117.038 200.219 117.619 201.723C117.801 202.184 118.231 202.078 118.541 201.776C120.119 200.227 121.803 198.814 123.789 197.793C124.151 197.612 124.189 197.166 124.325 196.826C124.582 196.176 124.914 195.579 125.382 195.05C126.56 193.72 127.466 193.463 128.863 194.083C130.245 194.695 131.227 196.35 130.924 197.756C130.607 199.229 130.298 200.756 128.704 201.504C128.357 201.662 128.153 201.965 127.972 202.327C126.522 205.343 124.302 207.708 121.659 209.703C120.104 210.874 118.374 211.244 116.479 210.768C114.606 210.3 112.568 210.262 110.884 208.531L110.914 208.516ZM79.7125 199.645C79.5388 199.456 79.4482 199.252 79.2971 199.199C76.9487 198.322 74.5324 197.597 72.2972 196.426C71.7535 196.139 71.1117 196.033 70.4698 196.025C67.5475 195.987 65.5842 194.665 64.7687 191.778C64.6177 191.249 64.444 190.683 63.6889 190.66C61.0611 190.584 59.4904 189.224 58.9996 186.625C58.252 186.632 57.7235 186.987 57.2326 187.365C55.594 188.642 53.8346 188.725 51.8864 188.166C50.1043 187.652 48.2845 187.214 46.4345 186.587C46.6232 187.471 47.2047 187.751 47.771 187.985C49.8627 188.854 51.9544 189.7 54.0611 190.516C54.8616 190.826 55.6167 191.166 55.6771 192.141C55.7375 193.176 55.0805 193.788 54.1895 194.083C52.5811 194.612 51.5693 195.73 50.8141 197.181C50.4366 197.907 49.9835 198.594 49.5682 199.297C47.8843 202.139 45.0677 203.597 42.3644 205.184C42.0548 205.365 41.647 205.441 41.2846 205.479C38.838 205.728 36.7161 205.071 34.9944 203.227C33.8618 202.018 32.5932 200.975 30.8262 200.914C29.686 200.877 29.4896 201.058 29.4745 202.184C29.467 203.438 29.5123 204.7 29.5878 205.955C29.9805 212.333 32.9405 214.992 38.4 216.798C41.4356 217.804 44.3881 219.058 47.4765 219.919C48.141 220.101 48.6545 220.63 49.2057 221.045C50.6858 222.156 52.5056 222.05 53.8346 220.804C54.6652 220.025 55.3599 219.134 55.9414 218.151C56.553 217.123 57.1798 216.103 57.8443 215.113C58.5918 214.003 59.1506 212.824 59.5282 211.547C60.1247 209.491 60.7137 207.436 61.3933 205.403C61.7709 204.277 62.4958 203.257 62.458 202.018C62.3976 199.856 64.2854 198.73 65.0632 197.015C65.2142 196.69 65.7201 196.479 66.0599 196.592C67.4569 197.045 68.9369 196.562 70.3339 197.076C72.5162 197.869 74.6456 198.783 76.7297 199.804C77.7945 200.325 78.7157 200.385 79.72 199.652L79.7125 199.645ZM100.584 213.05C99.6627 213.413 99.4059 214.04 98.9679 214.479C98.5073 214.94 97.9032 215.416 97.3067 215.113C96.1816 214.539 94.7846 214.547 93.8633 213.662C92.9723 212.809 92.3682 213.073 91.6433 213.768C91.1449 214.244 90.5937 214.675 90.0727 215.128C88.9702 216.096 87.7243 216.806 86.3122 217.229C84.8322 217.683 83.4578 217.72 82.3403 216.398C82.1439 216.164 81.8494 216.005 81.5776 215.854C79.0026 214.411 76.5032 212.846 74.0642 211.199C73.2864 210.678 72.7654 210.504 72.3199 211.501C72.2217 211.728 72.048 211.94 71.8592 212.098C71.0513 212.771 71.2929 213.451 71.9272 214.003C73.3921 215.287 74.7891 216.708 76.4277 217.72C78.98 219.292 81.6229 220.751 84.4244 221.899C86.1687 222.617 87.6185 222.685 89.1514 221.476C90.7523 220.214 92.6401 219.481 94.5807 218.907C95.4868 218.635 96.4307 218.363 97.3595 218.741C98.5753 219.232 99.8363 219.572 100.961 220.35C102.343 221.317 103.793 222.194 105.341 222.942C107.093 223.781 108.754 224.839 110.363 225.927C111.586 226.751 112.175 227.922 111.828 229.516C111.427 231.36 111.163 233.234 110.582 235.04C110.272 236 110.65 236.408 111.654 236.363C112.303 236.332 112.651 235.97 112.938 235.418C113.768 233.846 114.335 232.161 114.773 230.476C115.135 229.093 115.022 227.673 114.108 226.327C113.466 225.383 112.537 224.673 112.047 223.645C111.193 221.831 109.827 220.479 108.331 219.202C107.682 218.65 107.048 218.302 106.126 218.438C104.918 218.62 103.755 218.204 102.623 217.826C101.505 217.448 100.871 216.655 100.795 215.438C100.75 214.705 100.659 213.972 100.569 213.05H100.584ZM86.0479 200.907C87.7922 199.804 89.4459 198.965 90.6239 197.461C91.2129 196.713 91.9 196.078 92.7005 195.557C93.9389 194.756 95.283 194.605 96.6799 194.945C97.503 195.141 98.243 195.806 97.8957 196.547C97.2085 198.02 97.4879 199.645 96.8687 201.103C96.0154 203.128 95.2528 205.191 94.1503 207.111C92.7458 209.559 92.8515 209.809 95.3358 211.161C95.7964 211.411 96.2948 211.441 96.7857 211.539C97.1179 211.607 97.4048 211.509 97.654 211.29C99.0208 210.073 100.395 208.683 101.075 207.096C102.177 204.526 102.668 201.685 103.393 198.95C103.567 198.285 103.423 197.831 102.638 197.499C100.357 196.539 100.07 195.602 101.203 193.418C101.294 193.252 101.377 193.108 101.226 192.821C100.342 192.957 99.3531 192.995 98.5904 193.509C97.2538 194.401 95.8115 194.355 94.4146 194.083C93.4329 193.887 92.7307 194.128 91.9756 194.62C90.118 195.829 88.6908 197.529 86.9691 198.897C86.4632 199.297 86.063 199.894 86.0479 200.907ZM106.587 198.61C105.568 202.244 104.412 205.509 104.163 208.985C104.088 209.99 104.11 210.995 103.854 211.977C103.642 212.778 103.71 213.602 103.854 214.418C103.967 215.045 104.51 215.144 104.994 215.227C105.492 215.31 105.575 214.879 105.696 214.516C106.217 212.967 106.723 211.418 107.274 209.877C107.742 208.554 108.044 207.232 107.659 205.819C107.508 205.275 107.523 204.693 107.705 204.141C108.165 202.781 109.434 202.388 110.529 203.302C110.853 203.574 111.148 203.945 111.344 204.322C111.639 204.897 112.115 205.297 112.507 205.773C113.723 207.232 115.52 207.194 117.091 207.746C118.133 208.116 119.054 207.889 119.945 207.292C121.81 206.06 123.237 204.39 124.634 202.683C125.231 201.95 125.065 201.345 124.551 200.605C123.245 201.239 122.233 202.169 121.251 203.128C120.662 203.695 120.104 204.292 119.356 204.662C117.906 205.38 116.766 205.259 115.913 203.869C114.946 202.297 113.459 201.186 112.56 199.584C112.318 199.154 111.941 198.791 111.593 198.428C111.254 198.065 110.876 197.937 110.468 198.375C109.358 199.577 108.105 199.713 106.595 198.61H106.587ZM112.198 182.03C112.198 182.03 112.198 182 112.198 181.977C111.82 181.977 111.427 181.909 111.072 181.992C110.03 182.242 109.041 182.589 108.354 183.519C107.727 184.373 107.924 185.091 108.445 185.914C108.649 186.239 108.528 186.768 108.565 187.199C108.618 187.758 108.618 188.34 108.762 188.877C108.973 189.678 109.804 190.169 110.521 189.806C112.575 188.756 114.403 187.418 114.969 184.992C115.52 182.627 115.067 182.098 112.575 182.023C112.447 182.023 112.326 182.023 112.198 182.023V182.03ZM67.3134 173.423C66.1506 173.914 65.2218 174.851 63.9305 175.033C62.5033 175.229 62.1862 175.63 62.1635 177.028C62.1409 178.652 62.745 179.537 63.9758 179.688C65.8938 179.929 68.2347 177.912 68.4008 175.977C68.499 174.904 67.9402 174.209 67.3134 173.423ZM51.675 173.854C52.0752 174.088 52.3168 173.99 52.5509 173.914C54.7558 173.196 56.9985 172.652 59.2865 172.275C60.6156 172.055 61.8162 171.307 63.2056 171.194C63.5303 171.171 63.9154 170.952 63.8852 170.469C60.1927 170.242 56.7192 171.338 53.2381 172.305C52.5434 172.501 51.9091 172.985 51.6825 173.854H51.675ZM54.1669 176.884C55.2316 177.511 56.1075 178.123 57.0665 178.569C57.9726 178.985 58.4786 180.171 59.8831 180.043C59.4074 178.441 59.43 176.899 59.347 175.373C57.3761 175.456 55.9716 175.864 54.1744 176.884H54.1669ZM27.0808 209.363C26.7033 209.144 26.5598 208.985 26.4088 208.977C25.6612 208.955 24.9212 208.977 24.1736 208.985C21.8403 209.015 21.1984 209.786 21.4929 212.212C21.795 212.128 21.7874 211.849 21.863 211.63C22.5199 209.748 22.8371 209.544 24.8608 209.605C25.5253 209.62 26.2124 209.801 27.0733 209.37L27.0808 209.363ZM43.7538 164.136C42.4474 164.484 41.496 164.635 40.5521 164.023C40.0537 163.705 39.3364 163.804 39.0494 164.355C38.8002 164.839 39.3515 165.232 39.6762 165.587C39.9253 165.859 40.2274 165.798 40.4992 165.564C40.9448 165.179 41.496 164.846 42.0397 165.194C43.0138 165.814 43.1875 165.05 43.7538 164.144V164.136ZM41.4129 173.748C41.8358 172.683 41.6017 171.647 41.5111 170.612C41.4884 170.378 41.4658 170.091 41.1411 170.06C40.756 170.03 40.5596 170.295 40.4992 170.612C40.2803 171.783 40.6654 172.804 41.4129 173.748ZM62.3297 183.186C62.2466 184.471 61.9597 185.748 62.4354 186.98C62.5638 187.32 62.8431 187.668 63.2736 187.547C63.6587 187.433 63.4699 187.04 63.5076 186.761C63.7191 185.363 62.3523 184.516 62.3297 183.194V183.186ZM83.707 202.72C83.6542 202.048 83.0652 202.071 82.6197 201.942C81.8645 201.723 81.3133 202.214 81.1925 202.788C81.0717 203.34 81.8041 203.469 82.2497 203.597C82.816 203.763 83.6466 203.227 83.707 202.72ZM51.6221 227.521C51.3956 226.622 51.2295 225.965 51.0633 225.322C50.9425 224.869 50.7462 224.431 50.1798 224.68C49.7117 224.884 49.6135 225.375 49.7872 225.806C50.0817 226.509 50.5951 227.045 51.6221 227.529V227.521ZM40.8164 178.32C40.6855 179.071 41.0077 179.771 41.7829 180.421C41.6319 179.567 41.4356 178.902 40.8164 178.32ZM105.892 192.972C105.93 192.67 105.726 192.632 105.56 192.655C105.001 192.723 104.926 193.169 104.881 193.607C104.858 193.811 104.994 193.985 105.205 193.947C105.749 193.849 105.696 193.297 105.892 192.972ZM53.9554 229.373C53.4646 228.7 53.0946 228.451 52.4301 228.579C52.8177 228.937 53.3262 229.202 53.9554 229.373Z" fill="black"/>
</svg>
