<svg width="1125" height="571" viewBox="0 0 1125 571" fill="none" xmlns="http://www.w3.org/2000/svg">
<g clip-path="url(#clip0_149_417)">
<path d="M985.617 0.5C984.849 2.5859 982.873 3.46418 981.337 2.69569C977.606 0.939137 973.435 1.81741 969.704 0.5H985.617Z" fill="black"/>
<path d="M918.434 107.142C918.214 102.86 919.202 99.4569 921.397 96.383C923.043 94.1873 925.348 93.4188 928.091 93.9677C930.835 94.5167 932.92 96.4928 932.92 99.1276C932.92 104.287 935.554 103.409 938.737 102.641C953.882 98.7982 968.917 94.5166 982.964 87.2709C984.61 86.5024 986.366 85.8437 988.012 85.2948C991.195 84.3067 994.377 83.8676 992.731 78.7077C991.743 75.524 994.487 72.7794 997.45 71.0228C1000.08 69.4858 1002.5 69.8152 1005.35 71.0228C1012.38 73.6576 1015.89 79.2566 1019.73 85.185C1023.68 91.0035 1029.72 95.5047 1036.3 98.0298C1048.37 102.641 1058.36 109.886 1067.25 119.218C1072.08 124.268 1078.44 127.891 1083.71 132.612C1090.18 138.43 1094.03 146.225 1098.74 153.361C1102.81 159.509 1106.65 165.657 1109.17 172.573C1111.8 180.039 1116.96 185.638 1121.79 191.566C1125.96 196.726 1124.32 202.435 1123.44 207.924C1123.11 210.12 1120.91 211.217 1118.5 210.888C1116.19 210.559 1114.66 209.022 1114.44 206.716C1114.33 205.399 1114.66 203.972 1114.88 202.654C1115.32 200.239 1115.86 198.043 1112.57 197.055C1111.04 196.616 1109.94 194.969 1109.28 193.432C1106.54 185.638 1102.04 178.831 1097.76 171.915C1094.79 167.084 1090.4 163.351 1086.89 158.96C1082.83 153.8 1077.56 149.738 1074.27 143.7C1070.21 136.344 1064.61 130.087 1058.47 124.158C1051.33 117.352 1043.54 111.753 1034.21 108.459C1030.37 107.142 1026.97 104.946 1023.57 102.641C1021.26 101.104 1019.73 100.555 1018.52 103.739C1018.19 104.727 1017.31 105.934 1016.44 106.154C1011.5 107.581 1010.73 112.192 1008.86 115.925C1008.42 116.913 1008.21 118.12 1007.55 118.999C997.999 130.197 1005.13 139.967 1013.47 145.896C1020.61 150.946 1023.68 157.752 1025.33 165.657C1025.65 167.194 1025.98 168.511 1027.41 169.499C1036.08 175.757 1045.08 180.807 1056.27 181.246C1061.87 181.466 1066.04 185.089 1069.66 188.931C1070.65 189.919 1071.31 191.237 1072.63 191.786C1078.55 194.091 1082.06 198.922 1085.03 204.191C1087 207.814 1089.64 209.022 1093.48 208.583C1098.53 208.034 1101.93 210.668 1104.67 214.511C1106.65 217.146 1106.87 220 1104.45 222.525C1101.93 225.05 1098.53 225.27 1096.22 222.854C1093.48 220 1090.29 219.122 1086.56 218.683C1082.83 218.244 1080.2 216.048 1078.44 212.754C1075.59 207.265 1070.65 203.972 1066.48 199.8C1060 193.213 1052.65 190.688 1043.98 189.151C1035.64 187.614 1028.73 182.234 1021.37 177.843C1015.78 174.44 1015.23 169.39 1014.02 164.12C1013.14 160.277 1011.17 157.423 1007.88 155.118C1001.4 150.507 996.353 144.359 993.609 137.003C991.305 130.855 991.963 124.268 995.036 118.45C997.121 114.607 998.987 110.765 1000.63 106.812C1002.5 102.311 1000.52 95.3949 997.011 92.1014C995.365 90.6742 993.938 90.3448 992.073 91.1133C987.354 93.0895 982.305 94.4069 977.916 97.2613C972.319 100.884 965.953 102.531 959.808 104.397C953.113 106.483 946.419 108.898 939.505 110.326C934.457 111.423 929.409 113.4 924.031 112.741C922.604 112.521 921.617 112.741 920.739 114.388C919.092 117.901 916.129 118.34 913.057 116.583C908.338 113.839 902.96 112.741 897.802 111.204C893.522 109.886 889.352 108.459 885.73 105.824C877.389 99.7863 868.061 95.7243 858.404 92.7601C852.258 90.8938 846.99 87.8198 841.283 85.0752C835.138 82.111 829.102 79.1469 822.188 78.1588C817.798 77.5001 813.847 75.4142 810.665 72.6696C804.08 66.9608 796.069 64.1064 788.716 59.8248C778.4 53.8965 767.755 48.2975 759.853 38.9658C759.633 38.6365 759.194 38.5267 758.536 38.0875C755.902 43.467 756.67 48.8464 757.768 54.2258C758.755 59.0563 760.841 63.4477 763.255 67.7293C766.986 74.3163 768.084 81.3425 767.535 88.6981C767.206 93.4188 767.755 98.1395 766.877 102.86C765.999 107.471 764.462 111.753 762.158 115.705C760.841 118.12 760.182 120.536 759.743 123.17C757.987 133.38 749.976 141.943 739.989 144.249C730.551 146.445 722.43 150.946 715.077 157.094C712.443 159.289 711.126 162.363 708.822 164.888C703.773 170.378 696.64 172.683 691.153 177.404C690.494 177.953 689.836 178.392 689.177 178.941C684.458 183.332 684.787 183.113 687.97 188.821C690.714 193.652 695.433 196.726 698.396 200.898C701.908 206.057 706.078 210.668 709.261 216.158C710.248 217.914 710.907 219.122 713.321 218.134C715.406 217.255 717.491 218.134 718.918 220C720.345 221.866 720.455 223.952 719.467 225.928C717.711 229.222 715.406 232.076 711.236 231.967C707.175 231.967 705.09 229.222 703.993 225.599C701.03 216.597 694.555 210.01 687.86 203.752C682.154 198.482 678.861 191.786 675.788 184.979C670.301 172.793 663.277 161.814 654.059 152.153C652.961 150.946 651.645 150.397 649.998 150.287C647.255 149.958 644.621 148.421 644.621 145.786C644.621 140.736 641.438 137.772 638.365 135.137C631.451 129.318 627.501 122.182 625.854 113.29C624.318 105.495 618.063 100.225 612.905 94.6264C604.235 85.0752 595.455 75.524 584.59 68.1684C584.151 67.8391 583.713 67.5097 583.383 67.0706C576.908 57.2998 566.922 52.0301 557.045 46.5409C553.094 44.3452 548.704 42.918 544.314 41.2713C537.071 38.6365 530.706 34.2451 523.682 31.2809C522.585 30.8418 521.378 29.7439 520.28 30.732C519.402 31.6103 519.402 33.0375 519.731 34.3549C522.146 43.3572 519.512 51.591 516.439 59.8248C516 61.0324 515.451 62.2401 515.671 63.4477C516.549 69.2663 514.464 74.7555 513.915 80.3545C513.476 84.7458 511.171 87.8198 507.55 90.1253C504.038 92.4307 500.855 94.9558 498.331 98.4689C495.039 103.08 489.771 104.617 484.832 106.154C475.065 109.228 465.188 112.411 455.311 114.937C440.605 118.669 440.057 126.025 441.154 138.76C441.593 143.48 443.678 148.311 443.349 153.032C442.91 162.034 443.788 170.707 446.971 179.051C447.41 180.148 446.971 181.576 446.751 182.783C444.885 189.919 445.873 196.836 448.397 203.642C451.031 210.668 446.532 221.318 439.727 224.501C434.679 226.917 428.314 223.843 425.9 217.914C424.912 215.499 424.144 212.974 423.266 210.449C421.839 206.167 418.986 202.874 416.023 199.47C407.682 189.7 400.549 179.16 397.476 166.425C395.939 159.948 391.879 154.678 389.684 148.531C388.147 144.139 386.172 139.748 384.526 135.356C383.209 131.734 380.904 129.757 376.953 129.318C370.588 128.55 364.662 126.574 361.589 120.206C360.711 118.34 359.285 118.999 357.968 119.438C354.127 120.755 350.285 120.426 346.444 119.767C337.994 118.23 329.873 118.999 321.971 122.402C316.265 124.817 310.777 123.28 305.729 120.096C302.547 118.01 301.12 114.827 301.998 110.984C303.754 103.19 305.29 95.2851 307.156 87.3807C310.558 72.8891 314.618 58.1781 312.972 42.918C312.643 39.4049 313.521 36.0016 314.07 32.5983C314.289 31.1711 314.399 29.6341 313.411 28.6461C312.094 27.4385 310.777 28.8657 309.68 29.5244C299.913 35.5625 291.133 43.0278 283.231 51.0421C273.245 61.252 261.173 68.8271 250.637 78.2686C244.162 84.0871 237.029 89.3568 230.993 95.7243C227.262 99.6765 223.091 103.19 218.811 106.483C206.63 115.925 194.667 125.695 181.608 134.039C176.889 137.003 172.828 140.955 169.207 145.127C150.879 166.535 130.357 185.747 110.054 205.179C104.348 210.668 98.5311 216.158 94.0315 222.745C91.1782 226.807 87.1176 227.685 83.935 225.27C80.7524 222.964 80.6427 219.122 83.496 214.84C87.2274 209.241 92.2756 204.74 96.9946 200.129C100.836 196.396 100.287 196.836 96.7752 192.993C91.1782 186.845 84.4837 185.198 76.6919 185.089C73.0703 185.089 69.4487 184.65 65.9369 183.881C60.4496 182.673 56.8281 185.089 53.0968 188.821C47.7193 194.311 44.0977 201.227 38.6105 206.606C32.2453 212.864 29.0627 221.647 22.3682 227.685C20.9416 229.002 19.6246 230.32 17.8687 231.418C15.6738 232.735 13.8081 234.272 12.7107 236.687C10.7353 240.64 7.11372 241.957 3.71163 240.31C0.419286 238.773 -0.897651 234.821 0.638776 230.979C1.73622 228.234 3.60188 226.258 6.01627 224.831C13.8081 220.329 18.6369 213.084 24.2339 206.277C32.9037 195.518 40.3664 183.552 51.6701 175.098C54.1942 173.232 56.7183 172.244 59.7912 172.573C70.4364 174 81.0817 175.428 91.6172 176.855C94.0315 177.184 95.8972 178.282 97.2141 180.148C99.7383 183.552 103.689 185.418 106.652 188.272C108.189 189.7 109.176 188.492 110.164 187.614C121.468 176.965 133.54 166.974 143.746 155.118C150.44 147.323 157.793 140.077 164.927 132.612C172.938 124.378 183.254 119.108 192.143 111.972C203.337 103.08 214.751 94.4069 225.176 84.5263C234.724 75.4142 244.492 66.4119 255.466 59.0563C264.136 53.2378 270.83 45.4431 278.622 38.6365C288.389 29.9635 297.718 20.7416 309.351 14.3741C317.472 9.87297 329.434 8.33599 336.458 16.8992C341.286 22.8275 348.2 25.5721 355.553 27.2189C361.589 28.5363 366.637 31.72 371.576 35.1234C378.929 40.1734 386.282 45.2235 394.403 48.7366C400.439 51.3714 407.023 52.7986 412.95 55.8726C418.876 59.0563 424.912 61.8009 430.18 65.9727C434.569 69.376 436.764 69.1565 440.715 65.2043C451.799 54.116 465.298 46.7605 478.687 38.9658C482.857 36.5506 487.027 33.9157 490.868 30.8418C495.917 26.8895 501.953 24.4743 506.342 19.6438C508.098 17.7774 510.403 17.3383 512.927 17.6677C520.061 18.7655 527.194 19.9731 533.449 24.0351C541.351 28.9754 550.57 31.5005 558.691 35.7821C569.007 41.1615 580.091 46.1018 587.334 56.0922C589.419 58.9465 591.943 61.252 594.797 63.3379C608.954 73.987 620.477 87.0513 631.561 100.555C634.854 104.617 636.5 109.228 637.487 114.168C638.256 118.559 640.121 122.292 643.633 125.256C645.06 126.464 646.487 128.001 647.694 129.428C652.413 134.807 653.071 135.027 657.68 129.428C664.814 120.755 673.923 114.388 681.605 106.264C687.641 99.8961 693.896 93.7482 699.274 86.8317C704.98 79.586 711.016 72.6696 717.162 65.9727C720.784 62.0205 722.54 57.6291 722.979 52.4693C723.527 44.3452 727.917 38.4169 734.392 33.9157C737.245 31.9396 739.989 29.9635 742.513 27.5482C748.11 22.2786 755.244 22.7177 761.499 26.8895C765.34 29.4146 767.755 33.1472 771.157 35.8918C777.632 41.0517 784.436 45.8822 791.789 49.8344C800.019 54.2258 808.799 57.4096 816.042 63.5575C818.786 65.863 822.078 67.3999 825.809 67.8391C835.247 68.9369 843.588 73.5479 851.709 77.8294C856.977 80.5741 862.464 82.3306 867.951 84.3067C875.414 86.9415 882.218 90.784 888.364 95.5047C895.058 100.774 902.96 102.86 910.642 105.276C912.837 105.934 915.251 106.264 917.995 107.581L918.434 107.142ZM327.788 25.4623C325.812 34.2451 324.166 42.5887 324.934 51.1519C325.154 54.2258 324.605 57.19 324.166 60.264C321.862 75.8533 317.691 90.8938 314.179 106.154C312.753 112.082 313.96 112.96 319.667 110.984C329.434 107.471 339.311 106.264 349.517 108.789C351.712 109.338 353.907 109.338 355.882 108.02C358.297 106.373 360.821 105.056 363.345 103.519C365.979 101.982 368.613 101.433 371.027 103.739C373.332 105.934 373.112 108.679 371.795 111.423C370.04 115.156 370.808 116.913 374.649 118.12C376.076 118.559 377.612 118.889 379.148 118.999C386.721 119.328 391.001 123.939 393.635 130.416C395.391 134.807 397.037 139.199 398.573 143.7C400.878 150.507 404.829 156.655 406.694 163.791C410.096 177.514 418.108 188.492 428.424 198.153C429.411 196.177 428.753 194.53 428.094 193.103C425.241 186.955 422.827 180.588 420.851 174.11C417.888 164.888 414.157 155.776 411.962 146.445C409.767 137.003 409.218 127.232 408.011 117.571C407.682 115.156 408.011 112.741 408.999 110.545C412.181 103.519 414.376 95.8341 419.095 89.5764C421.62 86.173 422.607 82.4404 423.046 78.3784C423.266 75.9631 422.607 74.3163 420.522 73.2185C416.681 71.2424 412.95 69.0467 409.109 67.0706C403.073 63.9966 396.269 62.5694 390.123 59.8248C381.892 56.2019 373.99 51.8106 366.747 46.2116C362.906 43.2474 358.736 40.1734 354.127 39.0756C344.14 36.7701 335.25 32.7081 327.788 25.4623ZM757.329 84.4165C758.207 80.6838 755.902 76.4022 753.488 72.0109C748.549 62.8988 744.928 53.3475 745.476 42.6985C745.586 40.1734 744.379 40.7224 742.952 41.2713C736.697 43.9061 733.404 48.6268 732.526 55.2139C731.868 60.4835 730.551 65.4238 726.6 69.5956C721.552 74.9751 716.504 80.4643 712.114 86.2828C702.786 98.5787 692.689 110.216 681.495 120.755C674.801 127.013 668.655 133.71 662.619 140.626C661.522 141.943 659.656 143.041 661.741 145.127C669.094 152.263 674.581 160.826 679.41 169.719C680.946 172.573 682.263 171.915 684.019 170.268C687.202 167.084 690.933 164.669 694.884 162.583C698.067 160.936 700.591 158.521 702.676 155.776C710.468 145.017 721.442 139.309 733.734 135.356C737.355 134.259 741.306 134.478 744.379 131.294C748.22 127.452 750.854 123.5 751.293 118.01C751.293 116.474 751.622 114.827 752.39 113.619C758.316 105.056 757.109 95.3949 757.109 84.4165H757.329ZM435.557 181.905C436.764 179.38 435.667 177.294 434.899 175.098C433.253 170.378 431.497 165.547 432.594 160.497C433.582 155.666 433.253 150.726 431.606 146.554C428.314 138.101 431.167 129.757 430.728 121.414C430.728 120.536 431.167 119.438 431.826 118.779C435.886 114.717 439.508 109.777 444.776 107.801C455.86 103.848 467.273 100.665 478.687 97.4808C484.394 95.9438 489.881 94.4069 493.502 89.1372C494.6 87.6002 496.026 85.9535 497.673 85.0752C503.27 82.111 505.135 77.2805 505.465 71.3522C505.465 69.8152 505.794 68.388 505.465 66.851C504.696 62.8988 505.465 58.9465 507.111 55.4334C510.293 48.1877 511.83 41.0517 508.428 33.257C505.465 35.0136 502.392 36.4408 499.429 38.3071C493.722 42.0398 488.235 46.1018 482.308 49.5051C474.736 53.7867 467.383 58.6172 460.03 63.3379C451.47 68.8271 445.544 77.6099 436.435 82.4404C435.447 82.9893 435.228 83.9774 435.118 84.9654C434.35 89.6861 431.497 93.309 429.082 97.2613C423.705 106.044 417.888 114.827 420.742 126.244C422.498 133.051 421.51 140.516 423.924 147.213C426.229 153.581 428.533 159.948 430.07 166.645C431.387 171.915 433.582 176.965 435.447 182.124L435.557 181.905Z" fill="black"/>
<path d="M497.254 433.16C510.094 441.723 522.714 449.518 532.591 460.606C538.518 467.303 541.042 474.988 538.408 483.771C538.079 485.088 537.64 486.515 536.871 487.613C530.616 496.067 523.263 503.203 514.154 508.802C506.253 513.632 497.802 517.035 489.571 521.097C485.511 523.073 481.121 524.501 476.951 526.367C469.269 529.661 461.696 532.844 454.782 537.455C448.088 541.847 444.576 547.885 445.235 556.119C445.564 560.51 443.479 563.255 439.857 563.584C436.126 563.913 432.504 561.059 432.833 556.997C433.272 550.629 433.711 544.042 437.443 538.553C442.93 530.429 449.954 524.281 459.392 520.878C464.111 519.121 468.5 516.267 473.219 514.181C479.914 511.217 486.718 508.253 493.412 505.288C503.838 500.677 513.276 494.969 521.507 486.954C528.97 479.818 529.189 473.561 521.727 466.315C513.825 458.63 504.716 452.372 495.168 446.993C491.657 445.017 487.706 444.687 483.865 445.127C476.951 445.895 474.097 443.37 474.646 436.673C474.756 434.917 474.317 434.368 472.89 434.148C471.244 433.819 469.598 433.489 467.952 433.16C464.55 432.392 462.464 430.306 462.464 426.793C462.464 423.06 464.44 420.425 467.952 419.327C471.354 418.339 474.427 418.998 475.853 422.621C476.402 424.048 477.39 424.817 478.597 424.158C486.169 419.986 494.4 422.731 502.192 421.413C506.911 420.645 511.411 419.327 516.13 420.864C518.654 421.633 520.958 422.84 523.483 423.719C534.128 427.342 544.773 430.745 555.308 434.587C560.027 436.344 563.978 439.637 567.161 443.59C568.807 445.566 570.563 447.432 572.868 448.31C582.196 451.933 587.573 458.411 588.561 468.511C588.561 469.499 588.561 470.597 589.11 471.365C595.695 481.575 589.549 490.577 586.695 499.909C584.171 508.143 577.806 513.083 571.331 518.023C562.003 525.159 553.553 533.503 543.785 540.31C536.213 545.469 528.202 548.873 519.532 551.178C509.764 553.703 501.643 558.424 494.839 565.889C493.522 567.317 491.986 568.524 490.34 569.512C486.828 571.598 482.657 570.72 480.572 567.756C478.377 564.682 479.146 561.059 482.438 558.204C486.828 554.362 491.108 550.41 495.717 546.787C501.534 542.286 508.777 540.529 515.8 538.773C528.75 535.589 539.286 528.343 549.163 519.89C555.747 514.291 561.893 508.253 569.136 503.422C571.112 502.105 572.758 500.348 573.636 498.043C575.611 493.322 578.794 488.601 579.123 483.771C579.562 476.305 577.696 468.84 573.636 462.253C572.758 460.716 570.783 460.057 569.136 459.399C564.747 457.642 561.235 454.788 558.272 451.165C555.638 447.981 552.345 446.115 548.504 444.468C537.53 440.186 526.007 437.552 515.361 432.392C512.947 431.184 510.423 430.855 507.679 431.404C504.497 432.172 501.204 432.501 497.363 433.05L497.254 433.16Z" fill="black"/>
<path d="M754.276 283.853C746.813 281.987 745.826 275.29 743.192 269.691C742.094 267.276 742.643 263.433 738.692 262.884C734.632 262.226 733.424 265.849 731.339 268.154C731.01 268.483 730.791 268.813 730.571 269.142C725.084 276.827 721.462 276.717 717.292 268.374C715.756 265.3 713.012 264.97 710.159 265.41C707.744 265.739 705.439 266.947 703.025 267.605C701.598 268.044 701.708 268.813 701.818 270.13C702.476 275.729 699.623 278.584 693.916 277.705C690.624 277.156 690.843 278.254 691.612 280.67C693.148 285.39 691.612 288.794 687.88 289.782C683.82 290.879 680.088 288.135 679.101 283.634C677.784 277.815 677.784 277.705 671.967 280.011C666.151 282.316 660.334 284.732 655.725 289.123C653.859 290.989 651.445 293.075 652.652 295.93C653.859 298.894 657.152 298.015 659.676 298.125C662.639 298.125 665.053 296.808 667.358 295.161C668.236 294.502 669.224 293.953 670.211 293.295C674.711 290.66 678.772 291.099 680.857 294.612C682.832 298.015 681.405 301.529 677.455 304.493C669.224 310.531 660.444 312.397 650.677 309.104C643.543 306.688 639.593 299.662 641.129 292.197C642.665 285.061 647.165 280.011 652.982 276.168C659.786 271.557 667.029 267.715 675.15 265.849C678.442 265.08 680.308 263.653 680.527 260.14C680.637 258.054 681.186 255.968 681.735 253.992C682.832 249.93 685.795 247.844 689.417 248.503C692.929 249.161 694.794 252.016 694.575 256.407C694.575 257.066 694.465 257.725 694.355 258.274C704.013 254.87 713.561 252.455 722.999 258.274C724.864 259.481 725.413 258.164 726.401 257.176C730.352 253.223 734.741 250.918 740.558 252.016C746.594 253.223 750.654 256.297 752.081 262.555C752.63 264.97 753.178 267.386 754.715 269.581C756.361 262.555 758.007 261.238 766.458 261.677C770.738 261.896 775.018 262.775 779.078 264.202C782.81 265.519 785.224 268.593 786.651 272.106C787.858 275.071 787.199 278.035 784.346 279.791C781.383 281.548 778.749 280.779 776.444 278.254C775.676 277.376 775.127 276.498 774.359 275.619C773.81 274.961 773.042 274.412 772.384 275.619C769.311 281.328 763.165 281.767 757.349 284.073C763.275 285.28 768.652 286.488 773.92 287.586C777.103 288.245 780.505 289.123 780.724 293.185C780.944 297.357 777.871 298.784 774.469 299.992C771.945 300.87 769.311 301.858 765.58 303.175C769.64 304.603 772.823 305.7 774.249 308.665C777.103 314.373 775.896 320.302 775.127 326.23C774.688 329.853 772.603 332.707 769.75 334.903C767.445 336.66 764.811 336.769 762.287 335.342C760.202 334.134 758.995 332.268 759.105 329.853C759.324 326.999 760.97 325.242 763.824 324.803C766.019 324.473 766.348 323.046 766.348 321.18C766.567 314.373 765.689 313.275 757.239 310.092C756.581 309.872 755.922 309.653 755.264 309.543C752.3 308.884 749.337 308.225 748.459 304.822C747.581 301.309 749.008 298.564 751.752 296.369C752.081 296.149 752.3 295.71 752.739 295.161C748.24 293.953 743.96 293.734 739.57 294.393C737.814 294.722 737.266 295.161 737.814 297.137C739.021 301.748 735.729 305.261 734.412 309.104C733.534 311.409 730.571 311.738 728.157 311.19C722.779 310.092 717.402 310.421 712.024 310.092C704.342 309.653 698.745 313.715 693.368 318.216C689.856 321.18 690.843 325.352 695.014 327.438C698.965 329.414 703.354 330.731 706.647 333.915C708.512 335.781 709.829 337.757 709.171 340.612C708.293 344.454 703.903 346.321 700.611 343.796C696.66 340.831 692.38 338.636 688.319 335.891C680.418 330.402 679.101 318.655 686.234 311.848C692.709 305.7 699.513 299.772 709.171 299.443C710.927 299.443 711.475 298.564 711.475 296.808C711.475 293.075 713.89 291.209 717.072 289.782C728.486 284.622 740.338 282.536 752.849 284.292C753.288 284.292 753.837 284.183 754.386 284.073L754.276 283.853Z" fill="black"/>
<path d="M104.806 244.77C107.879 241.367 109.854 238.622 111.501 235.548C113.586 231.816 116.659 229.4 120.609 227.863C125.658 225.887 129.938 228.303 130.596 233.792C130.925 236.646 130.925 239.61 131.145 243.563C134.108 239.391 138.169 237.854 141.79 235.768C144.424 234.231 147.387 233.572 150.131 235.329C153.094 237.305 152.765 240.269 151.996 243.233C151.557 245.209 151.228 247.295 150.789 250.04C156.276 247.844 161.325 245.868 166.922 245.429C173.506 244.88 179.762 246.197 185.798 247.954C190.846 249.381 192.053 253.992 192.492 258.493C192.712 260.799 192.821 262.994 194.138 265.19C195.894 268.154 194.468 271.338 191.614 272.326C188.98 273.204 185.908 271.667 185.139 268.703C184.481 266.288 184.591 263.763 184.92 261.238C185.578 256.517 184.591 255.529 179.872 254.431C170.434 252.345 161.654 253.553 153.313 258.603C152.106 259.372 150.789 259.92 149.582 260.36C144.753 262.116 141.132 259.262 141.571 254.212C141.79 251.357 142.888 248.613 142.668 245.429C139.376 246.527 137.73 249.271 135.644 251.357C132.791 254.212 130.377 258.274 125.219 256.627C122.365 255.749 120.829 250.04 121.707 244.551C122.146 242.245 122.585 239.94 122.146 237.524C120.17 237.195 119.622 238.732 118.963 239.83C114.135 247.844 107.55 254.541 102.611 262.445C101.404 264.312 99.6482 265.629 97.3436 265.19C94.9292 264.751 93.9415 265.739 93.6123 267.825C93.0635 271.448 91.9661 274.851 90.5394 278.145C89.8809 279.791 89.7712 281.548 90.3199 283.414C91.0881 286.269 90.3199 288.794 87.686 290.221C84.7229 291.758 81.7598 291.429 79.7844 288.794C78.248 286.818 77.0408 287.257 74.9557 287.476C68.1515 288.135 61.4571 287.037 56.4088 281.877C52.458 277.925 47.8487 275.18 43.0199 272.875C38.7399 270.789 36.4353 271.887 35.4476 276.498C34.4599 281.219 33.4722 285.83 35.5573 290.77C37.3132 294.612 39.5081 297.028 43.7882 297.247C45.7636 297.247 47.6292 297.467 49.6046 297.467C52.458 297.467 54.6529 298.455 55.2016 301.419C55.7503 304.493 53.8847 307.018 51.2508 307.347C46.5318 307.786 43.5687 310.751 40.9348 313.825C35.2281 320.192 30.7285 327.218 28.3142 335.562C26.4485 342.039 29.0824 346.211 33.4722 350.053C36.106 352.359 38.7399 354.335 42.8005 352.139C45.6538 350.712 48.8364 351.481 51.2508 354.006C52.897 355.762 53.5554 357.848 52.5677 360.153C51.6898 362.239 50.0436 363.337 47.739 363.557C38.8496 364.545 31.6065 361.251 25.79 354.774C17.5592 345.552 16.791 337.099 22.3879 325.901C25.6803 319.424 29.5213 313.385 34.2404 307.786C35.3378 306.469 35.3378 306.14 34.0209 305.042C25.4608 298.565 22.3879 289.782 24.1439 279.352C24.6926 276.059 24.9121 272.655 26.3387 269.581C30.1798 261.677 38.1912 258.932 46.861 262.555C52.6775 264.971 58.3842 267.496 63.1032 271.777C64.8591 273.314 66.8345 274.192 69.1392 274.412C70.8951 274.632 73.09 274.412 74.4069 275.51C78.5772 278.584 79.6747 276.608 80.9916 272.655C83.6255 264.422 86.6983 256.407 89.6614 248.393C90.5394 245.868 91.7466 243.563 92.844 241.147C94.2707 237.964 96.4656 235.768 100.307 236.427C104.148 237.085 104.916 239.94 104.806 244.441V244.77Z" fill="black"/>
<path d="M935.793 343.137C935.683 349.943 931.403 353.895 928.33 358.397C926.245 361.471 923.062 362.788 919.66 363.776C912.527 365.972 905.394 367.289 897.931 365.533C896.504 365.203 894.858 365.203 893.431 365.203C891.017 365.203 888.712 364.545 886.737 363.337C884.432 361.91 883.006 359.824 883.774 356.969C884.432 354.335 886.517 353.237 889.151 353.017C891.675 352.798 894.09 353.237 896.394 354.335C904.186 358.287 911.978 356.421 918.782 352.688C923.062 350.273 925.696 345.113 926.025 339.623C926.135 336.659 924.05 337.538 922.514 337.977C920.538 338.635 918.892 339.953 916.587 339.843C912.966 339.623 910.003 337.098 909.893 333.695C909.674 330.402 911.978 327.657 915.6 327.108C920.648 326.449 925.806 325.791 931.184 327.877C929.976 320.96 933.159 317.008 938.536 314.044C944.463 310.75 946.877 304.932 947.535 298.345C947.755 296.149 946.438 294.832 944.792 293.624C940.512 290.221 934.915 290.111 930.196 287.476C925.148 284.731 923.282 282.865 923.611 278.583C923.94 274.631 927.342 270.789 931.842 269.691C935.573 268.813 939.305 269.362 942.817 271.008C945.45 272.216 947.426 274.851 946.328 277.376C944.463 281.767 947.426 282.975 950.06 284.622C956.205 288.244 958.51 293.514 957.522 300.43C956.315 309.213 952.364 316.459 945.231 321.948C943.804 323.046 942.158 323.924 942.597 326.449C946.438 324.912 949.95 324.693 952.584 328.425C953.901 330.292 955.108 328.645 956.096 327.986C960.266 325.022 964.326 321.838 968.606 318.874C971.679 316.679 975.081 315.361 978.813 316.239C980.898 316.679 981.447 315.8 981.886 314.044C983.861 306.139 982.764 297.905 985.068 290.111C985.397 289.123 984.519 288.354 984.08 287.476C982.434 284.731 982.544 282.097 984.958 279.901C987.373 277.705 990.446 277.705 993.08 279.462C996.482 281.657 998.238 285.061 996.921 288.793C993.848 298.125 994.396 308.115 991.872 317.447C991.214 319.753 991.653 321.619 993.08 323.705C996.043 327.767 994.177 332.048 989.129 332.927C987.153 333.256 986.275 333.695 986.605 335.671C986.605 336.001 986.605 336.22 986.605 336.55C986.605 340.612 986.605 344.564 986.605 349.394C990.665 346.869 994.616 347.089 998.677 348.187C1003.62 349.504 1008.22 355.432 1008.11 360.483C1008.11 363.447 1006.69 365.642 1003.83 366.411C1000.98 367.179 998.677 366.081 997.14 363.556C993.409 357.628 993.189 357.518 986.824 360.702C985.836 361.141 984.849 361.8 983.861 362.239C981.447 363.447 979.032 363.447 976.728 361.91C974.313 360.263 973.874 357.738 974.533 355.213C976.837 346.979 975.74 338.635 976.069 330.292C976.069 329.414 976.508 328.096 975.63 327.547C974.423 326.889 973.545 327.986 972.777 328.645C966.412 333.476 960.046 338.196 953.901 343.137C947.535 348.296 942.707 348.626 935.573 342.917L935.793 343.137Z" fill="black"/>
<path d="M359.853 402.749C354.805 410.654 347.671 415.594 339.77 419.437C332.746 422.84 325.722 419.547 322.979 412.191C322.43 410.654 322.54 407.36 320.235 408.129C317.821 409.007 315.077 410.654 315.516 414.606C317.053 428.11 318.589 441.723 318.699 455.336C318.699 459.947 318.26 464.668 321.003 469.059C322.43 471.474 321.442 474.329 318.808 475.976C316.065 477.622 313.431 477.183 311.236 474.878C308.383 471.914 307.395 468.181 307.395 464.119C307.615 449.078 305.42 434.148 303.334 419.327C302.895 416.143 301.798 414.716 298.396 413.947C288.409 411.752 281.166 404.945 274.801 397.59C271.618 393.857 272.935 388.697 275.02 384.416C277.105 380.024 280.617 376.401 284.458 373.437C287.86 370.802 292.031 371.241 294.226 374.096C296.311 376.84 295.762 380.463 292.689 383.427C290.714 385.404 288.519 387.16 286.544 389.136C284.458 391.222 283.91 393.418 286.544 395.504C290.275 398.358 293.348 402.091 297.737 404.067C299.713 404.945 301.359 405.275 303.005 403.408C304.322 401.871 306.407 400.993 308.273 401.652C311.236 402.64 312.882 401.322 314.858 399.566C317.162 397.48 319.028 395.065 320.894 392.649C322.979 390.015 325.722 388.587 328.905 390.124C332.197 391.661 332.088 394.625 331.429 397.699C330.661 401.213 329.563 404.616 331.21 408.349C332.307 410.764 333.844 411.642 336.038 410.105C340.867 406.702 345.915 403.408 349.098 398.029C350.964 394.955 352.939 391.881 355.244 389.136C359.304 384.196 365.889 385.184 367.645 391.332C369.181 396.711 372.474 400.664 376.205 404.286C379.607 407.69 382.68 407.36 385.424 403.518C387.948 399.895 390.143 395.943 392.886 392.43C395.52 389.026 399.8 388.587 402.434 391.112C405.178 393.857 404.958 396.821 402.873 399.785C400.02 403.847 397.056 407.909 393.984 411.862C387.618 419.766 376.424 420.315 369.181 413.069C365.999 409.886 362.487 406.812 359.634 402.749H359.853Z" fill="black"/>
<path d="M131.913 426.243C132.462 432.172 132.133 437.99 133.01 443.919C134.108 451.933 133.888 459.947 132.133 467.961C131.035 473.121 130.157 478.281 129.938 483.66C129.718 489.259 126.316 492.553 122.146 491.894C118.085 491.236 115.781 486.844 117.646 481.465C119.512 475.976 120.17 470.377 121.707 464.887C123.682 457.751 123.572 450.615 123.024 443.37C121.707 428.659 122.694 413.947 124.231 399.236C124.45 397.26 124.231 396.711 122.255 396.272C112.708 394.076 106.562 387.489 102.831 378.926C101.184 375.084 98.1116 376.291 95.6973 375.303C93.0634 374.206 93.2829 376.84 92.6244 378.158C90.649 381.89 87.5762 384.086 83.5156 384.745C74.1873 386.172 65.1882 384.855 56.4086 381.781C53.4455 380.793 51.4701 378.487 51.0312 375.413C50.5922 372.229 52.5676 370.143 54.982 368.607C64.2005 362.898 74.4068 360.153 85.1618 360.812C92.5147 361.251 99.7578 362.788 107.001 363.996C112.378 364.874 113.805 366.74 114.244 372.339C114.464 375.962 121.378 383.647 125.548 384.855C135.096 387.489 144.534 386.831 153.972 384.086C158.91 382.659 162.203 383.537 163.41 387.16C164.617 390.783 162.422 394.625 157.923 396.053C152.874 397.699 147.497 397.809 142.229 397.59C138.388 397.48 136.522 397.59 135.205 402.53C132.901 410.544 133.23 418.449 132.242 426.353L131.913 426.243Z" fill="black"/>
<path d="M176.689 379.805C172.299 373.657 174.603 367.399 175.481 361.361C176.03 357.958 178.884 356.201 182.395 356.97C185.907 357.738 188.102 360.593 187.005 363.776C184.7 370.144 185.907 375.743 188.431 381.671C189.858 384.965 190.407 388.807 186.895 391.991C191.394 392.54 194.028 394.516 193.919 399.017C193.919 400.225 194.577 400.554 195.565 400.883C199.955 402.75 201.271 404.836 199.955 409.776C196.552 422.072 196.113 434.477 196.991 446.993C197.76 457.532 198.308 468.071 198.528 478.611C198.528 482.673 198.418 486.735 197.54 490.687C196.772 494.31 194.028 496.396 190.736 495.957C187.334 495.517 184.7 492.443 185.688 488.711C187.883 480.477 186.895 472.133 187.992 463.9C188.431 460.826 187.444 457.861 187.444 454.787C187.114 439.637 186.017 424.487 188.102 409.337C188.212 408.239 188.651 407.141 187.883 406.153C175.481 408.349 169.336 403.518 168.019 390.783C167.251 383.647 169.336 381.012 176.689 380.024V379.805Z" fill="black"/>
<path d="M603.816 416.034C603.706 417.79 604.364 419.767 604.803 421.853C605.572 426.134 603.047 429.977 599.097 430.525C595.036 431.074 590.976 427.671 591.195 423.28C591.524 412.082 591.744 400.774 592.293 389.576C592.622 382.66 598.658 379.037 604.474 376.512C611.937 373.218 620.168 372.779 627.96 370.803C630.264 370.254 632.569 369.595 634.873 369.156C639.153 368.388 642.556 370.364 643.434 373.877C644.312 377.39 642.117 380.683 637.727 381.562C631.142 382.879 624.557 383.757 617.973 384.855C615.997 385.185 614.132 385.404 612.156 385.843C605.572 387.27 604.145 389.576 605.572 396.163C605.901 397.92 607.108 398.359 608.425 398.798C611.937 400.005 615.558 399.566 619.18 399.017C627.082 397.81 634.873 395.394 642.995 395.285C646.945 395.285 650.786 395.285 653.75 398.468C654.737 399.566 656.054 399.347 657.261 399.676C660.773 400.884 662.419 404.287 661.102 407.69C659.895 410.655 654.408 414.168 650.896 414.058C646.726 414.058 644.531 411.533 643.982 407.69C643.653 405.495 642.117 405.934 640.8 406.044C634.544 406.373 628.508 408.129 622.363 409.118C618.192 409.776 614.132 410.325 609.961 409.886C604.255 409.447 603.925 409.666 604.145 415.924L603.816 416.034Z" fill="black"/>
<path d="M147.717 300.431C151.777 296.698 155.838 294.173 159.898 291.428C164.398 288.354 168.898 289.342 173.507 290.989C176.25 291.977 176.909 294.502 176.58 297.247C176.25 299.662 175.811 302.187 175.263 305.151C178.336 304.493 181.079 303.944 183.823 303.285C185.908 302.846 187.993 302.626 190.078 302.846C199.297 303.614 202.37 309.433 197.98 317.557C197.541 318.435 196.882 319.094 197.102 320.192C198.858 329.084 195.456 336.769 191.176 344.235C189.969 346.43 187.993 347.638 185.798 348.626C182.835 349.943 179.982 350.053 178.006 347.199C176.031 344.454 176.689 341.6 178.775 339.185C179.982 337.867 181.408 336.659 183.055 335.891C186.676 334.134 186.786 330.621 187.554 327.438C187.774 326.34 187.225 325.901 186.127 326.12C185.688 326.12 185.359 326.34 184.92 326.34C177.567 327.547 174.604 324.254 176.58 317.008C173.726 317.008 171.422 318.106 169.446 319.972C167.251 321.948 164.947 323.046 162.423 320.96C159.898 318.765 160.118 316.02 161.654 313.385C164.179 308.994 166.483 304.712 166.593 298.345C162.532 301.199 158.691 303.065 155.948 306.579C153.972 309.104 152.216 311.738 150.46 314.483C149.034 316.679 147.278 318.106 144.534 317.447C141.791 316.789 140.144 314.812 140.144 312.068C140.254 306.359 137.73 301.309 136.413 295.93C135.645 292.526 135.316 289.342 135.974 286.049C136.523 282.536 139.266 280.56 142.449 280.889C145.632 281.218 148.046 284.073 147.278 287.476C146.29 291.648 147.497 295.49 148.046 300.211L147.717 300.431Z" fill="black"/>
<path d="M658.688 470.377C655.506 471.475 652.981 472.792 650.457 473.78C637.617 478.611 625.765 469.828 622.692 456.764C620.277 446.554 624.228 438.21 628.618 429.757C629.935 427.341 631.252 424.926 632.349 422.291C634.215 417.79 637.398 415.814 641.348 416.363C644.202 416.802 646.287 418.229 647.165 421.084C647.933 423.828 647.165 426.353 644.86 428.22C639.263 432.831 635.532 438.869 632.898 445.456C630.593 450.835 632.13 456.215 635.203 460.935C638.166 465.327 643.763 465.985 649.47 462.911C653.42 460.826 657.371 458.74 660.554 455.446C662.749 453.141 665.492 452.043 668.455 453.69C671.528 455.446 671.638 458.301 670.76 461.374C669.992 464.229 669.553 467.083 668.675 469.938C667.687 473.231 668.894 475.317 671.528 476.964C674.272 478.72 676.796 480.587 680.308 478.391C684.149 475.976 687.551 473.451 688.978 468.73C689.965 465.327 692.928 464.009 696.331 464.997C699.513 465.985 700.72 468.73 700.391 471.914C699.952 475.317 698.525 478.391 696.001 480.697C683.82 491.675 674.162 492.443 663.297 482.343C660.005 479.269 658.139 475.427 658.688 470.157V470.377Z" fill="black"/>
<path d="M891.346 277.047C888.932 277.266 886.737 277.266 884.542 276.498C881.799 275.51 879.823 273.863 880.043 270.789C880.262 267.825 882.128 266.398 884.981 265.959C889.59 265.19 894.419 265.519 898.699 263.104C904.955 259.481 910.552 255.419 911.978 247.515C912.637 243.892 911.43 243.014 908.247 243.014C903.418 243.014 898.919 244.221 894.2 245.1C888.932 246.088 883.774 246.417 878.506 244.77C875.104 243.672 872.69 241.696 872.799 238.073C872.799 233.902 873.019 229.51 877.299 227.095C880.591 225.338 884.652 227.315 885.201 231.157C885.64 234.231 886.847 234.341 889.261 233.902C894.2 233.023 899.138 232.365 904.077 231.596C908.467 230.937 912.637 231.596 916.917 232.804C922.514 234.341 925.038 238.403 924.27 244.221C922.953 254.212 919.661 263.214 910.661 268.923C908.796 270.13 908.686 271.228 909.674 273.314C912.856 279.462 910.991 285.5 908.576 291.429C907.808 293.185 906.162 294.063 904.406 294.722C900.455 296.259 896.175 295.93 892.005 296.149C889.481 296.259 887.615 294.612 886.737 292.087C885.859 289.782 886.408 287.586 888.274 286.049C890.468 284.073 892.993 284.073 895.626 285.281C900.126 287.367 901.553 286.488 901.662 281.438C901.662 279.572 901.004 278.364 898.919 277.925C896.285 277.486 893.761 276.717 891.237 277.157L891.346 277.047Z" fill="black"/>
<path d="M476.182 270.02C471.792 266.836 471.134 262.445 470.585 258.053C470.256 254.979 471.353 252.564 474.097 251.137C476.731 249.82 479.474 250.149 481.45 252.235C483.206 254.101 484.523 253.443 486.498 252.674C494.29 249.49 502.301 248.612 510.532 250.588C513.495 251.247 516.019 252.784 517.885 255.199C519.312 257.065 520.848 258.822 522.823 260.249C525.457 262.335 526.116 265.08 524.25 268.044C522.384 271.008 519.421 271.228 516.458 269.8C513.605 268.483 511.19 266.507 509.983 263.543C508.666 260.578 506.362 259.81 503.508 260.03C497.363 260.578 491.436 262.006 486.717 266.507C484.522 268.593 481.998 270.459 477.938 270.679C481.889 271.996 485.291 272.435 487.925 274.631C491.985 277.924 493.083 281.767 490.558 286.378C489.022 289.232 488.144 291.867 488.803 295.051C489.242 297.137 488.583 299.223 488.034 301.199C487.266 303.834 485.291 305.37 482.547 305.7C480.133 306.029 478.048 305.48 476.731 303.285C475.304 300.979 475.962 298.893 477.499 296.807C479.364 294.172 477.938 290.879 478.706 287.915C480.242 281.547 479.694 281.108 472.999 281.657C469.158 281.986 465.207 281.218 461.366 282.645C459.83 283.194 458.842 283.633 458.733 285.719C458.513 290.22 455.55 292.526 451.27 292.087C446.551 291.647 443.697 288.464 444.027 284.072C444.356 278.144 448.636 273.533 455.221 272.325C458.623 271.667 462.025 271.008 465.537 270.679C468.829 270.459 472.121 271.447 476.072 270.24L476.182 270.02Z" fill="black"/>
<path d="M151.557 452.043C153.313 440.296 151.557 426.243 152.106 412.301C152.326 406.921 152.765 401.432 157.703 397.699C161.215 395.065 165.385 395.065 167.8 397.919C170.214 400.773 169.446 404.287 165.605 407.141C162.642 409.337 162.861 412.411 162.642 415.375C161.873 424.816 162.642 434.258 162.312 443.699C161.983 453.25 161.105 462.802 160.776 472.353C160.447 482.782 161.434 493.102 162.203 503.532C162.422 506.825 162.971 510.228 162.203 513.522C161.434 517.474 158.252 519.889 154.74 519.34C151.338 518.792 149.582 515.937 149.582 511.875C149.692 500.897 149.582 489.918 149.911 478.94C150.131 470.816 150.899 462.582 151.448 452.152L151.557 452.043Z" fill="black"/>
<path d="M416.371 305.48C416.371 305.48 416.042 305.48 415.932 305.48C412.859 305.371 409.128 306.578 407.482 302.736C405.836 298.784 408.579 296.588 411.652 294.721C412.64 294.063 413.957 293.075 413.518 291.757C413.079 290.44 411.433 290.55 410.225 290.55C407.153 290.44 404.08 290.55 401.007 290.55C399.361 290.55 399.47 291.648 399.141 292.745C398.044 296.807 395.629 298.454 391.459 297.905C389.045 297.576 386.85 296.917 384.874 295.38C380.814 292.306 378.948 287.476 380.375 283.743C381.692 280.23 386.301 277.595 391.349 278.913C399.69 280.998 408.25 280.45 416.481 282.206C423.066 283.633 424.822 285.719 423.395 292.416C422.846 295.161 423.505 296.039 426.248 296.588C431.626 297.466 436.893 298.674 442.161 299.881C448.856 301.309 450.502 304.383 449.514 310.97C448.417 318.215 444.795 323.924 439.857 328.974C437.113 331.829 434.699 335.122 432.065 338.086C431.187 339.184 430.199 340.172 429.211 341.05C426.029 343.685 422.736 343.685 420.761 341.05C418.676 338.416 419.334 334.354 422.736 332.378C427.236 329.743 430.967 326.339 434.479 322.497C437.552 319.203 440.515 315.91 440.844 311.079C440.954 309.542 440.844 308.554 439.198 308.335C431.626 307.456 424.273 305.041 416.481 305.48H416.371Z" fill="black"/>
<path d="M839.986 226.436C837.572 226.326 834.938 225.777 832.523 224.679C830.987 223.911 829.451 223.911 828.353 225.228C824.732 229.729 820.342 233.791 818.586 239.5C818.366 240.159 817.708 240.817 818.257 241.366C818.695 241.696 819.573 241.696 820.232 241.696C820.781 241.696 821.22 241.366 821.768 241.147C827.475 239.61 831.097 242.464 829.999 248.283C828.902 254.431 827.804 260.579 824.951 266.287C823.305 269.581 821.768 272.765 826.597 275.18C828.792 276.278 829.121 279.132 828.353 281.547C827.585 284.072 825.719 285.39 823.085 285.609C815.513 286.488 809.696 280.23 811.013 272.435C811.782 267.934 813.318 263.653 815.403 259.371C817.927 254.101 817.598 253.552 812.221 251.576C807.941 249.93 806.075 246.856 806.404 242.135C806.733 237.195 809.148 232.913 811.452 228.961C816.281 220.617 822.207 213.152 831.975 209.748C838.45 207.553 846.022 211.615 847.449 218.312C848.436 222.593 845.034 226.326 839.986 226.326V226.436Z" fill="black"/>
<path d="M993.519 462.253C995.055 463.241 996.262 464.01 997.579 464.778C1002.08 467.303 1002.85 466.864 1002.74 461.814C1002.63 455.556 1005.26 451.604 1009.54 451.714C1014.04 451.714 1017 455.995 1016.35 462.143C1016.13 464.559 1016.89 465.437 1018.98 465.766C1022.93 466.315 1026.33 466.205 1028.09 461.594C1029.3 458.411 1032.26 456.874 1035.88 457.093C1038.08 457.203 1039.83 458.411 1040.71 460.497C1041.7 462.583 1041.15 464.559 1039.72 466.315C1033.36 474.769 1025.02 477.623 1014.81 474.878C1013.49 474.549 1012.07 473.781 1010.86 474.878C1004.49 480.258 998.348 477.184 992.202 474.659C990.995 474.22 990.007 473.561 988.8 473.012C981.118 469.719 978.703 464.668 981.886 456.984C983.203 453.91 982.215 452.922 979.691 452.153C977.386 451.385 975.301 450.287 973.874 448.311C971.35 444.797 972.119 439.967 975.63 437.661C979.142 435.356 983.861 436.564 985.946 440.516C986.934 442.382 988.141 443.919 990.117 444.139C995.823 444.688 998.238 448.311 999.226 453.47C1000.1 458.081 996.592 460.058 993.299 462.473L993.519 462.253Z" fill="black"/>
<path d="M487.157 367.069C483.864 369.155 480.243 370.473 476.731 371.9C469.378 374.864 463.562 371.9 458.952 367.069C452.916 360.812 450.502 352.797 452.258 344.015C452.807 341.051 454.233 338.745 456.977 337.428C461.806 335.232 466.525 332.926 471.573 331.17C475.963 329.633 479.694 331.389 480.901 335.012C482.109 338.855 480.023 342.368 475.414 343.795C472.122 344.893 468.72 345.771 465.427 346.759C464.001 347.198 462.684 347.528 462.793 349.394C463.123 353.237 464.11 356.859 466.854 359.604C469.598 362.458 473.548 362.458 478.377 359.933C480.133 359.055 481.67 357.738 483.316 356.75C490.01 352.468 497.034 355.762 498.241 363.446C498.68 365.862 497.363 369.375 499.229 370.582C501.094 371.79 502.96 368.387 505.045 367.509C508.118 366.301 510.862 366.411 512.837 369.265C514.922 372.229 514.154 375.193 511.52 377.389C508.886 379.695 505.923 381.451 502.521 382.549C496.156 384.635 489.791 380.134 488.474 372.559C488.144 370.802 488.474 368.936 487.267 367.069H487.157Z" fill="black"/>
<path d="M245.938 290.989C250.108 290.55 254.278 289.891 258.449 290.55C263.826 291.428 265.582 293.844 264.594 299.223C264.046 302.187 264.594 303.395 267.777 302.956C269.423 302.736 271.069 302.626 272.825 302.736C277.544 302.956 279.958 305.7 279.52 310.311C278.751 318.545 274.471 325.242 269.423 331.39C267.667 333.586 265.033 334.793 262.399 332.817C259.656 330.841 259.875 328.096 261.521 325.352C262.729 323.376 263.826 321.29 266.24 320.192C268.984 318.984 269.204 316.13 269.862 313.495C270.191 312.068 269.204 311.958 268.106 311.848C265.472 311.629 263.168 312.617 260.973 313.824C259.436 314.703 258.01 315.91 256.363 316.679C254.278 317.667 251.974 317.886 250.218 315.91C248.462 313.934 249.01 311.739 250.218 309.762C251.644 307.457 253.73 305.371 254.717 302.736C255.376 300.87 255.595 299.552 252.742 299.882C248.133 300.431 243.633 300.76 239.024 300.87C236.39 300.87 234.305 301.968 232.22 303.505C229.805 305.261 227.391 306.798 229.805 310.311C230.573 311.409 230.134 313.056 229.476 314.373C227.72 318.106 220.696 319.972 216.526 317.886C212.465 315.801 210.929 310.97 214.002 306.798C220.477 298.235 227.61 290.44 239.682 290.66C241.767 290.66 243.852 290.66 245.938 290.66V290.989Z" fill="black"/>
<path d="M882.018 504.849C882.128 503.312 882.567 501.336 883.884 499.908C886.408 497.273 886.737 494.09 886.737 490.686C887.176 471.913 888.932 453.25 890.578 434.587C891.017 429.646 890.798 424.596 892.005 419.656C893.102 414.935 897.273 412.3 901.663 413.618C904.077 414.277 905.833 415.814 906.491 418.339C907.15 420.864 906.491 423.279 904.296 424.596C901.882 426.133 901.663 428.219 901.443 430.634C900.236 447.871 898.699 464.997 898.37 482.233C898.37 490.467 899.138 498.591 897.053 506.715C895.736 511.436 893.102 513.961 889.042 513.631C884.762 513.302 881.689 509.789 881.909 504.958L882.018 504.849Z" fill="black"/>
<path d="M322.869 232.804C322.869 233.353 322.869 233.902 322.869 234.451C322.504 238.037 324.15 239.318 327.808 238.293C334.393 236.427 335.6 236.976 339.221 242.465C339.88 243.453 341.087 244.002 342.185 244.661C344.818 246.307 346.684 248.503 347.123 251.577C347.562 254.212 346.794 256.407 344.27 257.505C341.636 258.603 339.112 257.944 337.795 255.419C336.368 253.004 334.283 251.028 333.076 248.613C331.868 246.198 330.442 246.307 328.357 247.076C324.845 248.393 321.552 250.26 317.492 249.162C313.322 247.954 311.675 245.978 312.114 241.587C312.334 238.732 312.773 235.768 312.992 232.914C313.102 230.718 312.005 230.279 310.139 231.157C307.615 232.474 305.42 234.121 303.774 236.427C302.457 238.073 301.359 239.94 299.933 241.367C297.189 244.002 294.994 246.198 299.274 249.711C301.579 251.577 300.811 254.87 298.616 257.286C296.092 260.03 290.604 260.14 286.105 257.615C282.593 255.639 281.605 252.455 282.703 248.723C283.142 247.295 283.361 245.649 284.239 244.441C290.165 235.988 295.982 227.424 305.31 222.374C315.297 216.885 322.979 221.606 323.089 232.914L322.869 232.804Z" fill="black"/>
<path d="M388.606 435.795C387.618 440.625 386.52 445.785 386.63 451.165C386.74 471.694 386.63 492.334 386.63 512.863C386.63 517.035 385.862 521.097 386.52 525.269C386.959 528.563 385.204 531.307 381.801 532.185C378.18 533.173 375.546 531.417 373.68 528.453C371.924 525.598 372.144 522.744 374.668 520.438C377.082 518.133 377.192 515.279 377.192 512.424C377.192 495.627 377.192 478.83 376.973 461.923C376.973 457.203 376.095 452.482 375.656 447.761C375.107 442.821 376.095 437.99 377.192 433.27C378.07 429.866 380.594 428.11 384.106 428.769C387.618 429.427 388.715 432.062 388.825 435.575L388.606 435.795Z" fill="black"/>
<path d="M737.704 388.807C738.253 391.442 739.131 395.064 739.679 398.797C740.777 405.933 737.923 411.642 732.217 415.704C728.705 418.119 724.425 417.57 722.01 414.606C719.596 411.532 720.474 407.251 724.096 405.384C729.473 402.42 730.461 400.005 728.376 394.186C727.937 392.979 727.168 391.771 727.388 390.673C728.376 384.964 724.864 382.769 720.254 381.122C715.645 379.475 710.926 378.487 705.988 378.926C704.341 379.036 703.463 379.475 703.573 381.451C703.683 384.415 702.256 386.501 699.403 387.489C696.44 388.477 693.916 387.489 691.721 385.623C688.319 382.549 686.892 376.95 688.428 372.998C689.855 369.265 693.477 366.85 698.525 367.069C708.731 367.509 719.047 368.058 728.485 372.778C734.411 375.742 738.143 381.232 737.704 388.697V388.807Z" fill="black"/>
<path d="M1019.53 291.099C1022.6 291.318 1024.8 293.404 1025.45 296.698C1027.54 307.017 1032.7 315.8 1038.73 324.253C1039.5 325.351 1040.16 325.79 1041.37 325.681C1046.75 325.132 1051.79 325.461 1055.31 330.182C1058.38 334.244 1061.45 338.416 1062.77 343.576C1063.43 346.21 1064.41 348.845 1066.17 351.041C1068.37 353.895 1067.6 357.299 1064.63 358.836C1061.89 360.373 1058.38 359.165 1057.06 355.871C1055.85 352.907 1055.09 349.833 1054.32 346.649C1053.77 344.454 1052.67 342.478 1051.46 340.611C1046.86 333.695 1039.72 334.244 1035.77 341.709C1035.33 342.478 1035.11 343.246 1034.78 344.015C1033.14 346.979 1030.5 348.077 1027.43 347.089C1024.14 345.991 1023.15 343.246 1023.59 340.062C1024.03 336.879 1026 334.463 1028.2 332.268C1029.52 330.95 1029.63 329.962 1028.53 328.425C1023.26 320.85 1020.74 311.848 1016.89 303.614C1016.13 301.967 1015.25 300.43 1014.48 298.784C1012.61 294.941 1015.03 291.099 1019.53 291.099Z" fill="black"/>
<path d="M359.744 486.296C359.744 493.761 360.183 501.336 359.085 508.801C358.866 510.448 359.634 511.326 360.402 512.534C362.377 515.608 362.048 518.682 359.634 521.317C357.658 523.622 354.915 524.391 352.061 522.964C348.769 521.427 348.111 518.462 348.769 515.169C353.269 494.42 350.525 473.67 348.879 452.921C348.55 449.189 348.111 445.456 347.562 441.723C347.013 437.771 346.135 434.368 342.843 431.513C340.319 429.318 339.99 425.805 341.416 422.621C342.514 420.206 344.599 419.217 347.233 419.437C350.854 419.876 352.61 422.291 353.927 425.475C358.097 435.575 357.878 446.334 358.866 456.983C359.744 466.644 359.853 476.415 359.634 486.186L359.744 486.296Z" fill="black"/>
<path d="M1011.41 380.793C1024.47 380.464 1035 390.674 1030.5 403.189C1030.28 403.738 1030.17 404.397 1029.84 404.726C1025.24 407.91 1025.78 412.521 1025.46 417.351C1025.02 426.134 1015.8 434.697 1007.57 435.356C1001.64 435.795 997.36 430.306 999.775 425.365C1001.2 422.511 1003.62 421.413 1006.69 422.072C1012.72 423.279 1017.22 418.778 1016.13 412.63C1015.91 411.533 1015.47 410.544 1015.03 409.447C1012.94 404.397 1014.15 401.762 1019.42 400.664C1021.28 400.335 1022.05 399.456 1022.27 397.809C1022.71 394.736 1020.3 391.222 1017 390.234C1013.38 389.137 1009.43 390.344 1008.12 393.089C1005.48 398.249 993.629 399.017 990.227 394.296C988.142 391.332 989.13 387.49 992.532 385.953C999.336 382.989 1006.36 380.793 1011.3 380.903L1011.41 380.793Z" fill="black"/>
<path d="M778.639 391.991C783.907 393.199 788.297 394.406 792.796 395.285C795.759 395.834 803.222 392.321 804.649 390.015C805.197 389.027 804.868 388.478 804.319 387.819C802.124 384.855 803.112 382.33 805.307 380.025C808.819 376.182 813.099 372.999 816.281 368.607C818.037 366.302 820.891 365.972 823.415 367.619C826.159 369.376 826.707 372.01 825.61 374.865C825.171 376.182 824.403 377.5 823.415 378.378C819.903 381.781 818.367 386.282 816.391 390.454C811.892 400.554 799.93 407.141 788.955 404.836C782.919 403.519 776.554 403.189 770.957 399.896C764.372 396.053 763.604 388.917 769.091 383.538C770.518 382.22 771.835 380.793 773.371 379.586C776.334 377.061 780.066 377.061 782.37 379.586C784.565 382.001 784.456 385.185 781.931 388.259C781.053 389.356 780.066 390.344 778.529 391.991H778.639Z" fill="black"/>
<path d="M541.37 303.175C545.321 303.175 548.394 301.857 551.247 299.991C553.991 298.235 556.735 297.686 559.149 300.32C561.454 302.845 560.795 305.7 559.259 308.444C558.161 310.421 555.308 311.958 555.967 313.934C556.625 316.129 559.917 315.141 561.893 315.8C565.514 316.898 567.49 319.533 567.051 322.826C566.502 326.12 563.758 327.986 559.917 327.657C554.43 327.218 549.711 324.912 545.541 321.509C544.663 320.85 543.565 319.752 543.565 318.874C543.565 313.165 539.285 313.604 535.664 312.726C528.311 311.189 525.677 307.237 526.555 299.881C526.774 297.795 527.104 295.709 527.433 293.733C527.762 291.647 528.64 289.562 530.506 288.464C535.883 285.17 542.029 283.853 547.845 281.877C550.15 281.108 552.455 282.645 553.662 284.951C554.979 287.585 554.65 290.11 552.784 292.306C550.918 294.502 548.504 295.819 545.76 296.478C544.224 296.807 542.797 297.246 541.261 297.466C539.066 297.795 536.981 298.344 537.31 301.199C537.749 303.834 540.273 302.297 541.151 303.065L541.37 303.175Z" fill="black"/>
<path d="M240.67 266.727C243.084 264.641 245.828 263.323 248.681 262.225C255.376 259.591 258.887 261.347 260.973 268.263C261.741 270.898 262.18 273.423 265.143 274.96C267.557 276.278 268.106 279.022 266.789 281.547C265.362 284.292 262.948 285.06 259.985 284.292C256.144 283.414 253.51 279.461 252.961 274.411C252.851 273.204 253.51 271.447 252.193 271.008C250.766 270.459 249.23 271.777 248.242 272.765C246.157 274.741 244.182 276.936 242.097 279.022C240.45 280.669 238.585 281.877 236.061 280.998C233.756 280.23 233.097 278.254 232.988 276.058C232.658 269.581 227.72 266.946 223.22 263.982C221.684 262.994 220.367 263.543 219.379 265.08C218.172 266.836 218.392 268.703 218.611 270.679C218.94 274.521 216.855 276.936 213.343 277.376C209.502 277.815 206.32 275.509 205.661 271.886C204.564 265.299 209.832 255.419 215.977 252.784C220.477 250.918 224.647 252.784 228.159 255.089C232.878 258.273 237.487 261.676 240.67 266.836V266.727Z" fill="black"/>
<path d="M547.956 261.676C550.041 263.433 552.565 264.092 555.199 264.421C557.723 264.641 560.247 264.86 562.662 265.519C566.283 266.397 568.149 269.361 567.6 272.655C567.051 275.839 564.198 278.254 560.576 277.705C555.748 277.046 551.029 275.839 546.529 273.753C544.883 272.984 543.347 272.106 541.591 271.557C535.774 269.471 533.689 264.201 536.762 258.932C544.334 245.538 558.821 241.696 571.99 245.319C575.611 246.307 578.904 248.722 582.086 250.808C584.391 252.345 584.94 254.87 584.172 257.505C583.513 260.03 581.867 261.676 579.343 262.116C575.282 262.884 571.551 262.116 568.478 259.371C562.332 253.772 552.675 254.76 547.846 261.676H547.956Z" fill="black"/>
<path d="M873.568 408.129C877.958 408.129 880.591 412.191 879.165 417.131C875.763 428.219 874.994 439.747 874.446 451.274C874.226 457.312 874.994 463.241 875.653 469.169C875.872 470.706 876.311 472.023 877.299 473.341C879.494 476.085 879.494 479.05 877.628 481.904C875.982 484.319 873.568 485.307 870.714 484.758C867.203 484.209 865.227 481.904 865.008 478.501C863.8 465.217 861.825 451.933 863.581 438.649C864.569 430.854 864.459 422.84 866.544 415.155C867.751 410.544 870.056 408.129 873.568 408.239V408.129Z" fill="black"/>
<path d="M364.133 261.457C364.133 257.834 366.767 253.882 369.84 254.54C375.217 255.748 379.826 253.003 384.875 252.564C390.033 252.125 394.093 252.894 396.178 258.054C397.056 260.03 398.263 259.371 399.58 258.932C403.86 257.395 408.579 256.956 412.091 259.7C416.591 263.213 420.103 267.824 425.809 269.91C427.894 270.679 428.004 273.643 427.017 275.948C426.139 278.144 424.273 279.352 421.859 279.571C416.371 280.12 409.787 276.827 407.811 271.667C406.165 267.605 404.08 268.812 401.775 270.349C400.568 271.228 399.69 272.545 398.593 273.643C396.727 275.619 394.532 276.607 391.898 275.619C389.374 274.521 388.057 272.545 387.838 269.801C387.399 265.116 385.057 263.836 380.814 265.958C377.851 267.495 374.888 269.142 371.376 268.703C367.096 268.264 364.243 265.409 364.243 261.457H364.133Z" fill="black"/>
<path d="M815.842 314.373C816.062 315.361 816.172 316.13 816.281 317.008C816.611 319.753 815.843 322.058 813.428 323.485C810.904 325.022 808.27 324.803 806.075 322.827C803.551 320.631 800.698 318.984 797.405 317.996C794.442 317.118 792.247 315.032 792.577 311.519C792.906 308.006 795.32 306.908 798.503 306.14C807.063 303.944 815.404 303.066 823.964 306.249C831.317 308.994 836.036 314.373 838.999 321.4C840.096 324.144 838.999 326.889 837.901 329.524C837.133 331.061 837.352 331.939 838.779 332.927C841.413 334.683 842.181 337.428 840.864 340.282C839.438 343.356 836.584 344.235 833.511 343.466C830.109 342.588 826.817 341.49 823.634 340.173C821.44 339.294 820.013 337.648 820.123 335.013C820.232 332.598 821.769 331.28 823.854 330.512C825.281 329.963 826.707 329.304 827.805 328.206C830.329 325.681 830.768 323.376 828.134 320.302C824.842 316.679 821.439 314.154 815.842 314.373Z" fill="black"/>
<path d="M755.482 481.794C755.921 470.706 754.495 459.508 757.348 448.53C757.568 447.432 757.787 446.334 758.226 445.346C759.433 442.052 761.738 440.186 765.359 441.064C768.871 441.833 770.188 444.577 769.969 447.981C769.969 448.749 769.749 449.627 769.42 450.396C765.469 459.837 766.457 469.718 766.786 479.598C767.006 485.197 767.115 490.687 767.445 496.286C767.554 499.03 767.554 501.775 768.762 504.41C770.737 508.582 769.53 512.095 766.018 513.412C762.177 514.949 758.007 512.863 756.69 508.801C755.373 504.739 755.592 500.567 755.482 496.395C755.482 491.565 755.482 486.625 755.482 481.794Z" fill="black"/>
<path d="M290.714 107.65C290.494 111.053 288.08 112.7 285.336 114.456C272.716 122.8 259.546 130.375 249.12 141.683C246.706 144.208 244.731 147.062 242.755 149.917C240.231 153.759 236.61 154.857 233.646 152.881C230.574 150.795 230.244 147.282 232.878 143.33C237.597 136.413 243.523 130.704 250.218 125.874C260.534 118.408 270.96 110.943 281.056 103.039C283.032 101.502 285.336 100.953 287.641 102.27C289.616 103.368 290.604 105.125 290.714 107.54V107.65Z" fill="black"/>
<path d="M326.381 342.368C324.405 340.831 321.881 338.965 323.088 335.781C324.735 331.39 328.466 328.865 332.856 328.097C337.355 327.328 342.074 328.206 346.464 329.085C349.756 329.743 351.183 332.488 350.525 335.781C349.866 339.185 347.452 340.941 344.159 340.392C341.416 339.953 340.209 340.612 339.77 343.357C339.55 344.784 338.562 345.991 337.355 346.65C332.527 349.285 329.234 353.676 325.283 357.738C327.369 358.726 329.563 358.617 331.649 358.726C335.49 359.056 337.685 361.471 337.026 364.545C336.477 367.509 333.734 369.046 330.222 368.168C324.844 366.85 319.467 365.423 314.089 363.996C309.7 362.788 308.822 359.934 312.114 356.75C317.053 352.139 322.869 348.407 326.271 342.149L326.381 342.368Z" fill="black"/>
<path d="M246.707 471.255C246.268 461.045 246.158 450.725 243.853 440.625C242.866 436.563 243.195 432.281 244.182 428.219C245.06 424.377 247.914 422.181 251.316 422.73C254.608 423.279 256.913 426.133 256.145 429.866C254.059 440.515 257.901 450.835 257.462 461.374C257.352 464.777 257.791 468.29 258.01 471.804C258.12 474.329 258.449 476.744 259.547 479.049C261.522 483.111 260.425 486.844 256.913 488.161C253.401 489.589 249.34 487.722 247.914 483.66C247.255 481.684 246.926 479.598 246.707 477.512C246.487 475.426 246.707 473.341 246.707 471.255Z" fill="black"/>
<path d="M346.793 287.366C340.538 292.746 340.099 292.746 333.295 287.696C331.319 286.269 329.673 286.049 327.917 288.245C325.722 290.989 322.869 292.307 319.467 290.77C316.394 289.452 315.406 286.708 315.626 283.524C315.955 279.791 317.711 277.266 321.552 275.839C327.149 273.753 332.417 274.412 337.575 276.937C339.111 277.705 340.099 277.486 341.197 276.388C342.733 274.961 344.489 273.863 346.574 273.204C350.525 271.887 354.476 273.753 355.463 277.705C356.122 280.45 356.89 282.316 359.963 283.304C362.816 284.183 364.243 286.927 363.255 290.111C362.267 293.405 359.743 294.612 356.451 294.283C351.951 293.734 348.769 291.319 346.684 287.366H346.793Z" fill="black"/>
<path d="M424.054 371.241C428.444 372.339 434.15 371.241 436.894 377.17C437.553 378.597 438.54 377.389 439.089 376.73C440.735 374.864 442.381 372.998 444.796 372.01C447.43 371.022 449.844 371.461 451.49 373.766C453.136 376.072 453.136 378.597 451.271 380.683C442.82 389.575 426.249 396.052 414.177 389.026C408.031 385.403 407.263 379.365 412.75 374.864C415.823 372.339 419.554 371.241 424.054 371.241Z" fill="black"/>
<path d="M1054.43 287.257C1049.49 287.476 1045.21 286.598 1041.04 285.72C1038.4 285.171 1036.54 283.524 1036.21 280.67C1035.88 277.925 1036.65 275.619 1039.17 274.302C1041.7 272.985 1044 273.534 1045.98 275.51C1048.06 277.596 1050.7 277.815 1053.33 277.925C1057.83 278.145 1062.11 278.913 1066.5 280.011C1076.71 282.755 1082.3 290.879 1080.99 301.419C1080.55 304.932 1081.42 308.006 1082.96 311.08C1084.72 314.593 1083.95 317.667 1081.1 318.984C1077.58 320.521 1075.06 318.874 1073.52 315.91C1070.78 311.08 1070.89 305.7 1071.99 300.431C1073.3 293.844 1070.67 289.782 1064.08 288.354C1060.68 287.586 1057.28 286.817 1054.32 287.147L1054.43 287.257Z" fill="black"/>
<path d="M573.087 395.614C574.843 390.124 573.635 383.537 574.623 377.06C575.391 372.559 575.611 368.058 572.977 363.776C571.111 360.702 572.538 356.53 575.501 354.554C578.464 352.578 582.305 353.127 584.939 356.091C586.805 358.177 587.683 360.702 587.463 363.337C586.695 372.998 585.707 382.659 584.829 392.32C584.61 394.186 584.5 395.723 586.146 397.151C589.219 400.005 589.548 403.298 587.244 405.933C584.829 408.788 580.22 409.117 577.037 406.702C574.623 404.835 573.196 401.103 573.087 395.614Z" fill="black"/>
<path d="M290.165 458.081C289.726 464.888 289.397 471.694 287.421 478.172C286.763 480.148 286.872 482.234 286.872 484.32C286.763 487.174 287.311 489.04 290.494 490.138C293.238 491.016 294.225 493.761 293.567 496.725C292.799 499.689 290.714 501.007 287.75 501.117C281.495 501.336 276.337 496.286 276.227 489.479C276.227 484.1 275.788 478.721 276.995 473.341C278.093 468.401 278.093 463.461 276.995 458.52C276.337 455.776 276.995 453.251 279.52 451.604C281.824 450.177 284.348 450.177 286.653 451.275C289.397 452.702 290.604 455.007 290.384 458.081H290.165Z" fill="black"/>
<path d="M841.633 365.423C844.047 365.642 846.9 366.191 849.644 367.289C852.058 368.167 853.485 369.924 853.814 372.559C854.363 376.621 856.009 377.499 859.741 375.852C862.813 374.425 865.996 373.437 869.398 373.876C872.581 374.206 874.556 375.962 874.995 379.146C875.434 382.33 873.568 384.306 870.605 385.404C858.643 389.795 847.559 387.489 837.023 380.902C834.499 379.365 832.304 377.389 831.865 374.206C831.097 369.265 835.267 365.313 841.523 365.533L841.633 365.423Z" fill="black"/>
<path d="M610.181 294.063C607.657 293.734 604.804 294.063 601.84 294.392C597.89 294.832 594.707 291.867 594.488 288.025C594.378 284.073 597.121 280.56 601.072 281.109C609.303 282.097 617.753 281.548 625.765 284.292C630.264 285.829 631.911 288.135 631.252 292.746C630.813 296.588 630.155 300.54 626.753 303.175C625.765 303.944 625.545 305.261 624.997 306.469C623.46 309.652 620.936 310.641 617.753 309.323C614.79 308.225 613.583 304.493 615.229 301.638C616.217 299.882 617.863 298.454 619.18 296.808C620.607 295.271 620.278 294.392 618.302 294.063C616.875 293.844 615.559 293.624 614.132 293.624C612.925 293.624 611.608 293.844 609.962 293.953L610.181 294.063Z" fill="black"/>
<path d="M289.397 139.377C289.068 143.549 286.324 146.623 282.264 147.83C274.033 150.246 269.862 156.833 265.253 163.09C263.387 165.616 261.632 167.701 258.339 167.592C255.815 167.482 253.73 166.164 252.742 163.749C251.425 160.565 252.413 157.821 254.718 155.406C262.18 147.391 270.411 140.146 279.3 133.668C281.386 132.131 283.69 132.022 285.995 133.229C288.299 134.437 289.287 136.523 289.397 139.487V139.377Z" fill="black"/>
<path d="M940.622 468.181C941.39 457.642 942.268 447.102 941.061 436.563C940.732 434.038 941.39 431.294 941.939 428.768C942.817 425.475 945.231 423.938 948.633 424.706C951.816 425.475 953.462 428.11 952.584 431.074C949.841 440.296 952.035 449.628 951.487 458.849C951.377 461.265 951.816 463.79 952.694 466.205C953.901 469.608 953.133 472.902 950.389 475.317C948.524 476.964 946.329 477.183 944.134 476.086C940.842 474.439 940.622 471.365 940.622 468.181Z" fill="black"/>
<path d="M978.594 497.933C979.033 491.017 980.35 485.308 983.532 480.258C985.178 477.623 987.593 476.415 990.666 477.403C993.958 478.501 995.055 481.026 994.726 484.32C994.507 486.296 993.519 487.943 992.531 489.699C987.812 497.384 988.471 501.446 995.385 506.935C998.567 509.46 1000.43 512.534 999.335 516.706C998.567 519.561 996.702 521.317 993.629 521.317C990.666 521.317 988.471 519.78 988.032 516.706C987.593 513.962 985.947 512.205 984.41 510.339C981.228 506.386 978.594 502.105 978.704 497.823L978.594 497.933Z" fill="black"/>
<path d="M555.747 383.318C553.442 391.442 555.528 399.456 556.186 407.58C556.406 410.435 556.625 413.399 555.967 416.253C555.198 419.656 553.003 421.632 549.492 421.523C546.09 421.413 543.565 419.217 543.785 416.033C544.663 405.055 541.81 394.186 543.346 383.318C543.675 381.342 544.004 379.475 545.431 378.048C547.407 376.072 549.821 375.633 552.345 376.731C555.089 377.938 555.857 380.463 555.747 383.318Z" fill="black"/>
<path d="M556.845 71.6406C559.149 71.6406 561.015 72.5189 562.112 74.495C565.075 80.3136 569.136 85.3637 571.331 91.7312C572.977 96.6714 576.818 100.733 578.794 105.674C580.659 110.285 580.001 113.578 576.599 114.786C572.977 116.103 569.904 113.908 568.697 109.077C568.039 106.332 566.831 103.917 565.185 101.612C560.686 95.4638 558.491 87.8887 552.235 82.9484C550.04 81.1919 550.26 77.7885 551.577 75.1537C552.674 72.958 554.54 71.8602 556.954 71.7504L556.845 71.6406Z" fill="black"/>
<path d="M1021.72 487.174C1019.75 492.554 1019.64 498.921 1020.3 505.289C1020.52 507.704 1020.74 510.009 1021.72 512.205C1023.15 515.499 1022.27 518.353 1018.98 519.89C1015.69 521.427 1013.05 520 1011.08 517.145C1010.64 516.596 1010.31 515.938 1010.2 515.279C1008.88 504.959 1007.24 494.53 1010.2 484.21C1011.08 480.917 1013.6 479.16 1017.22 479.819C1020.63 480.477 1021.94 483.002 1021.83 487.064L1021.72 487.174Z" fill="black"/>
<path d="M673.064 527.684C675.15 521.866 674.491 514.291 675.698 506.935C676.357 502.763 679.869 500.019 683.929 500.019C686.673 500.019 688.868 501.116 689.855 503.751C690.843 506.386 690.185 508.801 687.88 510.338C685.466 511.875 685.136 513.742 685.356 516.376C685.795 521.317 684.149 526.037 685.356 531.197C686.234 534.71 682.393 537.894 678.881 537.675C675.04 537.455 672.955 534.381 673.174 527.684H673.064Z" fill="black"/>
<path d="M549.711 110.833C552.235 110.833 554.649 112.26 555.527 115.005C557.613 121.811 561.563 127.85 563.21 134.656C564.417 139.596 563.1 143.219 559.259 144.098C555.308 145.086 551.686 142.341 551.138 137.401C550.699 133.997 549.272 131.033 547.516 128.289C545.541 125.105 543.785 121.702 543.455 117.969C543.126 114.017 545.65 111.053 549.821 110.943L549.711 110.833Z" fill="black"/>
<path d="M615.119 323.486C618.083 323.486 620.168 324.913 621.594 327.328C623.131 329.963 624.448 332.708 624.887 335.782C625.216 338.416 626.204 340.722 628.069 342.808C631.252 346.54 631.032 350.712 627.96 353.018C624.887 355.323 620.936 354.225 618.083 350.163C617.205 348.956 616.327 347.638 615.888 346.211C614.79 342.588 613.693 339.514 610.4 336.989C607.437 334.684 607.437 330.841 608.864 327.328C609.961 324.584 612.266 323.376 615.119 323.376V323.486Z" fill="black"/>
<path d="M931.732 171.873C937.11 172.203 942.158 171.654 946.438 167.592C948.743 165.396 952.474 166.274 954.01 168.799C955.657 171.434 954.888 175.167 951.706 176.594C946.658 178.9 941.609 181.205 936.012 181.974C933.159 182.413 930.415 182.632 927.891 184.499C925.038 186.585 921.307 185.377 919.66 182.413C917.904 179.229 919.112 175.057 922.404 173.081C925.367 171.325 928.55 171.764 931.732 171.873Z" fill="black"/>
<path d="M961.253 257.615C966.192 257.615 969.484 260.249 970.033 264.312C970.362 266.617 971.021 268.374 972.448 270.24C974.533 272.875 974.423 275.839 971.789 278.035C969.155 280.34 966.411 279.791 963.997 277.486C963.448 277.046 963.009 276.498 962.68 275.839C961.363 272.984 960.046 272.216 956.864 274.192C954.01 275.949 950.828 274.741 949.072 271.667C947.206 268.593 948.084 263.214 951.157 261.567C954.559 259.701 958.51 258.603 961.363 257.505L961.253 257.615Z" fill="black"/>
<path d="M138.279 327.218C138.279 331.5 134.986 334.134 131.145 333.695C128.511 333.366 126.646 331.829 124.89 329.853C122.036 326.559 119.403 323.046 114.354 322.497C111.281 322.168 109.855 319.204 110.513 316.02C111.172 312.836 113.476 311.08 116.549 311.519C120.5 312.068 124.451 312.946 126.975 316.788C128.731 319.313 130.926 321.29 134.108 322.168C136.742 322.936 138.059 325.022 138.169 327.218H138.279Z" fill="black"/>
<path d="M307.066 159.797C307.066 161.773 305.749 163.75 303.334 164.628C299.384 166.055 296.53 168.909 293.896 171.874C292.799 173.081 291.482 174.289 289.946 174.838C287.312 175.936 284.678 175.496 282.922 172.971C281.276 170.666 281.276 167.921 283.361 166.165C288.08 162.322 292.031 157.492 297.518 154.528C302.237 152.003 306.956 154.308 306.956 159.688L307.066 159.797Z" fill="black"/>
<path d="M830.438 140.255C828.134 139.706 824.402 139.048 820.891 137.84C817.928 136.852 816.72 134.327 816.83 131.253C817.05 127.85 818.147 124.886 821.659 123.678C824.622 122.69 826.927 123.678 828.244 126.532C828.902 127.959 829.122 129.167 831.097 128.289C833.841 127.081 836.365 127.52 838.23 129.826C839.876 131.912 839.876 134.217 838.669 136.413C837.243 139.267 834.828 140.255 830.438 140.255Z" fill="black"/>
<path d="M794.771 442.821C790.491 442.821 786.979 440.077 786.979 436.344C786.979 430.306 790.711 424.817 794.881 424.707C799.051 424.597 804.209 429.428 804.319 433.709C804.429 438.32 799.82 442.712 794.771 442.821Z" fill="black"/>
<path d="M955.766 147.062C953.901 147.062 952.913 146.952 951.925 146.842C947.755 146.293 945.231 143.548 945.78 140.035C946.219 136.632 949.072 134.546 953.132 135.095C955.327 135.424 957.083 135.095 959.168 134.436C961.912 133.448 964.546 134.107 965.973 136.852C967.509 139.706 966.741 142.341 964.217 144.207C961.473 146.293 958.4 147.391 955.876 147.171L955.766 147.062Z" fill="black"/>
</g>
<defs>
<clipPath id="clip0_149_417">
<rect width="1124.44" height="570" fill="white" transform="translate(0 0.5)"/>
</clipPath>
</defs>
</svg>
