<svg width="1023" height="570" viewBox="0 0 1023 570" fill="none" xmlns="http://www.w3.org/2000/svg">
<g clip-path="url(#clip0_47_149)">
<path d="M108.191 229.208C112.589 226.352 116.108 225.693 119.736 228C121.495 229.098 123.035 227.56 124.684 227.341C128.532 226.901 131.501 228.329 133.7 231.404C135.569 233.93 136.009 236.786 134.469 239.751C132.93 242.607 130.291 244.034 127.103 243.485C124.684 243.156 123.694 244.144 122.705 246.011C113.799 263.584 110.5 282.693 107.202 301.693C107.202 302.023 107.422 302.352 107.532 302.682C109.621 302.682 109.181 300.815 109.731 299.716C116.658 283.682 121.935 266.988 130.841 251.832C133.37 247.549 136.229 244.034 141.836 244.803C146.454 245.462 149.313 248.427 149.863 253.04C150.302 257.543 147.993 260.399 143.595 261.167C139.967 261.826 138.208 264.462 136.888 267.208C125.564 291.589 115.448 316.3 111.71 343.208C111.71 343.647 111.82 344.196 111.93 345.075C114.129 344.196 114.459 342.219 115.118 340.682C122.485 322.56 131.281 305.098 138.318 286.867C142.386 276.323 148.213 266.659 154.041 257.104C156.46 253.15 160.967 252.162 164.376 254.358C167.894 256.555 168.774 261.058 165.475 264.792C152.721 279.179 147.444 297.3 139.637 314.214C132.93 328.601 128.312 343.977 120.946 358.144C118.637 362.647 120.946 367.589 122.925 371.543C126.113 377.693 126.443 383.514 124.904 390.104C121.715 404.271 118.747 418.549 116.108 432.826C114.349 442.711 109.291 450.838 103.793 458.855C102.474 460.722 101.155 462.37 100.495 464.676C100.055 466.323 98.9556 467.861 97.3063 468.63C86.8611 473.352 76.1959 477.526 64.3213 475.219C61.2427 474.67 58.384 474.341 55.1954 475.549C51.5671 477.086 47.9387 475.988 45.2999 473.023C43.8705 471.375 42.881 470.826 40.682 472.364C33.3153 477.416 25.3989 474.341 22.98 465.664C22.5402 464.017 22.2104 462.26 22.2104 460.503C22.2104 451.497 17.8124 444.468 12.5348 437.769C1.53973 424.04 -3.07817 408.884 1.64969 391.202C4.61834 379.89 5.71784 368.029 12.4248 357.815C20.4512 345.624 28.4775 333.543 41.5616 325.965C46.8392 322.89 52.3367 320.144 58.7138 321.572C62.4521 322.451 62.5621 319.705 63.1118 317.399C66.6302 302.462 70.5884 287.526 73.4471 272.37C76.1959 257.873 81.5835 244.584 88.6203 231.844C91.0392 227.451 93.678 223.277 94.7775 218.225C95.5471 214.711 98.5158 212.844 102.254 213.063C105.882 213.393 108.191 215.589 109.181 219.104C110.061 222.179 109.291 225.144 107.862 229.208H108.191ZM23.4198 429.422C28.9173 398.451 37.3835 369.456 46.7293 340.352C43.6506 341.121 41.7815 342.988 39.9123 344.745C33.5352 350.456 29.1372 357.705 24.2994 364.624C17.8124 373.959 17.3726 385.052 14.5139 395.485C11.1054 408.005 14.7338 418.549 23.5298 429.422H23.4198ZM76.9655 359.023C73.667 365.173 71.3581 371.873 68.7193 378.352C59.8133 400.537 58.1641 423.93 55.5253 447.214C55.4153 448.532 54.9755 450.289 57.2845 450.069C58.8238 449.959 60.583 449.959 60.2531 447.543C59.9233 444.797 60.473 442.052 60.9128 439.306C66.1904 412.508 71.468 385.821 76.7456 359.023H76.9655ZM42.771 455.56C43.4307 419.867 48.5984 385.821 61.9024 352.763C59.0437 353.092 58.274 353.971 58.1641 354.959C56.8447 362.098 53.1064 368.468 51.1273 375.497C45.6298 394.936 39.9123 414.266 36.284 434.144C34.9646 441.722 34.6347 449.19 42.771 455.451V455.56ZM99.7252 373.41C93.4581 402.295 87.3009 431.069 80.9238 460.393C84.4422 459.844 87.081 459.404 88.0705 456.549C89.9397 451.387 92.0287 446.115 92.3586 440.624C93.8979 419.977 95.877 399.439 100.165 379.231C100.605 377.364 100.935 375.497 99.6153 373.52L99.7252 373.41ZM76.5257 333.763C84.772 304.988 89.0601 275.445 97.3063 246.78C84.3322 274.347 82.3531 304.549 76.5257 333.763ZM107.752 410.532C111.93 399.329 114.569 382.965 112.699 380C109.181 389.884 107.202 402.404 107.752 410.532Z" fill="black"/>
<path d="M783.395 31.6301C785.814 28.2255 788.233 25.1504 790.432 21.8556C792.961 18.2313 795.929 15.4856 800.767 16.3642C805.275 17.2428 806.375 20.9769 807.034 24.711C809.123 24.4914 809.783 22.844 810.992 21.9654C814.181 19.5492 817.479 19.3295 820.558 21.8556C823.637 24.4914 823.747 27.7862 822.097 31.3006C821.218 33.0579 819.788 34.3758 818.359 35.4741C808.683 42.9423 802.636 52.7168 799.008 64.2486C797.029 70.5087 791.751 72.7053 786.693 68.7515C784.934 67.4336 783.505 67.4336 781.526 67.6532C774.819 68.422 770.641 63.4798 772.51 56.8902C774.049 51.5087 775.479 46.0174 777.897 40.8556C774.379 45.9076 768.552 49.7515 770.641 57.5492C771.52 60.9538 769.431 63.5897 766.463 65.1272C763.274 66.8845 760.086 66.6648 757.227 64.3584C755.907 63.2602 754.918 61.8324 753.708 60.4047C751.509 62.6012 751.399 64.9076 752.499 67.8729C754.258 72.266 752.279 76.7688 748.101 78.7457C743.703 80.8324 739.855 79.844 737.326 75.6706C735.347 72.4856 733.807 72.3758 731.718 75.5608C729.409 78.8556 726.001 79.9538 722.153 79.0752C717.865 78.0868 715.776 75.0116 715.116 70.948C714.236 66.4451 714.896 62.0521 715.336 57.5492C714.456 57.0001 714.126 57.659 713.687 58.0983C702.911 70.0694 692.356 82.1504 681.251 93.792C672.565 102.908 669.377 114.439 666.078 125.752C658.492 151.121 654.643 177.37 646.287 202.52C644.858 206.804 645.517 208.561 650.245 208.561C653.544 208.561 656.842 209 660.031 209.439C664.979 210.208 667.837 213.832 667.068 218.006C666.298 222.179 662.56 224.156 657.502 223.497C639.8 221.191 640.57 220.861 638.041 238.543C637.271 244.254 637.491 244.254 643.208 242.827C645.298 242.278 647.277 242.827 649.366 243.156C672.785 247.11 679.822 260.838 682.681 280.278C684.11 289.942 683.78 290.052 693.126 292.029C696.534 292.688 699.723 294.116 703.021 295.214C706.1 296.202 707.969 295.873 709.179 292.139C711.048 286.647 713.687 281.266 716.325 275.994C720.943 267.098 735.127 260.069 745.022 261.936C750.3 262.925 755.797 261.936 760.965 262.925C779.657 266.22 796.259 273.249 807.914 289.613C815.83 300.595 820.668 312.347 819.459 325.746C817.809 343.538 800.767 358.474 783.615 362.428C764.044 366.821 745.352 365.832 727.1 356.497C717.315 351.445 710.828 344.306 707.749 334.093C705.44 326.514 703.021 318.827 704.561 310.699C705.11 307.405 703.791 306.087 700.602 305.538C694.665 304.439 688.838 302.902 682.681 304C680.042 304.549 677.953 305.208 676.963 307.624C672.565 318.277 663.879 324.757 654.643 330.688C647.387 335.301 640.79 341.341 631.004 338.046C628.255 337.168 629.135 339.913 629.135 341.121C629.135 349.468 629.135 357.705 629.135 366.052C629.245 380.549 631.554 394.936 632.653 409.324C633.643 422.503 633.203 435.902 634.852 449.081C636.282 459.624 636.941 470.387 642.219 480.052C643.758 482.908 643.758 486.092 644.638 489.058C647.936 500.809 656.732 509.046 663.769 518.382C669.487 525.96 675.424 533.318 678.942 542.434C681.141 548.254 684.77 552.977 690.377 556.052C694.775 558.468 695.985 562.422 694.115 566.046C692.246 569.561 687.958 570.769 683.67 568.682C675.424 564.728 671.136 557.26 668.387 549.133C665.199 539.908 659.701 532.33 653.874 524.751C646.287 514.757 637.161 505.532 634.083 492.792C632.213 485.214 628.255 478.295 626.716 470.717C624.737 461.162 623.198 451.387 622.648 441.613C621.548 421.405 620.009 401.306 618.36 381.208C617.26 368.029 617.15 354.63 617.48 341.341C617.7 334.312 615.721 329.699 609.564 326.185C597.469 319.376 586.144 299.717 590.103 283.462C591.532 277.751 594.171 272.809 598.019 268.526C604.946 260.728 612.422 253.59 621.768 248.647C623.857 247.549 624.297 246.012 624.407 244.035C625.616 227.561 629.575 211.636 634.412 195.931C641.779 171.988 645.957 147.168 652.994 123.116C657.942 106.202 664.869 90.607 677.843 77.7573C687.958 67.6532 697.524 56.8902 705.99 45.2486C710.498 38.8787 717.535 34.9249 723.032 29.4336C724.682 27.7862 727.65 27.3469 729.409 28.6648C733.368 31.6301 734.357 28.8845 736.116 26.1388C740.624 19.3295 747.551 19.1099 751.839 25.8093C752.719 27.2371 753.379 28.0058 755.028 27.1272C756.567 26.2486 758.766 25.6995 759.976 26.6879C764.374 30.2024 766.792 28.0058 770.201 24.711C775.149 19.9885 780.976 22.844 783.945 31.3006L783.395 31.6301ZM761.515 354.41C772.62 354.85 783.945 352.214 793.18 346.393C807.914 337.058 812.642 323.879 805.495 307.624C794.5 282.694 773.06 273.688 748.321 273.468C746.891 273.468 746.122 274.017 745.682 275.335C744.143 279.728 740.624 281.156 736.226 281.156C731.938 281.156 729.08 283.243 727.21 286.977C726.111 289.283 724.792 291.59 723.472 293.786C717.425 304.549 714.126 315.642 717.865 328.052C719.844 334.532 722.043 341.012 728.53 344.636C738.755 350.347 749.64 354.301 761.515 354.52V354.41ZM633.533 278.85C635.842 277.751 637.381 277.093 638.92 276.324C643.758 274.017 648.486 271.491 653.434 269.515C658.602 267.538 663.439 269.624 665.089 274.017C666.628 278.191 664.869 282.035 659.701 284.121C657.502 285 657.832 286.428 657.502 288.075C655.963 294.665 654.753 301.254 652.334 307.514C649.476 314.983 641.339 315.532 636.831 308.942C635.292 306.636 633.423 304.879 630.894 302.462C630.014 310.15 629.245 317.179 628.585 324.098C628.475 325.306 628.145 326.734 629.575 327.283C633.533 328.821 637.491 330.908 641.779 327.723C646.397 324.098 651.565 321.133 655.963 317.289C668.387 306.636 676.194 293.786 672.125 276.543C671.356 273.358 670.476 270.173 669.157 267.208C666.188 260.619 661.57 255.896 653.764 254.578C653.434 259.41 652.664 264.023 647.497 265.671C642.439 267.318 638.92 264.792 635.622 259.301C634.852 266.549 634.193 272.26 633.533 278.85ZM621.988 264.792C608.354 270.503 598.459 283.133 599.009 293.237C599.558 304.22 608.244 317.069 617.15 319.486C618.8 301.364 620.339 283.353 621.988 264.792Z" fill="black"/>
<path d="M484.66 346.064C481.802 346.283 481.142 348.37 480.043 349.688C476.524 353.751 472.346 356.058 466.739 354.74C460.032 353.092 453.764 350.127 452.005 343.098C450.026 335.081 450.026 326.844 456.183 320.035C462.341 313.335 473.446 313.665 479.383 320.584C481.362 322.89 484.77 323.659 486.53 326.734C485.65 317.728 486.31 308.832 487.959 300.156C489.718 291.15 487.519 282.474 486.42 273.908C484.66 260.179 485.32 246.671 487.409 233.162C489.938 217.127 488.729 201.202 488.069 185.168C487.739 175.503 487.299 165.838 488.069 156.173C488.839 146.728 486.2 137.613 486.42 128.277C486.42 124.873 484.111 122.676 480.812 122.566C461.791 122.017 443.209 116.965 424.078 116.306C421.549 116.306 419.46 116.306 417.701 118.503C416.491 120.04 414.402 120.26 412.533 120.59C394.611 123.555 376.909 127.509 359.537 132.89C337.547 139.699 317.536 150.792 297.415 161.665C287.08 167.266 276.745 172.867 266.299 178.249C257.503 182.751 250.906 190 243.65 196.26C238.262 200.873 232.765 205.376 227.157 209.659C223.639 212.295 220.01 212.624 217.152 208.78C215.722 206.913 214.513 207.243 212.754 207.572C206.706 208.671 202.638 206.584 201.539 202.081C200.549 197.688 202.858 194.393 208.686 192.416C215.722 190.11 220.45 184.509 225.728 179.896C231.775 174.624 232.875 174.295 240.021 178.578C241.121 179.237 241.891 179.347 242.66 178.578C252.556 167.705 266.299 163.092 278.724 156.393C297.086 146.289 315.557 136.405 334.798 128.168C357.998 118.283 382.187 111.584 406.486 105.653C409.674 104.884 410.774 103.786 410.334 100.491C409.345 91.4855 407.915 82.6994 405.386 74.0231C404.507 70.948 403.187 68.9711 399.889 72.5954C395.601 77.5376 389.114 77.7572 383.176 78.7457C372.621 80.6127 361.956 82.0405 351.731 85.6647C346.673 87.422 342.385 85.2254 341.395 80.8324C340.296 76.4393 342.825 72.815 347.992 71.3873C356.129 69.1908 364.485 67.3237 372.951 66.5549C381.527 65.6763 388.784 62.2717 395.491 57.2197C396.59 56.341 396.7 55.6821 396.151 54.6936C395.711 53.7052 395.051 52.9364 393.732 53.2659C381.197 56.8902 367.893 56.0116 355.249 59.1965C351.621 60.0751 348.542 61.9422 345.464 63.9191C340.846 66.7746 336.338 65.896 334.249 61.9422C332.05 57.9884 333.809 53.7052 338.647 51.3988C347.113 47.1156 356.239 45.3584 365.694 44.4798C371.962 43.9306 378.009 42.6127 384.056 41.0751C386.915 40.4162 387.025 39.4277 385.595 36.9017C382.847 32.289 380.428 29.9827 374.271 32.3988C368.223 34.815 361.406 35.0347 355.029 36.3526C351.621 37.0116 348.432 38.2197 345.244 39.7572C340.406 42.1734 335.898 40.8555 334.249 36.7919C332.379 32.3988 335.018 27.3468 340.186 25.9191C347.003 24.052 353.93 22.5145 360.857 20.7572C363.166 20.2081 365.584 19.659 367.893 19C369.103 18.6705 370.972 18.5607 370.752 16.6936C370.532 14.8266 369.213 13.8382 367.234 13.6185C359.207 12.6301 351.731 14.1676 344.584 17.9017C342.385 19 340.406 20.4277 338.097 21.1965C334.139 22.6243 330.73 21.4162 329.081 17.3526C327.542 13.3988 329.081 10.104 332.929 8.34682C346.123 2.63584 359.977 0 374.271 0C377.789 0 380.098 1.75723 381.967 4.61272C383.396 6.80925 384.606 7.35838 387.025 5.05202C393.292 -1.09827 400.878 -0.32948 406.376 6.36994C407.475 7.68786 408.575 9.11561 410.004 9.99422C422.978 17.5723 433.424 28.1156 444.089 38.5491C455.084 49.3121 467.068 59.0867 477.844 69.9595C486.859 79.0751 490.708 90.7168 494.116 102.578C497.415 114.11 496.315 126.191 497.415 138.052C498.624 151.451 497.964 164.85 497.745 178.358C497.635 185.277 497.745 192.526 499.284 199.445C501.813 211.526 499.064 223.607 497.745 235.578C495.875 252.821 496.315 269.954 499.284 287.087C500.713 295.543 497.635 304 498.074 312.347C498.844 327.942 494.996 343.428 495.546 358.803C496.095 376.815 493.786 394.387 491.367 411.85C489.278 427.335 483.781 442.601 473.885 455.012C466.409 464.347 460.691 474.89 452.885 483.896C445.298 492.572 435.843 498.832 426.387 505.202C414.952 512.89 401.428 516.295 389.773 523.214C379.328 529.364 367.673 532.879 356.569 537.491C351.621 539.578 345.793 539.578 340.736 542.104C338.867 542.983 336.997 543.971 335.788 545.728C334.139 548.254 331.94 549.792 328.751 548.804C326.552 548.145 325.233 546.497 325.013 544.301C324.683 541.006 326.332 538.59 329.301 537.272C334.359 534.965 339.306 532.33 344.584 530.792C360.417 526.179 375.37 519.59 389.664 511.572C394.062 509.156 398.679 507.069 403.297 505.312C414.952 500.919 424.958 493.671 434.413 486.092C443.429 478.844 449.586 468.74 455.634 458.746C457.833 455.012 460.252 451.497 463.44 448.532C466.189 445.896 468.388 442.601 469.597 438.977C472.676 430.41 477.074 422.283 479.603 413.497C481.362 407.457 481.142 401.197 482.022 395.046C484.441 379.012 484.001 362.757 484.551 346.283L484.66 346.064ZM390.103 18.8902C391.533 21.4162 392.962 24.052 394.501 26.4682C399.449 34.1561 404.837 41.6243 407.366 50.6301C409.015 56.5607 410.884 62.4913 414.622 67.6532C416.381 70.0694 417.151 73.2543 417.591 76.4393C418.47 83.1387 419.57 89.7283 420.45 96.4277C420.67 97.9653 420.56 99.3931 422.759 99.8324C427.376 100.711 431.665 102.358 436.282 103.347C443.759 104.775 451.456 104.555 458.712 107.301C465.419 109.827 472.456 110.266 479.493 111.035C484.441 111.584 484.77 109.607 483.671 106.092C479.933 95.1098 476.524 83.9075 467.178 76.1098C459.372 69.6301 452.555 61.9422 444.199 56.0116C440.241 53.2659 436.392 50.1908 433.094 46.6763C422.209 34.9249 408.465 27.3468 395.051 19.2197C393.732 18.4509 392.192 18.1214 390.103 19V18.8902Z" fill="black"/>
<path d="M152.941 139.809C158.218 136.075 163.606 132.56 168.883 128.607C181.308 119.491 193.622 110.266 205.827 100.93C213.413 95.1096 218.471 96.757 220.45 106.202C220.78 107.52 220.78 108.508 222.429 108.618C228.147 109.058 230.785 112.462 230.675 117.953C230.675 122.456 225.508 128.936 221 128.826C213.523 128.716 208.795 133.11 203.958 137.393C189.664 149.803 175.81 162.543 163.056 176.381C162.506 177.04 161.847 177.699 161.297 178.248C156.569 182.641 152.501 183.63 148.873 180.994C144.365 177.699 144.914 173.416 147.223 168.474C146.014 169.352 145.244 169.901 144.475 170.341C140.626 172.757 136.888 172.977 133.589 169.682C130.401 166.497 130.511 162.653 132.93 159.248C134.689 156.722 134.469 155.953 131.72 154.526C126.553 151.89 125.893 146.289 130.181 142.006C141.396 130.913 152.281 119.601 164.925 110.046C176.91 100.93 188.565 91.3755 200.219 81.8205C203.848 78.8552 207.696 77.4275 212.204 79.5142C215.392 81.0518 216.492 83.9072 216.052 87.3119C215.612 91.1558 213.413 94.2309 209.895 94.7801C202.968 95.8783 197.91 100.052 192.853 104.115C181.088 113.56 169.653 123.335 158.108 133C156.129 134.757 154.48 136.844 152.611 138.821C152.831 139.15 153.161 139.37 153.381 139.699L152.941 139.809ZM163.496 150.901C161.077 152.329 158.658 155.844 156.019 159.358C158.878 156.173 161.737 152.988 163.496 150.901Z" fill="black"/>
<path d="M202.308 361.219C200.769 357.925 198.68 355.728 196.041 353.861C194.502 352.763 193.402 352.653 191.973 354.081C187.575 358.474 182.517 358.803 177.349 355.618C171.852 352.214 169.103 347.271 169.763 340.792C170.093 337.936 170.093 334.532 171.632 332.225C176.69 324.537 175.37 316.3 174.601 308.173C172.951 290.711 178.229 274.676 184.716 258.971C187.575 252.052 195.931 251.283 202.088 256.774C207.696 261.717 210.774 268.416 215.062 274.237C216.712 276.433 218.141 278.85 219.79 281.046C222.979 285.439 222.649 289.942 219.021 292.468C215.282 295.104 210.005 293.896 207.586 289.173C204.947 284.121 203.078 278.74 200.989 273.468C200.769 272.809 200.549 272.15 200.329 271.491C198.9 268.196 197.36 263.693 193.842 263.474C191.093 263.364 190.983 268.416 189.774 271.052C183.507 283.902 181.198 297.52 182.297 311.798C182.517 314.433 182.847 316.3 186.036 315.641C186.475 315.641 187.135 315.532 187.575 315.641C192.962 319.046 194.612 314.873 196.591 311.248C196.151 309.821 194.722 310.15 193.732 309.601C189.444 307.404 187.685 303.341 189.444 299.277C191.203 295.104 195.931 293.347 200.329 295.433C202.308 296.422 204.067 297.959 205.717 299.387C206.596 300.156 207.256 301.364 208.245 302.023C221 311.029 218.361 324.098 217.591 336.728C217.371 339.693 215.392 341.561 212.314 341.231C209.015 340.902 207.696 338.485 207.696 335.41C207.696 332.006 208.026 328.491 208.026 325.087C208.026 323.988 208.135 322.341 206.376 322.561C205.277 322.67 204.617 323.878 204.947 324.977C206.926 331.896 200.549 335.52 198.79 341.011C198.35 342.439 196.041 343.647 197.36 345.404C199.23 347.821 201.758 350.017 204.837 350.676C207.696 351.225 206.596 348.37 207.256 347.052C208.575 344.416 210.554 342.988 213.413 343.208C216.822 343.537 219.24 345.624 219.35 348.809C219.79 357.266 220.34 365.722 219.57 374.069C218.691 382.416 212.094 386.26 203.737 384.832C194.282 383.185 190.324 378.572 191.423 370.335C192.193 364.514 194.941 362.098 202.418 361.11L202.308 361.219ZM181.528 338.925C179.658 342.549 178.999 345.514 182.297 348.15C183.507 349.139 184.716 349.468 185.926 348.26C187.135 347.162 187.025 345.954 185.926 344.636C184.606 342.988 183.287 341.231 181.528 338.925ZM208.575 372.202C210.444 369.237 210.664 366.052 209.455 363.196C208.905 361.769 206.816 362.428 204.947 363.196C207.476 365.722 208.026 369.017 208.575 372.202Z" fill="black"/>
<path d="M942.932 75.5606C943.812 75.2312 944.472 75.0115 945.131 74.682C950.519 72.7051 954.367 73.6936 956.456 77.5375C958.545 81.6011 957.006 85.9942 952.168 88.8497C943.702 93.682 935.566 98.8439 930.398 107.52C928.529 110.705 925.011 111.144 921.602 109.827C918.304 108.509 917.094 105.763 917.204 102.358C917.204 99.0635 918.963 96.4277 921.162 94.1213C925.011 89.9479 929.189 86.104 934.686 82.1502C930.838 81.4913 928.749 83.0288 926.88 84.4566C922.152 87.971 917.314 91.3757 913.906 96.3179C913.356 97.1965 912.586 98.2947 911.707 98.4046C905.659 99.6127 898.732 101.26 893.565 98.4046C889.167 95.8786 882.46 97.526 880.041 91.2658C879.601 90.1676 878.392 91.7051 877.512 92.1445C874.104 94.1213 870.805 94.0115 868.056 91.0462C865.418 88.0809 865.308 84.3468 867.727 81.4913C875.533 72.4855 882.68 62.8208 891.916 55.2427C895.764 52.0577 899.942 51.289 904.67 54.5838C908.518 57.3294 914.565 57.3294 915.115 63.8092C915.115 64.0288 916.105 64.3583 916.434 64.1387C920.942 62.6011 924.131 63.919 926.55 67.8728C927.759 69.7398 929.299 67.9826 930.728 67.6531C938.095 65.4566 941.503 67.5433 942.932 75.5606Z" fill="black"/>
<path d="M175.59 191.208C174.381 191.867 173.501 192.416 172.622 192.855C167.784 195.052 162.946 193.844 160.747 190C158.438 185.936 160.307 182.202 164.815 178.688C173.391 172.208 181.858 165.618 189.774 158.37C197.8 151.121 206.926 145.52 215.612 139.15C221.989 134.428 228.916 130.364 235.513 126.081C236.503 125.422 237.492 124.763 238.592 124.214C242.77 122.457 247.058 123.884 248.707 127.728C250.576 132.012 249.037 135.416 245.189 137.393C232.435 143.653 220.56 151.451 209.125 159.908C199.999 166.717 191.863 174.624 183.837 182.642C184.057 182.971 184.386 183.301 184.606 183.63C191.093 178.798 197.58 173.746 204.177 169.133C216.052 160.786 228.037 152.549 240.131 144.532C243.869 142.006 248.048 142.116 251.676 145.191C254.095 147.277 255.084 150.023 254.205 153.098C253.435 156.064 251.456 158.15 248.487 158.37C244.089 158.699 240.571 160.896 237.162 163.092C223.419 172.098 209.895 181.543 198.02 192.965C196.371 194.503 194.832 196.15 193.072 197.468C185.376 203.179 178.339 200.873 175.59 191.098V191.208Z" fill="black"/>
<path d="M841.119 65.6765C837.38 68.3123 835.841 70.5089 835.401 73.6938C834.852 77.8672 832.323 80.1736 828.365 80.9424C824.296 81.7112 821.108 80.2834 819.569 76.2198C818.689 73.8036 817.37 74.243 815.61 74.6823C812.532 75.451 809.673 74.7921 807.804 72.1563C805.605 69.1909 805.605 65.7863 807.694 62.9308C812.972 55.243 818.359 47.5551 824.076 40.1967C827.815 35.3643 834.412 35.9135 836.831 41.4048C838.81 45.688 840.019 43.3817 841.669 41.7343C843.868 39.4279 846.396 36.3528 849.475 37.4511C854.973 39.5378 860.47 41.7343 865.968 43.6013C867.177 44.0406 867.947 45.9077 868.936 47.1158C869.266 46.8961 869.596 46.7863 869.706 46.5667C873.994 41.295 878.062 40.0869 881.91 43.162C885.868 46.2372 885.978 51.6187 882.13 56.5609C877.732 62.0522 872.015 66.4453 868.386 72.7054C866.627 75.8904 864.538 78.8557 863.329 82.2603C861.46 87.3123 857.611 89.0695 852.554 86.873C850.465 85.9944 849.475 86.4337 848.046 87.7516C845.407 90.2776 842.218 90.7169 839.03 88.8499C835.621 86.873 834.742 83.5782 835.401 79.8441C836.171 75.2314 838.7 71.2776 841.009 65.4568L841.119 65.6765Z" fill="black"/>
<path d="M335.348 245.242C326.882 248.318 322.704 254.468 317.756 259.52C314.787 262.595 312.478 266.329 309.729 269.734C306.101 274.346 301.593 275.335 297.525 272.589C293.787 269.953 292.357 264.023 295.546 260.069C307.311 245.572 318.745 230.526 339.306 227.89C346.453 226.901 353.49 227.67 360.416 228.878C365.144 229.757 369.542 237.884 369.432 243.924C369.212 252.052 364.375 258.531 361.296 265.56C358.987 270.832 354.259 274.896 354.039 281.265C354.039 282.693 352.72 284.341 351.181 284.78C345.023 286.757 338.756 288.075 332.599 285.109C329.081 283.352 328.421 279.948 328.311 276.323C328.311 266 331.17 256.225 335.238 245.352L335.348 245.242Z" fill="black"/>
<path d="M952.828 352.983C941.283 352.104 932.377 356.058 925.121 364.185C921.822 367.809 916.764 368.029 913.576 364.844C910.277 361.659 910.057 356.387 914.016 353.422C924.571 345.405 935.786 338.486 949.969 339.804C954.807 340.243 959.865 339.364 964.373 341.122C975.588 345.624 984.823 352.983 990.761 363.416C997.028 374.399 1000.99 386.48 1003.08 399C1005.49 413.168 1002.86 425.908 993.4 437.33C984.713 447.873 974.708 455.781 960.744 457.428C951.838 458.526 943.592 456.22 935.566 452.596C932.157 451.058 929.738 448.202 928.639 444.578C927.429 440.624 926.55 436.561 925.121 432.717C924.131 430.081 925.23 427.555 927.539 425.908C929.409 424.59 931.498 424.59 933.367 425.908C935.786 427.665 936.116 429.971 935.346 432.827C933.587 438.757 936.555 443.15 942.383 444.798C961.514 450.07 976.357 443.37 988.452 428.873C994.279 421.844 996.368 413.387 994.829 404.491C992.52 391.312 988.452 378.353 980.975 367.37C974.488 357.815 964.923 351.665 952.828 353.093V352.983Z" fill="black"/>
<path d="M966.682 164.63C961.514 163.751 957.446 164.19 953.378 164.959C949.42 165.728 945.791 165.289 943.482 161.225C940.514 155.953 936.336 150.792 942.383 145.081C948.43 139.37 954.807 133.988 961.734 129.485C966.242 126.63 970.75 127.508 973.169 131.352C975.478 135.086 974.049 139.699 969.431 142.225C964.483 144.971 959.535 147.826 955.467 152C962.724 152.878 968.111 148.485 974.049 145.959C979.436 143.653 984.714 140.907 989.991 138.381C995.379 135.855 999.667 136.844 1001.54 141.127C1003.41 145.52 1000.44 150.792 995.049 152.329C991.86 153.208 988.672 153.867 985.483 154.526C983.064 155.075 981.415 156.173 981.085 159.358C986.583 158.589 991.091 156.063 995.929 154.306C999.997 152.878 1003.85 153.427 1006.92 156.612C1009.45 159.248 1009.56 162.543 1008.24 165.838C1007.69 167.046 1006.81 168.144 1006.15 169.352C1014.73 175.173 1014.84 184.508 1006.37 189.78C1003.08 191.757 999.557 192.196 996.808 189.451C994.499 187.034 992.63 187.913 990.541 189.231C988.232 190.659 986.033 192.526 983.174 193.075C979.436 193.734 976.138 193.075 974.378 189.341C972.729 185.936 973.939 182.861 976.577 180.555C978.776 178.578 981.305 176.491 984.384 176.82C990.321 177.479 993.95 173.855 999.337 169.901C991.641 169.023 986.253 171.329 981.085 174.734C979.326 175.832 977.897 177.479 975.918 178.138C971.74 179.566 967.562 179.676 964.593 175.832C961.624 171.988 963.054 168.364 966.682 164.74V164.63Z" fill="black"/>
<path d="M298.625 313.335C311.159 315.312 322.264 320.035 330.84 329.809C334.029 333.433 334.139 338.046 331.83 342C327.212 349.798 323.583 358.364 315.337 363.526C312.588 365.173 310.06 367.04 306.871 366.931C294.996 366.381 284.991 362.318 278.504 351.665C277.294 349.688 276.855 347.491 276.965 345.185C277.184 336.618 279.054 328.491 283.781 321.133C287.3 315.751 292.028 312.896 298.735 313.335H298.625ZM292.028 335.3C291.698 336.948 291.588 338.815 290.818 340.243C288.619 344.306 290.268 347.381 293.237 349.798C297.085 352.983 302.253 355.399 306.651 353.532C313.908 350.457 316.876 343.208 319.955 335.191C318.526 336.069 317.976 336.179 317.646 336.509C315.227 338.815 312.918 341.011 310.609 343.318C307.751 346.393 304.012 346.613 300.494 345.405C295.656 343.867 293.017 340.133 292.028 335.081V335.3Z" fill="black"/>
<path d="M696.314 467.642C684.989 466.434 668.277 460.503 654.423 447.983C651.015 444.908 648.706 440.954 649.915 436.012C650.795 432.278 653.214 429.971 657.062 429.532C660.69 429.093 663.439 430.74 665.198 433.925C670.476 443.26 678.392 448.861 688.618 451.937C704.121 456.659 718.634 454.243 732.818 447.653C735.346 446.555 737.985 445.457 740.624 445.017C744.252 444.359 747.221 445.896 748.54 449.411C749.86 453.145 748.54 456.439 745.022 458.087C731.828 464.457 718.194 469.069 696.314 467.752V467.642Z" fill="black"/>
<path d="M433.754 234.26C449.916 234.479 456.843 244.693 452.995 256.994C450.796 264.023 448.817 271.162 445.298 277.641C442.879 282.034 439.031 284.56 434.853 283.572C429.905 282.364 428.806 278.52 428.806 274.017C428.806 267.537 431.665 261.607 432.214 255.237C432.654 250.953 431.335 250.734 428.036 252.381C425.068 253.809 422.539 255.676 420.45 258.422C416.711 263.364 411.434 264.242 407.475 260.948C403.627 257.763 403.297 251.942 407.036 247.439C415.062 237.884 425.947 234.699 433.864 234.26H433.754Z" fill="black"/>
<path d="M388.344 411.41C378.119 409.433 365.035 408.225 353.49 401.526C350.081 399.549 346.013 398.67 342.935 396.034C337.987 391.971 336.777 386.479 340.076 382.416C343.484 378.352 348.652 378.572 353.6 383.185C356.129 385.601 359.317 387.248 362.396 388.566C373.721 393.399 385.595 396.803 398.129 396.034C404.177 395.595 409.564 392.19 415.062 389.664C418.36 388.127 421.549 387.029 424.847 389.555C427.156 391.312 428.036 393.728 427.376 396.474C426.497 400.318 423.748 402.295 420.12 403.063C415.502 403.942 411.214 405.699 407.145 408.115C402.198 410.971 396.59 411.3 388.454 411.41H388.344Z" fill="black"/>
<path d="M977.347 223.387C975.258 223.168 973.609 223.278 972.179 222.838C968.001 221.63 965.802 218.775 965.802 214.491C965.802 210.647 967.561 207.133 971.52 207.023C976.907 206.913 980.865 203.838 985.373 201.971C989.881 200.104 994.059 197.798 998.457 195.711C1000.66 194.723 1003.08 194.064 1005.49 194.503C1009.67 195.272 1012.64 197.468 1012.75 201.971C1012.86 206.474 1010.22 209.11 1005.93 209.659C997.798 210.757 991.091 214.711 984.164 219.653C988.342 222.728 992.08 223.607 996.368 220.532C999.337 218.445 1002.75 217.567 1006.15 219.434C1009.56 221.301 1010.99 224.376 1010.33 228.11C1009.67 231.844 1007.25 234.041 1003.63 234.041C1000.55 234.041 998.018 235.029 995.379 236.676C992.08 238.653 988.452 239.861 984.494 239.752C976.907 239.642 973.169 234.37 975.698 227.121C976.138 226.023 976.687 224.925 977.347 223.387Z" fill="black"/>
<path d="M950.739 408.775C950.409 410.971 951.289 413.277 951.618 415.694C952.168 419.428 951.398 422.613 947.99 424.699C945.241 426.457 942.383 426.457 939.634 424.699C936.335 422.503 935.566 419.208 936.335 415.584C938.095 406.798 939.744 398.011 941.943 389.225C943.592 382.526 947.99 378.243 955.137 376.925C958.215 376.376 961.184 375.277 964.153 374.838C967.231 374.399 970.09 375.168 971.739 378.133C972.949 380.22 972.839 382.416 971.519 384.503C969.65 387.468 966.901 387.907 963.823 387.248C961.404 386.809 959.095 386.04 956.676 386.59C955.577 386.809 954.697 387.468 954.367 388.457C954.037 389.774 955.357 389.994 956.236 390.433C959.315 392.081 962.174 394.058 965.362 395.266C975.917 399.439 976.137 412.509 971.08 421.075C969.98 422.942 968.441 424.699 966.791 426.237C964.592 428.214 961.844 428.653 959.095 427.225C956.786 426.017 955.577 423.931 955.906 421.185C956.236 418 958.105 415.803 961.184 415.694C965.472 415.474 965.692 412.399 966.022 409.543C966.352 406.798 965.252 404.491 962.174 403.613C961.294 403.393 960.634 402.954 959.755 402.624C952.168 399.549 950.849 400.318 950.739 408.665V408.775Z" fill="black"/>
<path d="M954.477 110.925C946.231 113.78 940.294 119.601 935.236 126.41C931.278 131.682 926.77 132.89 923.142 129.485C919.623 126.19 919.953 120.809 924.351 116.745C930.398 111.144 935.896 104.774 943.042 100.381C945.241 99.0633 947.44 97.5257 949.749 96.5373C953.488 94.9997 957.556 94.1211 961.074 96.9766C964.373 99.7223 963.933 103.347 962.504 106.751C963.933 107.849 965.142 106.971 966.242 107.081C970.53 107.3 973.609 109.167 974.488 113.56C975.258 117.953 973.059 121.138 968.991 122.347C963.383 123.994 958.655 126.63 954.807 131.242C951.948 134.757 947.331 134.977 944.142 132.451C940.844 129.815 940.294 125.202 943.042 121.248C946.011 116.965 950.739 114.439 954.477 110.815V110.925Z" fill="black"/>
<path d="M739.744 223.607C740.294 223.717 741.504 223.607 742.273 224.157C754.918 230.966 769.321 232.174 782.625 237.006C789.662 239.642 796.259 243.486 802.966 247C805.495 248.318 807.034 250.735 807.474 253.59C808.024 257.324 806.924 260.619 803.296 262.266C799.997 263.804 797.029 262.816 794.39 260.29C788.672 254.908 782.185 250.844 774.379 249.307C763.824 247.33 753.378 245.133 742.823 243.157C738.315 242.278 734.687 240.081 732.488 236.128C729.409 230.417 733.037 223.827 739.744 223.607Z" fill="black"/>
<path d="M346.783 107.41C340.406 107.41 336.997 104.774 336.777 100.161C336.557 95.4388 339.966 92.9128 345.463 92.0342C359.977 89.618 374.93 88.6296 387.904 80.2828C391.422 78.0862 395.051 78.6354 397.69 81.9302C400.548 85.4446 399.889 89.1787 396.92 92.2539C392.742 96.5371 387.354 98.514 381.637 99.2828C371.631 100.601 362.066 103.346 352.5 106.312C350.411 106.971 348.102 107.08 346.893 107.3L346.783 107.41Z" fill="black"/>
<path d="M689.498 333.872C689.608 343.427 680.042 354.849 671.246 356.167C666.408 356.936 661.35 353.641 660.251 348.919C659.811 347.161 659.151 345.624 658.492 344.086C656.733 340.023 657.392 335.959 660.471 333.104C667.068 326.843 675.314 325.416 684 327.063C687.629 327.722 689.168 330.797 689.388 333.872H689.498Z" fill="black"/>
<path d="M981.415 243.376C988.342 247.11 993.73 240.96 999.997 239.422C1002.86 238.763 1005.49 237.336 1008.57 237.885C1013.3 238.544 1016.82 243.047 1015.94 247.55C1015.06 251.833 1011.21 254.578 1006.48 253.151C1001.43 251.613 998.238 254.798 994.499 256.555C990.211 258.532 985.923 260.399 981.086 259.74C976.028 258.972 972.839 254.578 973.719 249.636C974.378 246.012 977.457 243.376 981.415 243.376Z" fill="black"/>
<path d="M988.562 283.572C986.913 283.023 985.264 282.693 983.614 282.034C978.227 279.948 976.138 276.433 977.567 272.26C978.997 268.196 983.175 266.549 988.452 268.526C990.541 269.295 991.861 269.075 993.62 268.086C998.788 265.231 1004.18 262.925 1010 261.826C1016.27 260.618 1021.11 264.352 1020.56 269.844C1020.23 273.358 1018.14 276.104 1014.73 276.214C1007.03 276.433 1000.22 278.52 993.62 282.474C992.191 283.352 990.321 283.352 988.562 283.792V283.572Z" fill="black"/>
<path d="M394.501 345.295C387.464 345.295 383.726 339.255 386.585 333.654C389.114 328.602 392.192 323.769 395.491 319.156C397.91 315.752 401.758 314.763 405.716 316.74C409.564 318.607 411.434 321.792 410.554 326.076C410.114 328.162 409.894 330.139 410.224 332.226C410.444 333.763 410.334 335.63 409.125 336.619C404.397 340.463 398.899 343.099 394.501 345.405V345.295Z" fill="black"/>
<path d="M1013.41 326.295C1013.41 330.798 1010.22 334.092 1005.38 333.653C999.227 332.994 993.07 332.115 987.022 330.907C983.064 330.029 979.656 327.832 978.226 323.659C977.017 320.035 977.677 316.74 980.865 314.433C984.054 312.127 987.572 312.237 990.321 315.092C994.059 319.046 998.237 319.266 1003.08 318.497C1008.79 317.509 1013.41 321.133 1013.41 326.404V326.295Z" fill="black"/>
<path d="M1022.21 300.924C1022.21 305.318 1018.14 308.722 1013.74 307.514C1009.01 306.306 1004.28 305.757 999.557 305.098C995.819 304.549 992.63 302.792 991.091 299.167C989.331 295.213 989.991 291.589 993.729 289.173C997.358 286.867 1000.99 287.635 1003.3 291.04C1005.38 294.115 1007.69 294.005 1010.77 293.346C1016.93 291.809 1022.32 295.543 1022.21 301.034V300.924Z" fill="black"/>
<path d="M959.535 181.434C965.692 181.434 969.211 184.289 969.211 188.353C969.211 192.965 966.462 195.162 961.954 195.491C957.556 195.821 953.598 197.249 949.749 199.335C945.131 201.752 940.843 200.653 939.194 196.699C937.435 192.746 939.524 188.682 944.582 187.364C950.299 185.827 954.917 181.653 959.645 181.543L959.535 181.434Z" fill="black"/>
<path d="M687.848 488.179C683.89 485.324 677.953 485.543 673.555 482.029C670.146 479.283 669.597 475.439 671.576 471.705C673.665 467.861 677.293 466.434 681.361 467.971C685.319 469.509 689.278 471.595 692.796 473.902C695.985 475.989 697.084 479.393 695.875 483.127C694.775 486.422 692.246 488.069 687.848 488.069V488.179Z" fill="black"/>
<path d="M966.132 205.595C966.132 210.647 962.943 213.283 959.315 215.479C955.907 217.566 952.168 218.335 948.54 216.358C945.681 214.821 944.472 212.294 944.912 209C945.571 204.497 955.467 197.468 959.975 198.456C963.823 199.335 965.802 201.861 966.132 205.485V205.595Z" fill="black"/>
<path d="M740.624 284.451C742.273 284.781 745.132 284.89 747.661 285.879C756.017 289.393 764.923 290.821 773.719 292.908C779.547 294.336 784.274 296.971 788.233 301.364C790.981 304.44 793.73 307.405 797.688 309.162C801.097 310.7 801.976 314.214 799.887 317.509C797.688 321.023 794.17 321.792 790.871 319.596C787.683 317.509 784.824 314.873 782.405 312.018C776.798 305.318 768.552 305.428 761.185 303.451C758.656 302.792 758.876 304.879 758.766 306.307C758.546 310.26 757.667 314.214 756.347 317.948C754.478 323.44 750.63 326.515 745.682 326.185C740.294 325.856 738.205 322.122 735.677 317.729C731.828 310.7 733.038 302.682 729.299 295.653C726.331 290.052 732.048 284.231 740.514 284.231L740.624 284.451Z" fill="black"/>
</g>
<defs>
<clipPath id="clip0_47_149">
<rect width="1022.21" height="570" fill="white"/>
</clipPath>
</defs>
</svg>
