<svg width="366" height="196" viewBox="0 0 366 196" fill="none" xmlns="http://www.w3.org/2000/svg">
<g clip-path="url(#clip0_202_51)">
<path d="M36.6043 75.4124C35.765 76.0295 35.1078 76.5833 35.1791 77.5169C35.3849 80.3018 34.6486 82.9918 34.2131 85.6897C33.7222 88.7436 32.1228 91.4811 31.0697 94.3768C30.1196 96.9876 28.4568 98.7836 26.0578 99.9703C23.1044 101.434 18.9001 100.587 16.7068 98.2851C12.9142 94.3135 11.4336 89.337 10.0321 84.2023C9.31162 81.5756 8.58319 78.9252 7.77557 76.3222C7.21341 74.5263 7.20549 72.6828 7.01546 70.9106C6.69875 68.0149 5.39232 65.3882 5.24188 62.4451C5.0756 59.2171 4.16506 56.0366 3.53955 52.8561C3.27827 51.5427 2.42314 50.1028 1.43342 48.9081C-0.601453 46.4555 -0.79148 41.4474 3.08824 38.8444C5.41607 37.2858 11.0694 39.2638 11.687 41.9854C12.0512 43.6152 12.1699 45.4428 12.7004 46.8986C13.5001 49.0901 13.3259 51.3766 14.0465 53.4416C14.672 55.2217 14.8462 57.1126 14.9412 58.7899C15.1312 62.1207 16.3743 65.1904 16.6593 68.4738C16.9523 71.7967 17.7916 75.0801 18.5517 78.3634C18.9555 80.1119 19.7948 81.6705 20.1511 83.419C20.5074 85.128 20.8716 86.9318 21.9247 88.4351C24.0941 87.7705 23.6824 85.5948 24.205 84.1153C24.8859 82.1848 25.0284 80.017 25.0918 77.9441C25.1789 75.1829 25.4798 72.3347 26.2319 69.8346C27.6572 65.1271 27.6967 60.2614 28.7656 55.554C29.597 51.875 33.936 49.5173 37.2139 51.2579C38.9321 52.1678 40.2939 53.8767 40.4919 55.91C40.7611 58.7187 41.4579 61.4878 42.4001 64.0116C43.5561 67.0972 43.952 70.4438 45.6305 73.3316C47.127 75.9029 48.8293 78.3318 50.595 80.7211C51.0305 81.3066 51.5451 81.7101 52.4398 81.4886C53.4058 81.2512 53.1762 80.5392 53.2791 79.9537C54.9181 70.5467 54.1342 61.0684 53.7859 51.6456C53.6354 47.5394 53.9125 43.275 52.9941 39.3033C52.131 35.5453 52.2894 31.8109 51.8222 28.0924C51.4739 25.3391 52.907 22.6254 55.1081 22.1191C58.6157 21.32 60.3576 22.9102 61.0702 26.3439C61.2523 27.23 61.1732 28.1874 61.1415 29.1051C60.9277 35.1576 61.5215 41.2259 62.2737 47.1517C63.3031 55.2771 63.7544 63.3787 63.9048 71.5356C63.9681 74.906 63.6594 78.3476 62.8438 81.4569C61.9412 84.9223 61.0782 89.0205 57.0638 90.7611C54.0076 92.0824 50.7929 92.0428 47.8 90.7611C43.9203 89.1076 42.123 85.3732 39.9852 82.0503C38.655 79.9853 37.2693 77.9441 36.5884 75.3886L36.6043 75.4124Z" fill="black"/>
<path d="M253.092 38.6391C251.707 39.8813 249.957 40.3797 248.912 41.9462C248.009 43.2991 246.813 44.478 246.243 46.0445C245.57 47.8958 243.797 48.9956 243.227 51.0447C242.878 52.3106 242.364 53.7742 242.277 54.9214C242.086 57.3661 240.994 59.5102 240.717 61.8916C240.345 65.0959 237.051 67.3428 233.781 66.4488C232.284 66.0374 230.186 63.1971 230.146 61.4723C230.075 58.4421 230.028 55.412 230.123 52.3897C230.202 49.9924 229.933 47.5477 229.117 45.4432C228.262 43.2358 227.557 40.7516 225.625 39.0347C224.81 38.3068 221.896 38.3147 220.906 38.9714C218.048 40.8465 216.908 43.6868 215.578 46.7012C214.54 49.0509 215.475 50.6966 215.649 52.7062C215.958 56.2348 215.704 59.8109 215.887 63.3632C216.053 66.6229 214.77 69.2575 213.123 71.9316C211.777 74.1152 206.266 74.2418 204.627 72.343C203.083 70.555 202.228 68.5612 202.268 66.164C202.339 61.6227 202.347 57.0813 202.347 52.54C202.347 50.4197 202.981 48.4417 203.63 46.4717C203.946 45.5065 203.939 44.5254 203.946 43.5444C203.978 39.0031 203.939 34.4617 204.034 29.9204C204.073 28.2036 204.572 26.5896 205.863 25.2842C208.792 22.3331 213.092 22.6179 215.538 25.9962C215.681 26.194 215.752 26.4867 215.752 26.732C215.72 29.153 217.019 28.52 218.586 28.2036C222.197 27.4757 226.093 26.8744 229.347 28.7732C232.348 30.5217 235.467 32.6025 236.647 36.3526C236.789 36.8036 237.075 37.6581 237.653 37.5948C238.199 37.5394 238.848 37.0568 239.189 36.5742C241.128 33.813 243.456 31.5898 246.283 29.6119C249.965 27.0406 253.829 27.3887 257.621 27.9979C260.155 28.4093 262.245 30.5296 263.116 33.0614C264.605 37.4128 265.587 41.8829 265.381 46.5825C265.167 51.5115 265.389 56.4563 265.286 61.3932C265.254 63.0784 265.484 64.7082 266.299 66.0769C267.035 67.3191 267.107 68.5533 267.02 69.835C266.822 72.881 265.191 73.9491 262.554 74.2577C259.648 74.5979 256.988 72.1531 256.932 69.2337C256.845 64.7161 256.291 60.2302 255.958 55.7363C255.713 52.4846 256.053 49.0668 255.159 46.0128C254.446 43.5839 254.85 40.8148 253.092 38.6312V38.6391Z" fill="black"/>
<path d="M42.3605 195.829C41.1728 195.829 39.9693 195.71 38.8054 195.852C36.2717 196.169 34.3872 194.784 32.5503 193.471C30.5392 192.039 31.2122 187.355 33.2471 185.884C35.6145 184.167 37.681 184.483 40.3256 185.44C42.3842 186.184 44.9417 186.374 47.2932 185.053C48.7501 184.23 50.5554 184.095 51.9885 182.996C53.5958 181.762 54.6172 180.1 55.5198 178.415C56.9609 175.733 57.3884 172.505 58.7186 169.949C60.3259 166.84 58.196 166.009 56.8342 165.068C54.3559 163.359 52.5031 161.104 50.4049 159.063C48.758 157.465 47.1428 155.819 45.6859 154.055C44.0074 152.021 42.1625 150.146 40.6265 147.955C38.7579 145.296 36.6913 142.678 33.8884 140.771C31.5052 139.149 30.658 136.095 31.616 133.437C32.772 130.225 38.8212 125.66 42.8434 127.938C44.3874 128.808 45.3217 129.979 45.7255 131.506C46.1135 132.954 46.1452 134.6 45.6067 135.992C45.1792 137.1 45.4563 138.295 45.9076 138.714C48.7897 141.412 50.2149 145.162 52.9941 147.979C54.6568 149.664 56.3591 151.475 57.8081 153.43C58.3227 154.126 59.1858 154.64 59.9617 154.324C60.5793 154.071 60.2547 153.113 60.2072 152.504C59.6925 146.61 59.6292 140.692 59.455 134.782C59.3837 132.487 59.6925 130.446 61.8699 129.03C62.9625 128.318 66.391 127.55 67.3569 128.31C69.5343 130.035 71.6009 131.728 71.1258 135.106C69.8906 143.857 70.4765 152.686 70.2073 161.476C68.5129 164.142 69.368 167.283 68.6159 170.155C67.9666 172.639 67.7528 175.29 66.6997 177.64C65.3933 180.567 64.2215 183.542 62.2816 186.224C60.8327 188.225 59.3837 190.148 57.4359 191.596C55.6544 192.925 53.4295 193.495 51.458 194.491C48.5205 195.971 45.4405 195.726 42.3605 195.821V195.829Z" fill="black"/>
<path d="M93.628 44.2323C93.4301 46.8036 94.2615 49.4461 93.1134 51.9779C91.8861 54.7074 90.065 56.9464 87.753 58.7978C85.5202 60.5779 83.0895 61.8438 80.1203 61.8833C78.6713 61.8992 78.3309 63.1176 78.3229 64.2015C78.2992 69.265 77.9191 74.3285 78.2042 79.3999C78.2517 80.286 78.6159 80.9664 79.2652 81.3462C80.0253 81.7971 80.6825 81.2354 81.3396 80.7607C83.0736 79.5106 83.9604 77.7463 84.5067 75.7763C85.1956 73.2762 89.2178 71.0056 91.7119 71.773C94.2377 72.5483 95.4571 75.9899 94.7128 78.8065C93.5647 83.1026 90.2788 85.5789 87.2938 88.3164C83.5883 91.7184 79.1226 92.4621 74.6887 90.4446C71.5453 89.0126 69.0591 86.3464 68.3782 82.6753C67.8477 79.7955 67.3014 76.8919 67.5468 73.9171C68.1327 66.9389 68.3149 59.9054 69.36 52.9985C69.7796 50.1977 70.7298 47.31 71.4661 44.4776C72.2104 41.5977 73.6514 39.0422 74.6966 36.3127C76.9136 30.5055 84.5067 27.5861 89.6771 30.8299C92.1712 32.3964 93.3192 35.3237 93.5964 38.3223C93.7785 40.2765 93.628 42.2702 93.628 44.2402V44.2323ZM85.061 38.5675C83.5012 40.4663 82.2423 41.8984 81.6247 43.9475C81.1734 45.4507 81.2288 47.0331 80.6112 48.4651C80.247 49.3116 79.764 50.4035 80.6112 50.9494C81.4505 51.4874 82.6461 51.0047 83.2478 50.2136C83.9525 49.28 85.1718 48.5917 85.2352 47.3021C85.3619 44.5567 85.4648 41.8034 85.061 38.5754V38.5675Z" fill="black"/>
<path d="M111.578 150.447C111.403 152.884 111.799 155.368 110.675 157.749C109.551 160.123 107.84 161.848 105.75 163.343C102.741 165.495 99.1388 166.531 96.0825 168.596C95.7421 168.826 95.1878 168.81 94.7365 168.818C92.955 168.873 91.1814 168.85 89.3999 168.929C84.6493 169.134 80.9437 167.022 78.1171 163.478C76.6444 161.626 75.3775 159.474 75.4409 156.887C75.4646 155.7 75.5517 154.498 75.3854 153.335C74.9341 150.186 76.4147 147.441 77.0561 144.521C77.4995 142.496 78.0062 140.462 79.0355 138.714C80.1994 136.744 80.7379 134.473 82.4085 132.701C83.4695 131.585 84.1979 130.106 85.4173 129.046C87.6738 127.084 90.8251 125.826 93.5726 127.258C95.2591 128.136 96.4547 129.536 96.8743 131.214C97.294 132.907 98.4025 133.136 99.6693 133.627C102.939 134.908 105.829 136.791 108.308 139.339C111.38 142.496 111.855 146.333 111.57 150.447H111.578ZM85.3064 153.715C85.3064 154.26 85.3064 154.522 85.3064 154.79C85.2827 158.778 87.4126 160.131 91.419 159.253C93.5013 158.794 94.8553 157.251 96.8031 156.626C98.2441 156.167 99.8197 154.933 100.509 153.612C101.696 151.333 102.092 148.675 100.176 146.436C98.4658 144.434 96.3755 143.113 93.5251 143.556C91.9811 143.801 90.5163 144.537 88.8932 144.252C88.141 144.118 87.5947 144.845 87.5551 145.186C87.2067 148.24 84.7443 150.748 85.2985 153.722L85.3064 153.715Z" fill="black"/>
<path d="M112.536 140.004C112.33 137.274 112.916 134.735 114.151 132.282C116.138 128.342 121.166 126.348 124.951 128.081C126.701 128.88 127.405 130.431 127.603 132.163C127.841 134.228 127.453 136.056 125.505 137.425C123.43 138.872 121.142 140.708 122.267 143.58C123.684 147.227 122.916 151.555 125.853 154.704C126.241 155.123 126.13 155.978 126.408 156.547C128.023 159.862 130.612 162.354 133.914 163.747C138.87 165.828 142.259 163.415 143.922 158.414C144.706 156.049 144.428 153.62 144.801 151.262C145.101 149.363 145.909 147.235 147.841 146.499C149.623 145.819 151.784 145.613 153.494 146.942C154.785 147.947 155.719 149.268 155.814 151.08C156.076 156.112 154.856 161.009 152.631 165.258C148.95 172.299 143.961 175.662 134.951 174.618C132.116 174.293 129.416 173.138 127.049 171.216C123.898 168.644 121.174 165.693 118.854 162.441C117.555 160.622 117.231 158.145 116.154 156.128C114.167 152.417 113.834 148.279 112.821 144.324C112.464 142.947 112.623 141.444 112.543 140.004H112.536Z" fill="black"/>
<path d="M313.307 68.1334C312.191 68.1334 311.066 68.0939 309.95 68.1413C307.416 68.2521 305.904 66.8992 304.89 64.7393C303.362 61.4876 304.21 58.5682 307.195 57.0966C308.738 56.3371 310.354 56.4241 311.898 57.1124C313.062 57.6346 314.202 57.8245 315.469 57.5159C316.379 57.3023 317.068 57.0491 317.203 55.9731C317.345 54.8576 317.282 53.7895 316.189 53.2673C312.84 51.6454 310.108 49.1849 307.741 46.4632C306.236 44.7385 305.207 42.3729 304.954 40.031C304.479 35.4818 304.843 31.0512 306.814 26.7156C308.43 23.1474 311.043 20.7106 314.218 18.8672C315.944 17.8624 318.121 17.3165 320.132 17.2057C321.835 17.1187 322.975 15.7579 324.725 15.9161C326.87 16.1139 329.839 17.7991 330.441 20.5049C330.932 22.7044 329.895 24.4449 327.646 26.0985C326.506 26.9371 325.429 26.9371 324.218 27.0083C322.286 27.1191 320.378 26.7789 318.406 27.5226C317.092 28.0131 316.245 28.7093 315.888 29.8328C315.382 31.4468 314.186 32.7285 314.233 34.651C314.313 37.6891 315.722 39.5642 318.097 41.2969C320.188 42.8238 322.729 43.5834 324.614 45.3952C326.815 47.5155 328.786 49.7387 328.953 53.03C329.079 55.4668 329.214 58.0302 328.034 60.1109C327.116 61.7407 326.403 63.5842 324.447 64.7472C319.111 67.9277 319.166 68.0939 313.275 68.1255L313.307 68.1334Z" fill="black"/>
<path d="M165.49 29.651C165.49 32.4834 165.506 35.3079 165.49 38.1403C165.482 39.3745 165.538 40.5771 164.817 41.7559C164.461 42.3414 164.382 43.4648 164.714 44.0345C166.037 46.321 165.522 48.7657 165.609 51.155C165.736 54.5729 165.387 58.0382 165.846 61.4086C166.836 68.7507 166.092 76.1165 166.615 83.4348C166.82 86.3542 165.363 87.992 163.432 89.5268C162.086 90.5949 158.412 89.1312 157.335 87.1929C156.789 86.2039 156.535 85.1754 156.527 84.0282C156.503 79.8192 156.583 75.5943 156.306 71.4011C156.028 67.1446 156.187 62.8011 155.506 58.6395C154.215 50.7436 154.025 42.824 153.764 34.8806C153.59 29.6035 154.429 24.4055 154.556 19.1601C154.595 17.4907 156.701 14.8561 159.021 14.4922C161.159 14.1599 163.147 15.3624 164.485 16.8657C165.91 18.4717 165.728 20.1886 165.767 21.9608C165.831 24.5242 165.783 27.0876 165.783 29.6589C165.688 29.6589 165.585 29.6589 165.49 29.6589V29.651Z" fill="black"/>
<path d="M230.931 154.902C235.056 155.455 239.632 153.818 244.312 154.277C248.176 154.656 251.723 155.566 254.359 158.849C255.492 160.258 257.202 161.223 258.683 162.339C260.361 163.612 261.066 165.899 260.401 168.106C259.934 169.665 257.986 171.034 256.141 171.215C253.314 171.492 251.184 169.958 249.189 168.367C247.629 167.125 246.259 165.828 244.05 165.899C238.848 166.049 233.623 165.859 228.444 166.255C224.557 166.548 221.817 168.953 219.402 172.07C217.36 174.712 216.607 178.502 212.973 179.831C209.236 181.2 205.871 179.831 204.651 175.836C203.947 173.526 204.659 171.595 206.045 169.625C207.929 166.943 209.656 164.19 211.991 161.824C214.549 159.229 217.732 157.805 220.883 156.223C223.931 154.688 227.154 154.949 230.931 154.909V154.902Z" fill="black"/>
<path d="M126.725 55.9892C126.725 51.8276 127.025 47.7847 126.645 43.8052C126.25 39.6119 126.4 35.3792 125.774 31.2493C125.426 28.939 124.745 26.6447 124.983 24.3186C125.331 20.8612 128.625 16.4465 133.075 18.725C135.015 19.714 136.479 21.4783 136.661 23.9942C136.812 26.0671 135.98 28.0134 136.107 30.0467C136.392 34.6909 136.796 39.3192 136.741 43.9792C136.685 48.386 137.065 52.8245 136.661 57.1997C136.004 64.344 136.614 71.5674 135.656 78.6167C135.189 82.0583 135.83 86.0379 133.162 89.1076C131.594 90.9036 128.419 90.7928 126.717 89.1235C123.843 86.3069 124.413 83.3558 125.767 80.199C125.941 79.7955 125.949 79.305 125.957 78.8461C126.067 71.1718 127.223 63.537 126.725 55.9892Z" fill="black"/>
<path d="M359.413 28.5356C355.984 29.0024 352.928 30.0388 351.487 33.607C351.21 34.2874 350.474 34.5643 350.323 35.4821C349.864 38.2512 351.82 40.2291 354.108 41.1548C357.845 42.6659 360.007 47.1677 358.946 51.1631C358.075 54.4306 356.032 56.3848 353.641 58.5051C352.01 59.953 350.26 61.2584 348.526 62.5006C347.124 63.5053 345.232 63.9484 343.482 64.2965C340.806 64.8266 338.051 65.7997 335.406 64.0196C333.229 62.5559 332.524 59.2726 334.187 57.2472C335.351 55.8231 336.784 54.6205 338.834 54.6917C341.764 54.7866 344.084 53.6553 346.087 51.5112C348.098 49.3592 348.241 49.3988 346 47.8164C343.926 46.3527 342.849 44.2245 341.534 42.1516C339.682 39.2243 339.959 36.0201 340.743 33.3459C341.637 30.3078 342.572 27.0482 345.097 24.5006C347.528 22.0401 350.466 20.4182 353.174 18.4323C356.016 16.3436 362.39 16.7392 364.559 19.0811C366.127 20.7663 366.262 23.0053 365.707 25.1889C365.304 26.7871 362.976 28.4327 361.194 28.5435C360.6 28.583 360.007 28.5435 359.413 28.5435V28.5356Z" fill="black"/>
<path d="M289.498 39.5809C288.905 43.6871 289 47.9277 288.335 52.0102C287.757 55.5625 287.068 59.1149 286.616 62.6989C286.426 64.2259 286.45 65.7449 287.464 66.987C288.683 68.4824 288.279 69.7957 287.479 71.3148C286.363 73.443 284.724 74.5032 282.293 74.2975C278.833 73.9968 276.664 69.9698 278.366 66.9791C278.651 66.4807 278.651 65.9743 278.651 65.4601C278.651 60.5944 279.126 55.6654 278.493 50.8867C278.026 47.3897 277.448 43.9244 277.836 40.4512C278.152 37.595 278.532 34.5728 281.169 32.5869C281.945 32.0015 285.381 31.8828 286.228 32.492C288.643 34.2326 290.148 36.3845 289.506 39.5809H289.498Z" fill="black"/>
<path d="M107.049 23.7018C107.112 20.9644 106.851 18.1716 107.833 15.5449C108.815 12.9103 111.261 10.8137 114.967 11.6602C117.104 12.1507 118.688 15.0781 117.912 17.5624C117.041 20.3394 116.55 23.2509 115.173 25.8776C114.864 26.4709 115.038 27.3017 114.935 28.0137C114.46 31.4474 111.8 32.8953 108.712 31.4158C107.714 30.9411 107.041 30.2211 107.049 29.0264C107.057 27.2542 107.049 25.4741 107.049 23.7018Z" fill="black"/>
<path d="M189.006 151.112C188.618 148.754 189.703 146.848 190.637 144.941C191.421 143.335 195.261 142.322 197.312 142.844C200.384 143.628 202.347 147.552 202.339 150.02C202.332 153.05 199.03 157.766 196.377 158.834C194.564 159.562 190.526 157.386 189.901 155.733C189.338 154.253 188.499 152.742 188.998 151.104L189.006 151.112Z" fill="black"/>
<path d="M244.311 119.853C244.074 120.834 244.501 122.306 243.789 123.793C241.936 127.67 238.531 129.054 234.77 127.164C233.211 126.38 232.561 124.75 232.213 123.287C231.445 120.075 232.15 116.949 234.01 114.212C235.246 112.392 239.482 111.055 241.303 112.108C242.641 112.875 244.113 113.983 244.28 115.826C244.383 116.997 244.303 118.192 244.303 119.845L244.311 119.853Z" fill="black"/>
<path d="M203.393 133.746C200.17 134.11 196.726 131.135 196.195 127.559C195.776 124.711 199.141 119.908 202.023 119.473C204.137 119.157 206.291 118.927 208.254 120.193C209.339 120.889 210.162 121.839 210.218 123.097C210.36 126.364 210.162 129.481 207.708 132.187C206.433 133.587 205.119 133.635 203.401 133.738L203.393 133.746Z" fill="black"/>
<path d="M283.56 14.5004C280.338 14.4609 280.116 14.0811 278.58 11.0272C277.891 9.65845 277.281 8.32928 277.788 7.03176C278.422 5.41777 279.403 3.85916 280.551 2.54581C282.254 0.591621 287.242 0.378005 289.309 1.94452C290.552 2.88602 291.454 6.40673 290.837 8.0761C290.077 10.1252 289.016 11.9766 287.408 13.5035C286.284 14.5716 284.914 14.4529 283.56 14.5083V14.5004Z" fill="black"/>
</g>
<defs>
<clipPath id="clip0_202_51">
<rect width="366" height="195" fill="white" transform="translate(0 0.900391)"/>
</clipPath>
</defs>
</svg>
