<svg width="26" height="44" viewBox="0 0 26 44" fill="none" xmlns="http://www.w3.org/2000/svg">
<g clip-path="url(#clip0_113_276)">
<path d="M11.2693 26.1587C11.2762 22.8198 11.2557 19.4809 11.1451 16.1471C11.1178 15.3214 11.0804 14.4939 11.0446 13.6681C11.0157 13.0054 10.9867 12.3444 10.9561 11.6817C10.8846 10.0624 10.8131 8.44311 10.7416 6.8255C10.7144 6.2172 10.6871 5.6089 10.6616 5.00059C10.6395 4.49934 10.6173 3.99638 10.648 3.49343C10.6803 2.9446 10.7773 2.40086 10.934 1.87242C11.0089 1.61755 11.1008 1.36607 11.2319 1.13498C11.6405 0.42303 12.5428 -0.0765256 13.3837 0.00843293C13.3837 0.00843293 13.9217 0.0628064 14.4018 0.42473C16.0719 1.68891 15.505 10.6435 15.3568 14.1387C15.0913 20.407 15.5152 24.4901 15.396 30.1483C15.3739 31.2052 15.3875 32.2621 15.3875 33.3173C15.3875 33.6843 15.2258 36.4794 15.5067 36.6018C15.6769 36.6748 15.854 36.5219 15.9748 36.3826C17.9071 34.1651 19.841 31.9477 21.7733 29.7286C22.2653 29.1645 22.8151 28.5664 23.5523 28.4355C24.3694 28.2911 25.2479 28.8603 25.4488 29.664C25.6888 30.6275 25.0436 31.5671 24.4358 32.3538C23.428 33.6554 22.4185 34.957 21.4106 36.2585C20.7552 37.103 20.1015 37.9492 19.4018 38.758C18.5676 39.7231 17.6738 40.6356 16.7801 41.5463C15.4913 42.8615 14.109 44.6337 12.0576 43.7688C11.0582 43.3475 10.2377 42.5998 9.46308 41.842C8.94384 41.3356 8.43652 40.8174 7.94112 40.2873C7.37762 39.6874 6.82944 39.074 6.28126 38.4606C5.97142 38.114 5.65988 37.7657 5.35004 37.4174C4.126 36.0444 2.90707 34.6664 1.69325 33.2833C1.21998 32.7429 0.729681 32.1737 0.559439 31.4754C0.361959 30.6649 0.663287 29.7524 1.3051 29.2172C1.94691 28.6819 2.90026 28.5494 3.66465 28.8892C4.73036 29.3616 5.2479 30.5374 5.85225 31.5331C6.49066 32.5832 7.31123 33.511 8.12498 34.4302C8.71061 35.0929 9.29795 35.7539 9.88358 36.4165C10.2309 36.7632 10.682 37.6043 11.1536 37.6926C11.22 37.4751 11.2166 37.2542 11.2166 37.0197C11.2166 33.4022 11.2591 29.7796 11.2676 26.157L11.2693 26.1587Z" fill="black"/>
</g>
<defs>
<clipPath id="clip0_113_276">
<rect width="25" height="44" fill="white" transform="translate(0.5)"/>
</clipPath>
</defs>
</svg>
