<svg width="23" height="25" viewBox="0 0 23 25" fill="none" xmlns="http://www.w3.org/2000/svg">
<path d="M22.988 11.2797C23.0424 11.9348 22.9142 12.585 22.8138 13.2148C22.6591 14.183 22.6022 15.1764 22.2637 16.112C22.2008 16.2866 22.1935 16.4805 22.1573 16.6635C22.0617 17.1476 21.78 17.551 21.6337 18.011C21.4559 18.5709 21.0907 19.014 20.7377 19.4812C20.4354 19.881 20.1004 20.2904 19.9154 20.7793C19.8731 20.8913 19.78 20.9985 19.6845 21.0743C19.1693 21.4813 18.8005 22.0377 18.2975 22.4447C17.8332 22.8204 17.4148 23.2791 16.8658 23.5296C16.3435 23.768 15.7993 23.9679 15.2358 24.1148C14.1923 24.3858 13.1331 24.4472 12.0641 24.4941C11.1065 24.5363 10.1875 24.3785 9.26971 24.1305C8.77515 23.9968 8.2685 23.9173 7.77031 23.7873C7.17902 23.632 6.71832 23.2539 6.16934 23.0431C5.78603 22.8962 5.45471 22.6602 5.11735 22.4338C4.53694 22.0437 4.0448 21.5488 3.5055 21.1117C2.91662 20.6348 2.44988 20.0484 1.96015 19.4764C1.63005 19.0911 1.32775 18.6961 1.06173 18.2699C0.902113 18.0146 0.815052 17.7244 0.698969 17.4486C0.33984 16.5949 0.350723 15.6773 0.149997 14.8007C0.0508437 14.3768 0.00368534 13.9409 5.77741e-05 13.5303C-0.0035698 13.0101 0.0085221 12.4707 0.108885 11.9517C0.142742 11.7734 0.166926 11.5976 0.170554 11.4194C0.187482 10.5404 0.314447 9.66257 0.585306 8.84133C0.865838 7.9912 1.21288 7.15311 1.61916 6.34271C2.00852 5.56483 2.53089 4.87966 3.10284 4.25471C3.54661 3.76943 3.95532 3.22877 4.48615 2.82779C5.25036 2.24979 6.02666 1.69227 6.97345 1.41772C7.42206 1.28767 7.84286 1.06731 8.27938 0.895117C8.73887 0.714494 9.17297 0.466438 9.70381 0.503767C10.0557 0.529054 10.312 0.639837 10.4559 0.961346C10.5345 1.13715 10.6566 1.21422 10.8525 1.19736C11.2612 1.16124 11.6699 1.18171 12.0823 1.10825C12.6458 1.0059 13.2153 1.09139 13.7643 1.26479C13.8114 1.27924 13.8622 1.2949 13.9106 1.2949C14.6361 1.28767 15.2576 1.61881 15.9142 1.86326C16.6107 2.12215 17.2395 2.51952 17.9311 2.76397C18.3834 2.92412 18.7171 3.18783 19.0533 3.50332C19.4124 3.83928 19.8138 4.12346 20.1113 4.52685C20.3205 4.80982 20.4511 5.13374 20.6506 5.41913C21.1016 6.06214 21.5527 6.70396 22.0472 7.31687C22.3302 7.66849 22.5164 8.09235 22.5986 8.55474C22.699 9.12551 22.8429 9.68906 22.9336 10.2622C22.9868 10.597 22.971 10.9414 22.9855 11.2809L22.988 11.2797ZM11.6579 23.0648C11.9553 23.0949 12.2298 22.9384 12.5236 22.9637C12.9602 23.001 13.3761 22.8565 13.8017 22.8035C14.023 22.7758 14.2733 22.7794 14.4741 22.6819C14.9444 22.4531 15.4632 22.3628 15.9227 22.081C16.6216 21.6535 17.3447 21.2778 17.8296 20.5855C17.89 20.4988 17.9686 20.4012 18.0605 20.3627C18.306 20.2627 18.439 20.0592 18.6047 19.8762C18.7981 19.6619 18.8912 19.3909 19.0605 19.167C19.3737 18.7515 19.7268 18.3686 19.9928 17.9158C20.3604 17.2885 20.6796 16.6322 20.9396 15.9627C21.2939 15.0487 21.5152 14.0818 21.6639 13.1149C21.7897 12.2912 21.9517 11.4604 21.8235 10.609C21.7485 10.1093 21.6663 9.60838 21.5357 9.12431C21.4753 8.90034 21.4946 8.66191 21.3725 8.44396C21.173 8.08874 20.9275 7.78047 20.6458 7.48425C20.0932 6.90024 19.7546 6.15848 19.2504 5.53834C18.9118 5.1229 18.5575 4.70386 18.1415 4.37151C17.5599 3.9055 16.8247 3.68755 16.179 3.31306C15.6857 3.02647 15.0944 2.91569 14.5684 2.67606C14.2068 2.51109 13.8211 2.6002 13.4547 2.47978C13.1826 2.39068 12.8803 2.28712 12.5732 2.35335C11.8985 2.49905 11.2141 2.47376 10.5321 2.45931C10.2637 2.45329 10.0242 2.5135 9.80175 2.64475C9.50187 2.82176 9.20441 2.85909 8.90695 2.65439C8.73766 2.53758 8.58772 2.56648 8.40514 2.64235C8.05326 2.79046 7.69655 2.95904 7.32533 3.02165C6.70502 3.12521 6.22134 3.47321 5.71711 3.7875C5.23222 4.08974 4.84528 4.50758 4.46197 4.92663C3.75096 5.70451 3.07986 6.49805 2.66995 7.4975C2.32896 8.32716 1.9795 9.14357 1.77152 10.0238C1.57563 10.8547 1.55266 11.6976 1.46439 12.5345C1.36644 13.4605 1.49583 14.3744 1.64939 15.2956C1.74371 15.8664 1.93113 16.4094 2.0182 16.9778C2.03996 17.1211 2.09921 17.2656 2.17176 17.392C2.6772 18.2699 3.39183 18.9791 4.06535 19.7221C4.33138 20.0147 4.69292 20.1796 4.96741 20.4494C5.32049 20.795 5.66632 21.1261 6.11251 21.3706C6.57321 21.6246 7.04963 21.8438 7.51034 22.0906C8.02424 22.3652 8.55749 22.4964 9.11251 22.6096C9.35556 22.659 9.60344 22.6951 9.84165 22.7589C10.439 22.9203 11.0508 22.9805 11.6591 23.066L11.6579 23.0648Z" fill="black"/>
<path d="M18.6699 9.45527C18.7558 10.232 18.5188 10.9544 18.1862 11.624C17.8332 12.3344 17.3737 12.9786 16.6663 13.4314C16.3096 13.659 15.9625 13.9528 15.7159 14.3152C15.6034 14.4802 15.5962 14.709 15.5248 14.8956C15.2914 15.5061 15.1258 16.1793 14.5188 16.5538C14.1149 16.803 13.6699 16.9788 13.1923 16.6898C13.1137 16.6417 13.0061 16.6417 12.9287 16.685C12.4184 16.9692 11.8477 16.9006 11.3495 16.7874C10.8707 16.679 10.3447 16.5128 9.97343 16.1287C9.76061 15.9083 9.67355 15.6049 9.58045 15.3195C9.32531 14.5452 9.36037 13.7649 9.82954 13.1027C10.1826 12.6041 10.5551 12.1056 10.9831 11.6565C11.5031 11.1098 12.0714 10.6052 12.5067 9.98028C12.543 9.92851 12.6131 9.87914 12.682 9.83699C12.8114 9.75872 12.9565 9.6648 12.896 9.44925C12.8307 9.21805 12.6336 9.18434 12.4752 9.19397C11.9783 9.22407 11.5151 9.38664 11.0823 9.63951C10.786 9.8117 10.6457 10.1007 10.4765 10.3704C10.1415 10.9027 9.65541 11.2073 9.03389 11.2459C8.38818 11.2856 7.72676 11.3121 7.13667 10.9858C6.73159 10.7618 6.37125 10.4644 6.16207 10.0345C6.04356 9.79244 5.78843 9.65998 5.70741 9.377C5.61188 9.03984 5.54417 8.71351 5.5877 8.3631C5.61309 8.15479 5.61914 7.94285 5.6143 7.73333C5.59737 7.02288 5.88516 6.41599 6.23583 5.82113C6.6409 5.13597 7.22615 4.623 7.82107 4.12087C8.13063 3.85957 8.5224 3.84873 8.87065 4.01129C9.1004 4.11846 9.29991 4.08354 9.51031 4.0426C9.97585 3.95229 10.4257 3.82826 10.9178 3.92218C11.3773 4.00888 11.8537 3.99925 12.3217 4.03899C12.8078 4.08113 13.2612 4.20636 13.7062 4.35809C13.9553 4.44238 14.2141 4.46044 14.4583 4.51222C14.9021 4.60494 15.2503 4.86865 15.6542 5.02639C16.1983 5.23953 16.6989 5.54779 17.156 5.92108C17.306 6.0427 17.3954 6.19683 17.5115 6.33651C17.7328 6.60263 17.8912 6.91089 18.1415 7.16497C18.3761 7.40339 18.4474 7.77427 18.5357 8.09819C18.6554 8.53771 18.7449 8.99288 18.6711 9.45768L18.6699 9.45527ZM17.2854 9.14821C17.4184 8.38598 16.9021 7.78631 16.4015 7.19748C16.1113 6.85791 15.7437 6.60022 15.3035 6.45091C14.8852 6.30882 14.5538 5.97527 14.1101 5.87653C13.7896 5.80548 13.4559 5.77297 13.1536 5.65617C12.6856 5.47675 12.2153 5.3479 11.7122 5.33827C11.4813 5.33345 11.237 5.35994 11.0218 5.29733C10.6083 5.17812 10.2358 5.31419 9.8646 5.42738C9.26606 5.61041 8.89967 6.11977 8.45106 6.5075C8.21285 6.71341 7.98431 6.86393 7.66146 6.82179C7.4692 6.7965 7.33377 6.89524 7.26001 7.04937C6.98552 7.62255 6.97222 8.23667 7.02059 8.8544C7.02422 8.89895 7.05808 8.94351 7.08347 8.98445C7.44623 9.5516 7.9033 9.93332 8.6409 9.87191C8.90088 9.85024 9.06654 9.76835 9.19109 9.54558C9.44502 9.09162 9.72676 8.68943 10.1959 8.38237C10.8912 7.9272 11.6457 7.74537 12.4378 7.62977C13.2854 7.50575 13.8029 8.04882 14.2612 8.60875C14.6687 9.10727 14.4535 9.69851 14.312 10.25C14.2818 10.368 14.2165 10.5101 14.121 10.5751C13.6929 10.8702 13.3664 11.2579 13.0581 11.6649C12.6856 12.1538 12.1294 12.4717 11.8162 13.0208C11.6856 13.2496 11.4994 13.4507 11.2914 13.6289C10.9275 13.942 10.8803 14.361 10.9553 14.7993C11.0145 15.1461 11.5804 15.4604 12.0665 15.3484C12.5466 15.2376 13.0206 15.2424 13.5006 15.2497C13.6723 15.2521 13.7594 15.1618 13.8211 15.0341C13.9565 14.756 14.0496 14.4453 14.1113 14.1575C14.2673 13.4254 14.8187 13.0424 15.3241 12.6246C15.8815 12.1622 16.5018 11.7648 16.838 11.0965C17.1282 10.5185 17.3108 9.90563 17.2902 9.14581L17.2854 9.14821Z" fill="black"/>
<path d="M11.9868 22.065C11.2516 22.0542 10.618 21.9904 9.99768 21.8218C9.52246 21.6929 8.98075 21.0379 8.95173 20.5406C8.90215 19.7025 9.16817 18.9547 9.58051 18.2358C9.85378 17.759 10.2008 17.3736 10.6942 17.1364C11.0146 16.9823 11.3423 16.8703 11.7184 17.0401C12.0884 17.2075 12.4922 17.2701 12.9009 17.3122C13.2093 17.3447 13.4801 17.5073 13.7111 17.7024C14.4572 18.3334 14.7788 19.1437 14.6119 20.1047C14.5043 20.7272 14.1549 21.2089 13.6204 21.5798C13.0908 21.9482 12.5418 22.1553 11.9892 22.065H11.9868ZM13.1246 19.6086C13.1246 19.0366 12.7788 18.6934 12.2032 18.6886C11.884 18.6862 11.5914 18.8776 11.2637 18.8174C11.2057 18.8066 11.1839 18.8644 11.1476 18.8969C10.7546 19.2509 10.6059 19.7241 10.5128 20.2179C10.4971 20.3009 10.5563 20.3985 10.6688 20.4406C10.809 20.4936 10.9445 20.5454 11.1005 20.5466C11.3616 20.549 11.6301 20.537 11.8828 20.5887C12.5031 20.714 13.1246 20.2371 13.1246 19.6086Z" fill="black"/>
</svg>
