<svg width="20" height="25" viewBox="0 0 20 25" fill="none" xmlns="http://www.w3.org/2000/svg">
<g clip-path="url(#clip0_149_1142)">
<path d="M11.0578 24.4957C10.8275 24.4699 10.4239 24.3476 10.0301 24.1885C9.77312 24.0845 9.50996 24.011 9.24147 23.9447C8.98809 23.8822 8.72316 23.8564 8.49556 23.6734C8.39243 23.5906 8.22173 23.5336 8.06348 23.5511C7.83944 23.5759 7.63852 23.5253 7.48471 23.3487C7.38781 23.2375 7.24734 23.2283 7.13176 23.1942C6.71924 23.0728 6.29072 23.0103 5.87998 22.8843C5.62216 22.8052 5.34033 22.7868 5.11185 22.6047C5.03717 22.5449 4.91804 22.5403 4.83624 22.5955C4.48062 22.8318 4.2717 22.8254 4.06811 22.4787C3.9472 22.2736 3.7765 22.1917 3.59247 22.1328C3.22618 22.0151 2.84567 21.9443 2.47938 21.8256C2.21178 21.7392 1.94328 21.7116 1.67479 21.7539C1.14225 21.8376 0.911989 21.4485 0.749294 21.0595C0.617715 20.7458 0.591043 20.4074 0.531477 20.0735C0.390119 19.2706 0.395453 18.4603 0.31455 17.6555C0.265652 17.168 0.294991 16.6759 0.227423 16.1958C0.0994004 15.289 0.209642 14.3766 0.135851 13.4725C0.0887318 12.8948 0.106513 12.3126 0.00782858 11.7396C-0.0197319 11.5768 0.0362781 11.4159 0.0771742 11.2687C0.151854 10.9974 0.185638 10.715 0.318106 10.4547C0.405233 10.2818 0.541257 10.1862 0.6595 10.0611C1.21427 9.47613 1.88016 9.03649 2.50338 8.54074C2.77276 8.32644 2.98969 8.04408 3.23951 7.80218C3.6547 7.40025 4.08944 7.02315 4.57842 6.71964C4.68599 6.65249 4.74289 6.57708 4.74912 6.43635C4.78557 5.68767 4.87981 4.94727 5.19542 4.26298C5.32433 3.98337 5.6026 3.85369 5.86309 3.7424C6.35385 3.53362 6.84104 3.72401 7.32913 3.79483C7.59229 3.83346 7.83233 3.93831 8.00392 4.12502C8.20929 4.34852 8.46711 4.50947 8.65381 4.74677C8.74094 4.85806 8.82806 4.90221 8.96764 4.88933C9.41039 4.84794 9.83891 5.02361 10.2834 4.99326C10.3421 4.98958 10.4283 5.02637 10.4604 5.0742C10.6124 5.29954 10.8106 5.21308 10.9751 5.1395C11.4623 4.92152 11.9708 4.95647 12.4749 4.98682C12.7141 5.00154 12.9168 5.14962 13.0777 5.34369C13.188 5.47613 13.2751 5.63985 13.5009 5.50097C13.588 5.4467 13.7472 5.45498 13.8467 5.49913C14.0485 5.58926 14.2521 5.56719 14.4548 5.56351C14.7091 5.55891 14.9438 5.62329 15.1759 5.72079C15.3457 5.79253 15.5368 5.79253 15.7146 5.82196C16.1191 5.8891 16.5228 5.96084 16.9237 6.04362C17.2109 6.1034 17.5221 6.14479 17.723 6.42807C17.7799 6.50809 17.8803 6.56052 17.9701 6.60743C18.0964 6.67365 18.1737 6.76838 18.2173 6.90911C18.2849 7.12709 18.4796 7.24941 18.6067 7.42325C18.7285 7.59156 18.7747 7.78195 18.7801 7.99349C18.7978 8.70078 18.9161 9.39703 19.029 10.0933C19.0761 10.3848 19.0503 10.6819 19.1143 10.9772C19.1908 11.3322 19.3259 11.6661 19.4068 12.0174C19.4495 12.2004 19.4913 12.3825 19.5313 12.5665C19.6584 13.1533 19.5971 13.7521 19.6433 14.3425C19.6967 15.0204 19.798 15.6964 19.9083 16.3678C19.9349 16.5297 19.9732 16.6916 19.9945 16.8562C20.0487 17.2673 19.766 17.4752 19.5073 17.6656C19.0939 17.971 18.6983 18.291 18.3178 18.6433C17.9657 18.9698 17.5736 19.2623 17.1495 19.5079C16.6606 19.7911 16.176 20.1075 15.7582 20.4902C15.2897 20.9188 14.7429 21.2177 14.2548 21.6067C14.0121 21.7999 13.7898 22.0234 13.5453 22.2138C13.099 22.5605 12.7808 23.0351 12.3825 23.4278C12.2322 23.5759 12.1664 23.7433 12.1042 23.9328C11.9664 24.3494 11.6721 24.5315 11.0587 24.4948L11.0578 24.4957ZM8.05459 18.4456C8.06437 18.4456 8.07415 18.4456 8.08482 18.4456C8.08482 18.9891 8.03148 19.5391 8.09993 20.0726C8.16572 20.5858 8.15417 21.1027 8.23774 21.6141C8.27419 21.8358 8.33286 22.0583 8.34175 22.2864C8.34353 22.3343 8.3622 22.3646 8.41643 22.3821C8.71515 22.4777 8.98009 22.6571 9.28859 22.7408C9.46729 22.7895 9.65043 22.7868 9.82824 22.8475C10.1163 22.9468 10.4168 23.0048 10.7093 23.0912C10.8569 23.1354 10.872 23.0682 10.8658 22.945C10.8533 22.7169 10.8177 22.4906 10.8017 22.2653C10.7635 21.7107 10.7457 21.1551 10.7084 20.5996C10.6693 20.022 10.6693 19.437 10.5742 18.8686C10.4879 18.3508 10.3946 17.8394 10.4097 17.3115C10.4159 17.0898 10.4097 16.8673 10.4088 16.6456C10.4088 16.5922 10.4186 16.5315 10.3981 16.4865C10.223 16.091 10.1954 15.6716 10.1963 15.2457C10.1963 14.8788 10.1927 14.5109 10.199 14.1439C10.2016 14.0031 10.1839 13.913 10.0185 13.9029C9.4255 13.8661 8.84318 13.7383 8.25552 13.6536C8.02614 13.6205 7.96569 13.6978 7.97013 13.9305C7.99236 14.9146 7.95057 15.8988 8.04659 16.8829C8.09638 17.398 8.05548 17.9231 8.05548 18.4437L8.05459 18.4456ZM4.45306 13.0494C4.35171 13.0806 4.18902 12.9767 4.17835 13.1561C4.16412 13.397 4.1419 13.6408 4.20591 13.8836C4.30104 14.2432 4.35705 14.612 4.44595 14.9744C4.53574 15.3368 4.52863 15.7314 4.54286 16.1085C4.58464 17.1901 4.61398 18.2699 4.71711 19.3487C4.76956 19.8923 4.78023 20.4423 4.83091 20.9887C4.86647 21.374 4.94026 21.4945 5.26565 21.5883C5.39545 21.6261 5.52081 21.6757 5.64439 21.7171C6.08002 21.8615 6.52899 21.9654 6.98507 22.0289C7.12198 22.0482 7.16999 22.0363 7.15932 21.8551C7.11931 21.1478 7.02241 20.446 6.97973 19.7396C6.89972 18.4364 6.9744 17.1294 6.88105 15.8243C6.8286 15.0949 6.75836 14.3628 6.78059 13.6279C6.78059 13.6205 6.7797 13.6123 6.78059 13.6049C6.78237 13.4844 6.73169 13.4347 6.609 13.4237C6.36096 13.4007 6.11647 13.3455 5.8702 13.3087C5.39367 13.2388 4.9207 13.1367 4.45306 13.0484V13.0494ZM1.19293 14.1908C1.22227 14.7831 1.17693 15.4913 1.23827 16.2041C1.31739 17.1202 1.35651 18.0409 1.42853 18.9588C1.4632 19.3957 1.56099 19.8197 1.593 20.2547C1.61611 20.5693 1.74592 20.6355 2.03841 20.7109C2.23667 20.7624 2.43937 20.7707 2.63674 20.8341C2.92657 20.928 3.21996 21.0199 3.52668 21.0641C3.72227 21.0926 3.7276 21.0209 3.71604 20.8636C3.6867 20.469 3.59513 20.0799 3.61025 19.6808C3.61291 19.6044 3.61203 19.5263 3.59691 19.4527C3.50801 19.0084 3.46889 18.555 3.43244 18.108C3.36398 17.2729 3.38887 16.4304 3.29997 15.5943C3.29375 15.5345 3.27152 15.4766 3.26619 15.4168C3.23507 15.0544 3.14794 14.7049 3.05459 14.3554C2.93102 13.8937 2.9568 13.4182 2.95146 12.9464C2.95057 12.8213 2.92035 12.7311 2.78877 12.6888C2.31668 12.538 1.87216 12.3117 1.39563 12.1682C1.15025 12.0947 1.19204 12.2115 1.19204 12.3522C1.19204 12.9261 1.19204 13.5 1.19204 14.1908H1.19293ZM13.3871 13.695C13.4564 13.2618 13.3249 12.7265 13.2555 12.1876C13.2208 11.9144 13.1702 11.9061 12.9524 12.0606C12.7274 12.2198 12.5727 12.4782 12.3211 12.584C12.0251 12.7081 11.7673 12.8893 11.4952 13.0521C11.2729 13.1855 11.1663 13.3051 11.2916 13.5801C11.3476 13.7015 11.321 13.8661 11.3218 14.0114C11.3254 14.417 11.3236 14.8226 11.3254 15.2273C11.3254 15.288 11.3192 15.3561 11.3423 15.4076C11.481 15.713 11.5299 16.0395 11.5405 16.3706C11.5521 16.7293 11.5423 17.0898 11.5441 17.4495C11.5441 17.5791 11.5317 17.7143 11.5601 17.8376C11.6801 18.3609 11.7886 18.8907 11.7975 19.4269C11.8055 19.9015 11.8828 20.3669 11.9157 20.8369C11.938 21.1533 11.9824 21.4706 11.9922 21.7898C11.9957 21.9047 12.0331 21.982 12.1513 21.9066C12.2393 21.8496 12.3122 21.7659 12.3905 21.6941C12.7043 21.4053 12.9861 21.0788 13.3595 20.8627C13.6209 20.7118 13.7729 20.5214 13.7667 20.1563C13.7552 19.4288 13.5836 18.7233 13.5462 18.0004C13.5365 17.8063 13.508 17.5948 13.4582 17.3961C13.372 17.054 13.3195 16.6962 13.3026 16.3531C13.2769 15.8316 13.2102 15.3037 13.3711 14.7721C13.46 14.4796 13.3871 14.1347 13.3871 13.695ZM18.9161 16.538C18.8681 15.9484 18.7969 15.3589 18.7792 14.7684C18.7623 14.2027 18.7196 13.6398 18.6716 13.0779C18.6431 12.7523 18.5258 12.4359 18.4547 12.1131C18.3827 11.7875 18.2333 11.4904 18.1746 11.1556C18.1257 10.8751 18.1355 10.5936 18.0857 10.3186C17.9808 9.73826 17.8857 9.15698 17.8439 8.56834C17.835 8.43865 17.8323 8.30805 17.8306 8.17836C17.8297 8.10294 17.8003 8.03396 17.7425 8.00361C17.6687 7.96498 17.6287 8.05604 17.5905 8.09467C17.322 8.36323 17.0669 8.64652 16.7975 8.91324C16.7335 8.97671 16.7059 9.03833 16.7281 9.11007C16.8117 9.37864 16.7441 9.64629 16.7397 9.91485C16.729 10.5348 16.7415 11.1547 16.7397 11.7755C16.7397 12.1885 16.8162 12.5941 16.8508 13.0034C16.9077 13.6748 17.0624 14.3361 17.0971 15.0121C17.1006 15.0885 17.1042 15.1657 17.1202 15.2393C17.2073 15.6559 17.2331 16.0836 17.2918 16.504C17.3425 16.8682 17.4278 17.2342 17.4198 17.6113C17.4163 17.7888 17.5194 17.8174 17.6536 17.695C17.7665 17.5929 17.8661 17.4752 17.9808 17.3759C18.2448 17.1496 18.5631 17.0006 18.8183 16.7587C18.8885 16.6925 18.9472 16.6382 18.9161 16.5389V16.538ZM14.4166 15.6201C14.4219 16.1774 14.3642 16.5766 14.4548 16.9537C14.5615 17.3961 14.6264 17.844 14.6762 18.291C14.718 18.6599 14.8202 19.0232 14.7953 19.4003C14.7909 19.4628 14.8327 19.5281 14.8514 19.5934C14.8798 19.6937 14.9572 19.6633 14.982 19.6182C15.1296 19.3515 15.4257 19.2899 15.6319 19.105C15.8044 18.9496 15.984 18.7849 16.1885 18.6893C16.3654 18.6065 16.393 18.4961 16.3859 18.3343C16.3725 17.9894 16.3334 17.6536 16.2712 17.3106C16.1343 16.5564 16.1494 15.7792 16.0782 15.0121C16.0453 14.6571 15.9813 14.3057 15.9484 13.9507C15.9289 13.7364 15.9102 13.5129 15.8666 13.2986C15.7431 12.6897 15.6711 12.0726 15.6364 11.4545C15.6142 11.059 15.5626 10.6681 15.5377 10.2745C15.5324 10.1917 15.503 10.1218 15.4221 10.1825C15.3199 10.2579 15.1972 10.2947 15.111 10.4042C14.9758 10.5771 14.8087 10.7233 14.6282 10.8456C14.3419 11.0397 14.2779 11.1602 14.3553 11.5033C14.4735 12.0321 14.5037 12.5665 14.5144 13.1092C14.5313 14.005 14.3997 14.8925 14.4166 15.6201ZM4.70822 8.15813C4.54819 8.25102 4.37305 8.32276 4.24858 8.48188C3.96053 8.84978 3.59869 9.13766 3.25285 9.4421C3.01192 9.65456 2.79232 9.90658 2.52028 10.0629C2.16555 10.2662 1.91928 10.578 1.62678 10.8438C1.53699 10.9257 1.585 10.991 1.6579 11.0167C1.95129 11.1216 2.24734 11.22 2.54517 11.3092C2.72298 11.3616 2.90079 11.3855 3.05726 11.518C3.25374 11.6845 3.39065 11.6403 3.56224 11.4315C3.62625 11.3533 3.71604 11.2982 3.79161 11.2301C4.06455 10.9836 4.38905 10.7757 4.5962 10.4805C4.93937 9.99211 5.41501 9.65732 5.80797 9.23056C5.85065 9.18457 5.94488 9.17445 5.92799 9.088C5.90843 8.98958 5.81953 9.03741 5.76085 9.02821C5.29766 8.95923 4.93582 8.76057 4.82024 8.24642C4.80602 8.18296 4.7749 8.15445 4.70911 8.15905L4.70822 8.15813ZM6.14936 12.0901C6.57611 12.1131 6.56722 12.1048 6.7717 11.862C6.99129 11.5998 7.23934 11.3635 7.45893 11.1004C7.85011 10.6323 8.17461 10.1043 8.64936 9.71251C8.73916 9.63801 8.84673 9.55707 8.88941 9.45406C9.02454 9.12387 9.24147 8.9114 9.58464 8.84978C9.68421 8.83139 9.69577 8.767 9.65221 8.70538C9.47173 8.45429 9.33393 8.17192 9.11256 7.94934C9.04588 7.8822 9.0201 7.8914 8.9552 7.93647C8.8005 8.04316 8.64759 8.16549 8.476 8.23171C8.29375 8.30161 8.21284 8.39358 8.2484 8.59501C8.3222 9.01166 8.0786 9.26919 7.77721 9.44026C7.19577 9.76953 6.59922 10.0703 6.13425 10.5771C5.77952 10.9634 5.42835 11.3533 5.07717 11.7433C5.02917 11.7967 4.92248 11.8804 5.08073 11.9116C5.47636 11.9889 5.87554 12.0459 6.14848 12.091L6.14936 12.0901ZM9.76067 12.6079C9.94382 12.595 10.0905 12.6603 10.215 12.5178C10.431 12.2713 10.7173 12.1131 10.9707 11.9144C11.2863 11.6661 11.6837 11.5474 11.97 11.2467C12.0624 11.1492 12.138 11.0967 11.9388 11.0287C11.6668 10.9358 11.3876 10.8925 11.1111 10.8282C10.7466 10.7435 10.3883 10.6387 10.0096 10.6599C9.93759 10.6635 9.86025 10.658 9.79179 10.6359C9.48507 10.5384 9.38816 10.59 9.1819 10.8401C8.8574 11.2347 8.64581 11.712 8.29908 12.0882C8.25107 12.1407 8.14794 12.1876 8.19506 12.2749C8.23418 12.3467 8.32753 12.3577 8.41377 12.3605C8.58358 12.3651 8.78006 12.3274 8.91697 12.4019C9.20146 12.5564 9.51085 12.5233 9.76067 12.6079ZM8.04481 7.10685C7.80477 7.10593 7.6323 6.99556 7.42693 6.98912C7.09087 6.97901 6.77081 6.89347 6.50321 6.64974C6.30139 6.46579 6.19115 6.06661 6.33606 5.86887C6.50854 5.63341 6.85438 5.5258 7.11487 5.71159C7.29446 5.83943 7.47227 5.85691 7.66786 5.87255C7.87234 5.8891 7.86256 5.76953 7.78432 5.6564C7.66875 5.48993 7.5345 5.33265 7.39047 5.19101C7.14421 4.94911 6.81971 4.88013 6.50054 4.81023C6.2845 4.7624 6.08269 4.85714 6.03557 5.03465C5.97067 5.28114 5.88887 5.52764 5.86487 5.77965C5.80086 6.45015 5.83553 7.12433 5.83909 7.79667C5.83909 7.86381 5.84709 7.95118 5.93688 7.94934C6.22138 7.94199 6.5032 7.98705 6.79037 7.90888C7.04908 7.83805 7.25712 7.67618 7.49716 7.57317C7.70164 7.48579 7.88034 7.32667 8.04392 7.10685H8.04481ZM10.6657 6.4989C10.9324 6.57156 11.1894 6.64698 11.449 6.71044C11.7255 6.77758 11.8882 6.97349 11.962 7.23286C12.0277 7.46372 11.9584 7.69641 11.7681 7.84265C11.5539 8.00729 11.3041 8.03396 11.072 7.87392C10.8604 7.72768 10.6124 7.70101 10.3821 7.61823C10.2994 7.5888 10.2603 7.60904 10.2745 7.73228C10.2897 7.86013 10.3999 7.8822 10.4479 7.97326C10.559 8.18572 10.728 8.36231 10.9395 8.47912C11.3974 8.73113 11.873 8.70998 12.3354 8.51867C12.6812 8.37611 12.8546 8.04224 12.811 7.65594C12.7701 7.29632 12.7141 6.9367 12.6332 6.58535C12.5363 6.16411 12.3531 6.04822 11.9335 6.0335C11.7068 6.02614 11.4908 6.09421 11.2925 6.16227C11.08 6.23585 10.8089 6.25332 10.6666 6.49982L10.6657 6.4989ZM16.8001 7.11329C16.2978 7.02132 15.8106 6.92014 15.3128 6.88979C15.1474 6.87967 14.9785 6.83553 14.8238 6.7739C14.5366 6.65985 14.2432 6.62214 13.941 6.6479C13.837 6.65709 13.7276 6.68928 13.8076 6.85116C13.837 6.90911 13.8387 6.98361 13.8467 7.05075C13.8583 7.15928 13.9161 7.22734 14.0103 7.26689C14.173 7.33587 14.333 7.41313 14.4993 7.47107C14.71 7.54465 14.8994 7.68078 15.1332 7.69273C15.4088 7.70745 15.6871 7.72309 15.912 7.93003C15.9547 7.96958 16.0116 7.9705 16.0676 7.91531C16.3183 7.66422 16.6366 7.48119 16.8001 7.11237V7.11329ZM11.8019 9.74194C12.2669 9.95348 12.7381 10.0022 13.1808 10.1558C13.2368 10.1751 13.3213 10.1632 13.3729 10.1319C13.8885 9.81552 14.3615 9.43842 14.8078 9.02453C14.9056 8.93348 14.9207 8.87369 14.7669 8.83047C14.5029 8.75597 14.2424 8.66859 13.981 8.58581C13.9161 8.56558 13.8716 8.58121 13.8334 8.64376C13.6565 8.939 13.3942 9.12663 13.1195 9.31977C12.931 9.45222 12.7292 9.52488 12.5336 9.62697C12.3113 9.74194 12.0624 9.67572 11.8019 9.74286V9.74194Z" fill="black"/>
<path d="M2.55649 5.07544C2.27911 5.10487 2.07285 4.89424 1.81503 4.8409C1.43363 4.7618 1.06467 4.61648 0.685939 4.51807C0.425449 4.45 0.236971 4.3056 0.17207 4.03796C0.11606 3.8071 0.150733 3.57532 0.348991 3.42172C0.603258 3.2249 0.852191 3.15591 1.17047 3.35366C1.64789 3.65166 2.1742 3.85401 2.71474 4.01128C2.92278 4.07199 3.04547 4.22375 3.05969 4.45736C3.07392 4.67626 3.06414 4.87861 2.85255 5.01473C2.75475 5.07728 2.65607 5.0644 2.55561 5.07636L2.55649 5.07544Z" fill="black"/>
<path d="M9.79341 3.15402C9.53736 3.15402 9.2422 2.97651 9.18619 2.80084C9.10973 2.55986 9.20931 2.24071 9.38534 2.06963C9.63427 1.82682 9.86276 1.56653 10.0246 1.24554C10.1553 0.987086 10.3348 0.756229 10.5927 0.614587C10.7776 0.513414 10.9794 0.500538 11.1563 0.617346C11.3359 0.735994 11.4799 0.890512 11.4435 1.14896C11.4293 1.24738 11.3884 1.30992 11.3208 1.37522C11.0007 1.68426 10.822 2.09263 10.6078 2.47616C10.5082 2.65368 10.3917 2.81739 10.2415 2.95627C10.1046 3.0832 9.96055 3.1715 9.79252 3.15402H9.79341Z" fill="black"/>
<path d="M4.72132 1.17063C4.71598 0.770538 4.81733 0.631656 5.17295 0.515767C5.38099 0.448625 5.69127 0.604063 5.84596 0.827563C6.02644 1.09061 6.10023 1.39965 6.17402 1.69673C6.24603 1.98553 6.46296 2.16764 6.56164 2.42977C6.63277 2.6174 6.60076 2.80043 6.49141 2.92092C6.35005 3.07636 6.17402 3.23915 5.92775 3.18305C5.51701 3.09107 5.29653 2.79307 5.18718 2.40034C5.10805 2.11889 5.0147 1.85033 4.8529 1.60659C4.76132 1.46863 4.69731 1.31319 4.72221 1.16971L4.72132 1.17063Z" fill="black"/>
<path d="M13.6394 4.35022C13.3683 4.35114 13.0873 4.17087 13.0126 3.95657C12.9424 3.75514 13.0447 3.3946 13.2162 3.23548C13.3692 3.09292 13.5772 3.11959 13.755 3.0736C14.0662 2.99267 14.3622 2.90805 14.6334 2.71674C14.8352 2.57418 15.2308 2.71398 15.3802 2.94392C15.5189 3.15822 15.4531 3.43691 15.2299 3.63189C14.9579 3.86919 14.6085 3.93817 14.3009 4.09821C14.1746 4.16443 14.0333 4.18742 13.9239 4.29963C13.8501 4.37505 13.7266 4.33642 13.6394 4.3493V4.35022Z" fill="black"/>
</g>
<defs>
<clipPath id="clip0_149_1142">
<rect width="20" height="24" fill="white" transform="translate(0 0.5)"/>
</clipPath>
</defs>
</svg>
