<svg width="34" height="25" viewBox="0 0 34 25" fill="none" xmlns="http://www.w3.org/2000/svg">
<path d="M28.0098 14.5789C27.8026 15.1924 27.645 15.7252 27.4401 16.2425C27.3117 16.5649 27.4153 16.7709 27.6405 16.9813C27.94 17.259 28.2936 17.4784 28.5278 17.8322C28.949 18.4658 29.4332 19.0614 29.8273 19.7107C30.1628 20.266 30.0953 20.8974 29.9466 21.5041C29.8858 21.7572 29.7822 21.999 29.6967 22.2453C29.5841 22.5699 29.4489 22.8386 29.7282 23.2103C29.9827 23.5461 29.7327 23.976 29.4917 24.2872C29.2868 24.5537 28.9715 24.5358 28.6652 24.4193C28.4918 24.3544 28.3026 24.332 28.1247 24.2738C27.7103 24.1395 27.2869 24.0141 27.2058 23.4879C27.1991 23.4387 27.1518 23.3872 27.109 23.3558C26.7442 23.0849 26.814 22.7558 26.9604 22.402C27.1698 21.9004 27.2959 21.3743 27.3905 20.8392C27.4288 20.6264 27.404 20.4899 27.2058 20.3734C26.8185 20.1473 26.4559 19.8719 26.0573 19.6682C25.5213 19.3928 25.0258 19.0591 24.5191 18.7367C24.0799 18.4591 23.6408 18.3785 23.134 18.5688C22.6386 18.7546 22.1634 18.9741 21.7332 19.2763C21.2265 19.6323 20.704 19.6995 20.141 19.4398C19.4293 19.1106 18.6951 18.8487 17.9947 18.477C17.1322 18.0202 16.4205 17.4045 15.6908 16.7955C15.558 16.6835 15.4634 16.6432 15.3012 16.7507C15.0175 16.9388 14.6954 16.9388 14.3779 16.8604C13.8711 16.7373 13.691 16.2693 14.0243 15.8797C14.1752 15.7029 14.2923 15.5282 14.3621 15.3133C14.4409 15.0737 14.6008 14.8923 14.8125 14.7558C14.9386 14.6751 15.0738 14.6035 15.1886 14.5095C15.8597 13.9631 16.5939 14.0572 17.229 14.4692C17.8866 14.8946 18.6276 15.1924 19.2154 15.7297C19.4586 15.9536 19.8257 16.0118 20.0802 16.2447C20.2131 16.3656 20.3684 16.2872 20.5081 16.2447C20.9562 16.1036 21.2513 15.7521 21.5936 15.4633C21.6747 15.3939 21.6747 15.3066 21.6319 15.2103C21.4922 14.8879 21.6544 14.6572 21.8391 14.3975C22.3661 13.6609 22.7129 12.8347 23.0034 11.9816C23.0507 11.8428 23.0912 11.6973 22.9989 11.5584C22.9088 11.5383 22.8458 11.5808 22.7985 11.639C22.4269 12.0913 21.9967 12.4764 21.4945 12.7809C21.4787 12.7899 21.4562 12.8011 21.4495 12.8145C21.1882 13.3832 20.6094 13.5377 20.1275 13.8221C19.7581 14.0415 19.4023 14.1042 19.0104 13.896C18.587 13.6698 18.1276 13.5377 17.8934 13.0205C17.7965 12.8056 17.4114 12.7026 17.1389 12.5906C16.7403 12.4272 16.3282 12.2996 15.9183 12.1652C15.7584 12.1137 15.5917 12.0757 15.4251 12.0555C14.6706 11.9704 14.4882 12.1428 14.2833 12.8727C13.9725 13.9833 13.709 15.123 13.2405 16.1686C12.7744 17.2142 12.1933 18.2374 11.3105 19.0323C10.9411 19.3659 10.9659 19.5562 11.3781 19.8607C12.0582 20.3645 12.1055 20.8951 11.538 21.4347C11.2384 21.7191 10.9006 21.7213 10.5425 21.6027C10.27 21.5131 10.0471 21.3474 9.85788 21.1302C9.60114 20.8347 9.34215 20.5526 8.87597 20.6041C8.65751 20.6287 8.49761 20.4518 8.4278 20.2413C8.36023 20.0398 8.42329 19.845 8.59896 19.751C8.92551 19.5764 8.86921 19.2405 8.97055 18.9763C9.04262 18.7837 8.87146 18.6964 8.73408 18.6606C7.88054 18.4389 7.0923 18.0381 6.22974 17.8322C5.16675 17.5769 4.25915 17.0284 3.57902 16.1529C3.35606 15.8663 2.76826 15.6827 2.43495 15.8059C2.35613 15.835 2.31334 15.8865 2.29082 15.9603C2.2683 16.032 2.23451 16.0992 2.2165 16.173C2.12416 16.5447 1.9485 16.8358 1.51835 16.8694C1.08819 16.903 0.680563 16.632 0.502647 16.2089C0.376529 15.9088 0.340496 15.5931 0.383286 15.2752C0.410311 15.0782 0.376529 14.9483 0.20537 14.8005C-0.141454 14.5027 -0.0536223 14.1445 0.392294 14.0102C0.892261 13.8601 1.41925 13.8154 1.93724 13.8042C2.84033 13.784 2.84033 13.8042 2.83357 12.9063C2.83357 12.7944 2.83357 12.6824 2.83357 12.5705C2.84483 11.854 3.06329 11.601 3.76144 11.4689C4.66679 11.2987 5.31764 11.7532 5.90544 12.3331C6.09687 12.5212 6.28154 12.6735 6.53603 12.7742C6.91664 12.9265 7.22292 12.8302 7.53822 12.622C8.29718 12.1204 8.9638 11.5405 9.37143 10.6987C9.53133 10.3673 9.75429 10.0561 10.1236 9.79186C9.78131 9.64408 9.5043 9.49183 9.20703 9.40227C8.59896 9.22315 8.13277 8.88282 7.82874 8.32754C7.78595 8.24918 7.74316 8.16409 7.63731 8.13275C7.45939 8.33426 7.43012 8.60518 7.31751 8.83804C7.15311 9.17613 6.92564 9.30375 6.6644 9.19404C6.41217 9.08657 6.33559 8.82684 6.46622 8.47532C6.54504 8.26485 6.64864 8.06558 6.72296 7.85511C6.84006 7.52374 6.83781 7.42746 6.74322 7.05578C6.58332 7.011 6.5608 7.1543 6.50901 7.23938C6.30857 7.5618 6.04958 7.83272 5.74329 8.05214C5.49331 8.23126 5.24558 8.19992 5.09694 7.99169C4.94154 7.77227 4.99334 7.56628 5.169 7.38492C5.2726 7.27744 5.40322 7.1946 5.50457 7.08713C5.8041 6.76919 6.03832 6.41318 6.03381 5.95419C6.02931 5.6855 6.09912 5.43026 6.23425 5.20636C6.44595 4.85707 6.47748 4.51674 6.29055 4.1473C6.232 4.03311 6.20722 3.89653 6.19822 3.76891C6.17569 3.47336 6.04282 3.30543 5.74779 3.21139C5.46628 3.12183 5.29737 2.88674 5.2208 2.5979C5.18252 2.44789 5.16 2.23294 5.27711 2.17697C5.66447 1.99337 5.57438 1.63289 5.65996 1.33286C5.81761 0.782063 6.47973 0.396952 7.09005 0.520098C7.36931 0.576073 7.63956 0.589507 7.92333 0.589507C8.67553 0.587268 9.05388 1.13135 8.78138 1.8344C8.6485 2.17697 8.5922 2.55312 8.32195 2.8442C8.16655 3.01212 8.19808 3.26513 8.18907 3.48903C8.16881 4.00177 8.33321 4.53689 7.99765 5.0138C7.96386 5.06082 7.98864 5.16157 8.01116 5.23098C8.20259 5.7773 8.38951 6.32586 8.72958 6.80501C8.95254 7.11847 9.24306 7.34238 9.63042 7.43418C10.0313 7.52821 10.4299 7.63569 10.833 7.72749C11.0245 7.77227 11.2114 7.74316 11.3668 7.61777C11.6145 7.4185 11.9028 7.28416 12.2113 7.10504C11.7902 6.71321 11.342 6.4199 10.8421 6.21391C10.52 6.07957 10.2452 5.90269 10.0493 5.61386C9.91193 5.40787 9.72726 5.2489 9.52007 5.11903C9.32413 4.99589 9.2318 4.82348 9.26783 4.59958C9.39845 3.7801 9.76555 3.19572 10.6461 2.94047C11.878 2.58223 13.1437 2.43669 14.4229 2.40983C14.6954 2.40311 14.9589 2.40535 15.112 2.67627C15.1796 2.7927 15.2832 2.79494 15.3936 2.82181C15.9205 2.95167 15.9791 3.07929 16.1052 3.61442C16.2426 4.1988 16.1322 4.76303 16.0782 5.33398C16.0331 5.81089 15.7764 6.17137 15.344 6.39527C15.1773 6.48035 15.0129 6.57439 14.8395 6.64156C14.6008 6.7356 14.4747 6.82964 14.6076 7.13191C14.8103 7.59762 14.6594 8.13275 14.835 8.61637C14.9296 8.87834 14.9927 9.1515 15.0625 9.42242C15.1706 9.84112 15.4611 10.0605 15.8733 10.074C16.416 10.0919 16.8912 10.2755 17.3664 10.5151C17.7312 10.6987 18.1299 10.8263 18.524 10.9427C18.8888 11.0524 19.2311 11.189 19.5126 11.4532C19.6861 11.6144 19.8122 11.5674 19.9833 11.4039C20.6567 10.7569 21.3819 10.1703 22.1611 9.6508C22.4449 9.46048 22.7287 9.36197 23.0597 9.48959C23.2534 9.56572 23.4358 9.52542 23.6002 9.42914C24.2218 9.0597 24.9312 9.08657 25.6113 8.98133C25.9424 8.92984 26.1744 8.67907 26.055 8.34993C25.9604 8.09021 26.0077 7.87974 26.1046 7.65136C26.3005 7.18564 26.4919 6.71545 26.8905 6.37512C26.9964 6.28332 27.0302 6.17361 27.0639 6.04151C27.2531 5.28024 27.7689 4.97574 28.4985 5.27129C28.9557 5.45489 29.4354 5.63177 29.8138 5.99225C29.9917 6.16241 30.0998 6.32362 30.102 6.5632C30.1133 7.78346 29.8205 8.86043 28.69 9.54557C28.3927 9.72693 28.1562 9.93515 28.1945 10.3382C28.208 10.4725 28.2328 10.5486 28.3589 10.58C28.8116 10.6964 29.0165 11.0793 29.1989 11.4353C29.4151 11.8585 29.8363 12.1204 30.0097 12.566C30.0638 12.7026 30.1921 12.6712 30.2845 12.5817C30.7551 12.1227 31.2574 11.704 31.8497 11.4017C31.9578 11.348 31.969 11.2159 32.0096 11.1151C32.0861 10.9226 32.1852 10.7457 32.3249 10.5889C32.6762 10.1949 32.9464 10.1188 33.3631 10.3024C33.7752 10.4837 34.068 10.9741 33.9779 11.3905C33.8833 11.8271 33.791 12.2794 33.3158 12.5011C33.2122 12.5481 33.1514 12.6376 33.0973 12.7451C32.6649 13.6385 32.0028 14.3393 31.2146 14.9304C30.7506 15.2774 30.2349 15.3872 29.6696 15.2461C29.1111 15.1073 28.503 15.0961 28.0008 14.5833L28.0098 14.5789ZM18.7041 11.9503C18.6523 11.8943 18.6253 11.8338 18.5803 11.8182C17.8799 11.5584 17.1592 11.3435 16.4926 10.9964C16.3304 10.9114 16.139 10.88 15.9476 10.8778C15.076 10.8666 14.4905 10.4748 14.2472 9.61945C14.2022 9.46272 14.1504 9.2948 13.9252 9.28808C13.1414 9.26569 12.673 8.86267 12.5266 8.09245C12.3037 8.09468 12.146 8.19992 11.9996 8.31187C11.5109 8.69026 10.9862 8.71489 10.4051 8.5492C9.87365 8.39695 9.33089 8.26709 8.77913 8.08125C8.83543 8.34322 9.00884 8.42606 9.17775 8.49547C9.80158 8.75295 10.4254 9.00373 11.0538 9.24554C11.2925 9.33734 11.5177 9.43809 11.5357 9.72693C11.5537 10.0337 11.3578 10.215 11.092 10.3024C10.6123 10.4591 10.3106 10.7905 10.0853 11.2203C9.97274 11.4353 9.83761 11.639 9.71375 11.8473C9.21153 12.6891 8.3715 13.1213 7.56524 13.5915C7.47291 13.6452 7.35129 13.6676 7.24319 13.6788C6.51351 13.7527 5.88067 13.5579 5.36719 13.0116C5.02937 12.6533 4.65102 12.3443 4.12403 12.3264C3.78396 12.3152 3.72541 12.369 3.7209 12.7026C3.71865 13.0743 3.73216 13.4482 3.75468 13.8198C3.87179 15.7096 4.75462 16.4977 6.38289 17.0328C7.28823 17.3306 8.16881 17.7023 9.08992 17.9575C9.2881 18.0113 9.44124 18.168 9.60565 18.2912C10.0471 18.6203 10.5898 18.5889 10.9862 18.2195C11.2339 17.9889 11.4411 17.7247 11.6145 17.4336C11.7969 17.1291 11.9839 16.8268 12.1821 16.5335C12.405 16.2044 12.5717 15.8551 12.6843 15.4767C12.8622 14.8677 13.0379 14.2587 13.2405 13.6564C13.3531 13.3228 13.5693 13.0205 13.5581 12.6533C13.5401 12.013 14.1031 11.6793 14.3351 11.1711C14.3801 11.0748 14.531 11.0121 14.6323 11.0457C15.049 11.18 15.4904 11.0368 15.907 11.189C16.5579 11.4241 17.193 11.695 17.8146 11.9973C18.1321 12.1518 18.4069 12.1697 18.7064 11.9525L18.7041 11.9503ZM24.929 15.9223C24.6542 16.0298 24.5776 16.2156 24.447 16.3455C24.3096 16.482 24.1295 16.6231 23.9515 16.5335C23.616 16.3634 23.1993 16.3656 22.9246 16.1036C22.6588 15.8506 22.4787 15.929 22.2625 16.135C22.1138 16.276 21.9494 16.4037 21.794 16.538C21.4652 16.8246 21.0936 17.0351 20.6725 17.1605C20.2311 17.2948 19.8212 17.306 19.4879 16.9142C19.4293 16.8448 19.3415 16.7977 19.2604 16.753C18.4924 16.3253 17.747 15.8618 17.0196 15.3737C16.7876 15.2192 16.6322 15.1677 16.4993 15.4633C16.4701 15.5305 16.4183 15.5931 16.362 15.6402C16.121 15.8394 16.193 16.0409 16.3822 16.2044C16.8191 16.585 17.2358 17.006 17.7245 17.306C18.4857 17.7717 19.2739 18.2038 20.1095 18.5442C20.6297 18.7569 21.0621 18.777 21.5193 18.4188C21.9967 18.0449 22.5597 17.8277 23.1385 17.6575C23.4088 17.5769 23.6903 17.4963 23.9673 17.6083C24.3299 17.7538 24.706 17.8545 25.0416 18.0852C25.4537 18.3718 25.8861 18.6315 26.3478 18.8532C26.8703 19.1017 27.3657 19.4151 27.8454 19.7376C28.2103 19.9816 28.3859 20.3287 28.2823 20.8011C28.163 21.3474 28.0842 21.9027 27.9107 22.4378C27.8184 22.7222 27.931 22.8431 28.2305 22.8296C28.4242 22.8207 28.5278 22.7132 28.6134 22.5498C28.8611 22.084 29.03 21.5847 29.1607 21.0854C29.2688 20.6757 29.235 20.2548 28.9625 19.8562C28.771 19.5764 28.494 19.3659 28.3476 19.0614C28.0932 18.524 27.6855 18.1232 27.2396 17.7448C27.0459 17.5814 26.8568 17.4784 26.582 17.5187C26.2217 17.5724 25.8748 17.4493 25.537 17.3373C25.2037 17.2254 25.0145 16.9903 24.992 16.6298C24.9785 16.4126 24.9515 16.1954 24.9245 15.9223H24.929ZM20.5937 12.3242C21.1139 11.9973 21.6071 11.7488 21.9584 11.3032C22.1341 11.0815 22.339 10.8935 22.5778 10.739C22.9471 10.5016 23.348 10.4568 23.7646 10.5576C24.0101 10.6158 24.2308 10.8128 24.1272 11.0323C23.9223 11.4689 24.0056 11.9503 23.8209 12.3824C23.5664 12.9825 23.339 13.5937 23.0102 14.1624C22.5913 14.8879 22.6228 14.9617 23.3637 15.3625C23.5011 15.4364 23.6498 15.4454 23.7961 15.4745C23.8952 15.4946 23.9808 15.4655 24.0551 15.4006C24.4628 15.0401 24.8727 14.6281 25.0753 14.1579C25.4041 13.3967 25.5505 12.5548 25.7667 11.7443C25.8185 11.5472 25.7757 11.4129 25.5415 11.3144C24.8614 11.03 24.7758 10.7524 25.1136 10.1053C25.1407 10.0561 25.1654 10.0135 25.1204 9.92844C24.8569 9.96874 24.5619 9.97993 24.3344 10.1322C23.9358 10.3964 23.5056 10.383 23.089 10.3024C22.7962 10.2441 22.5868 10.3158 22.3616 10.4613C21.8075 10.8196 21.3819 11.3233 20.8684 11.7286C20.7175 11.8473 20.5982 12.0242 20.5937 12.3242ZM26.7194 11.6435C26.4153 12.7205 26.0708 13.6877 25.9965 14.7177C25.9739 15.0155 25.9807 15.3133 25.9041 15.6043C25.8411 15.8417 25.8613 16.0857 25.9041 16.3275C25.9379 16.5134 26.1 16.5425 26.2442 16.5671C26.3928 16.5917 26.4176 16.4641 26.4536 16.3566C26.609 15.8977 26.7599 15.4387 26.9243 14.9819C27.0639 14.5901 27.154 14.1982 27.0392 13.7795C26.9941 13.6183 26.9986 13.4459 27.0527 13.2825C27.1901 12.8795 27.5684 12.763 27.895 13.034C27.9918 13.1146 28.0796 13.2243 28.1382 13.3362C28.226 13.5064 28.3679 13.6251 28.485 13.7661C28.8476 14.1982 29.3836 14.187 29.8521 14.3505C30.1628 14.4602 30.4376 14.393 30.7033 14.2162C31.2596 13.8512 31.6853 13.3564 32.1019 12.8504C32.2798 12.6332 32.2303 12.454 32.0771 12.2346C31.6875 12.4227 31.3857 12.6981 31.093 12.9825C30.9173 13.1504 30.7506 13.3273 30.5277 13.437C30.0953 13.6497 29.7552 13.6139 29.5007 13.2019C29.2125 12.7362 28.7688 12.407 28.5008 11.9324C28.4287 11.8047 28.3161 11.6973 28.2125 11.5898C28.1112 11.4823 27.9986 11.4443 27.877 11.5741C27.5459 11.9301 27.1721 11.9704 26.7216 11.6435H26.7194ZM28.3927 6.73112C28.3927 6.73112 28.3927 6.72217 28.3927 6.71545C28.2801 6.71545 28.163 6.6953 28.0571 6.71993C27.7463 6.79382 27.4513 6.89681 27.2464 7.17221C27.0594 7.42522 27.118 7.63793 27.2734 7.88198C27.3342 7.97826 27.2982 8.13499 27.3094 8.26261C27.3252 8.4283 27.3252 8.6007 27.368 8.75967C27.431 8.99701 27.6788 9.14254 27.8927 9.03507C28.5053 8.72385 29.0503 8.32754 29.2192 7.60882C29.3836 6.90801 29.2485 6.75128 28.5053 6.72889C28.467 6.72889 28.431 6.72889 28.3927 6.72889V6.73112ZM15.0062 4.18089C14.6594 4.32642 14.3824 4.60406 13.9972 4.6578C13.5716 4.71601 13.477 4.83468 13.4703 5.2489C13.4635 5.73028 13.6437 5.99225 14.0108 6.03703C14.5828 6.10868 15.2809 5.51086 15.3305 4.93767C15.3598 4.61973 15.1931 4.41374 15.0062 4.18089ZM10.3421 4.30851C10.4614 4.37792 10.5335 4.34881 10.6033 4.32642C11.2609 4.11372 11.9298 3.95251 12.6122 3.84056C13.0086 3.77563 13.3667 3.55396 13.781 3.52038C13.8779 3.51366 13.9927 3.44873 13.9837 3.30543C12.8825 3.23826 11.8465 3.56292 10.8083 3.84951C10.6011 3.90773 10.4119 4.05102 10.3443 4.30851H10.3421ZM11.0853 5.20636C11.4028 5.39219 11.6641 5.57355 11.9501 5.70566C12.2203 5.8288 12.3712 6.18033 12.7901 6.14226C12.6482 5.66759 12.655 5.21083 12.6302 4.75855C12.0424 4.78318 11.6235 4.90409 11.0875 5.20636H11.0853ZM3.00699 14.8296C2.89438 14.7647 2.85159 14.7177 2.80655 14.7155C2.58359 14.7087 2.36288 14.7155 2.13993 14.7177C1.44403 14.7266 1.2526 14.955 1.34043 15.6737C1.43051 15.6491 1.42826 15.5663 1.45078 15.5013C1.64672 14.9438 1.7413 14.8834 2.34487 14.9013C2.54305 14.9058 2.74799 14.9595 3.00473 14.8319L3.00699 14.8296ZM7.97963 1.42914C7.59002 1.53213 7.30625 1.57691 7.02474 1.39555C6.8761 1.30151 6.66215 1.33062 6.57657 1.49407C6.50225 1.63737 6.66665 1.7538 6.76349 1.85903C6.83781 1.93963 6.9279 1.92172 7.00897 1.85231C7.14185 1.73812 7.30625 1.63961 7.4684 1.7426C7.75892 1.9262 7.81072 1.70006 7.97963 1.43138V1.42914ZM7.28148 4.27716C7.4076 3.96146 7.33778 3.65472 7.31075 3.34797C7.304 3.27856 7.29724 3.19348 7.2004 3.18453C7.08554 3.17557 7.02699 3.25393 7.00897 3.34797C6.94366 3.69502 7.05852 3.99729 7.28148 4.27716ZM13.5198 7.07369C13.495 7.45433 13.4094 7.83272 13.5513 8.19768C13.5896 8.29844 13.6729 8.40143 13.8013 8.36561C13.9162 8.33202 13.8599 8.21559 13.8711 8.13275C13.9342 7.71853 13.5266 7.46776 13.5198 7.07593V7.07369ZM19.8955 12.8615C19.8797 12.6623 19.7041 12.669 19.5712 12.6309C19.346 12.566 19.1816 12.7115 19.1456 12.8817C19.1095 13.0451 19.328 13.0832 19.4609 13.1213C19.6298 13.1705 19.8775 13.0116 19.8955 12.8615ZM10.3263 20.21C10.2588 19.9436 10.2092 19.7488 10.1597 19.5584C10.1236 19.4241 10.0651 19.2942 9.89617 19.3681C9.75654 19.4286 9.72726 19.5741 9.77906 19.7017C9.86689 19.91 10.02 20.0689 10.3263 20.2122V20.21ZM7.10356 5.63177C7.06452 5.85418 7.16061 6.06166 7.39183 6.25421C7.34679 6.00121 7.28823 5.80417 7.10356 5.63177ZM26.5122 9.97322C26.5234 9.88366 26.4626 9.87246 26.4131 9.87918C26.2464 9.89933 26.2239 10.0314 26.2104 10.1613C26.2036 10.2217 26.2442 10.2732 26.3072 10.2621C26.4694 10.2329 26.4536 10.0695 26.5122 9.97322ZM11.0222 20.7586C10.8758 20.5593 10.7655 20.4854 10.5673 20.5235C10.6829 20.6294 10.8345 20.7078 11.0222 20.7586Z" fill="black"/>
</svg>
