<svg width="220" height="82" viewBox="0 0 220 82" fill="none" xmlns="http://www.w3.org/2000/svg">
<g clip-path="url(#clip0_202_2)">
<path d="M44.1351 47.4707C47.2851 42.4207 50.5151 37.4207 53.5651 32.3107C55.8151 28.5307 57.8251 24.6107 59.9551 20.7607C61.7051 17.6007 64.3651 16.4607 66.9151 17.7607C69.5851 19.1207 70.3851 22.4207 68.6151 25.5707C65.8851 30.4107 63.2951 35.3807 60.1351 39.9407C53.5751 49.4207 49.1151 59.7907 46.0051 70.8207C45.5751 72.3407 45.0451 73.8407 44.0151 75.0907C42.5151 76.9207 40.6951 78.2207 38.1851 77.6407C35.7651 77.0907 34.3451 75.3807 33.7451 73.0507C32.7251 69.0307 33.1451 64.9507 33.4951 60.9007C34.2051 52.6207 34.5351 44.3207 34.4151 36.0007C34.4151 35.4607 34.6651 34.6607 33.9951 34.4507C33.1351 34.1807 32.9551 35.1207 32.6351 35.6207C27.8751 43.2207 23.1451 50.8507 18.3851 58.4607C17.1051 60.5007 15.7551 62.5007 14.4351 64.5107C13.0151 66.6607 11.8351 68.7707 11.7651 71.5707C11.6851 74.9707 8.20513 77.3007 5.06513 76.6007C1.94513 75.9107 0.195128 72.7507 1.15513 69.3807C1.61513 67.7807 2.35513 66.2807 3.29513 64.9007C13.6051 49.6907 22.6951 33.7307 32.1551 17.9907C32.6651 17.1407 33.1751 16.2707 33.7651 15.4707C35.0551 13.7107 36.7651 12.7807 38.9551 13.3607C41.2251 13.9607 42.2151 15.6407 42.5951 17.9107C43.6651 24.3507 43.4151 30.8307 43.4351 37.3107C43.4351 40.6207 43.4351 43.9307 43.4351 47.2407L44.1351 47.4807V47.4707Z" fill="black"/>
<path d="M211.905 38.8307C206.475 37.9007 201.285 39.6207 196.025 40.7407C194.325 41.1007 193.395 42.0007 193.045 43.8807C191.255 53.3307 189.285 62.7507 187.405 72.1907C187.035 74.0607 186.955 75.9907 186.485 77.8307C185.695 80.8907 183.475 82.3907 180.865 81.9007C178.275 81.4107 176.755 79.1707 177.205 76.0007C177.945 70.7407 178.765 65.4807 180.355 60.3907C181.795 55.7607 182.255 50.9607 183.165 46.2407C183.405 45.0007 182.935 44.5307 181.695 44.7107C177.685 45.2907 173.605 45.4307 170.095 48.0007C167.975 49.5507 165.525 49.4507 163.325 47.9107C161.435 46.5907 160.725 44.6807 161.125 42.4507C161.575 39.9007 163.225 38.4707 165.705 37.7507C171.315 36.1307 177.055 35.2207 182.835 34.5907C184.895 34.3707 185.865 33.5207 186.285 31.4407C187.755 24.1207 189.435 16.8307 190.975 9.52069C191.225 8.31069 191.235 7.05069 191.285 5.81069C191.445 2.25069 193.875 -0.139312 197.135 0.110688C200.335 0.360688 202.615 3.17069 202.025 6.66069C201.445 10.0907 200.455 13.4507 199.615 16.8307C198.635 20.7807 197.685 24.7307 196.615 28.6607C196.095 30.5607 196.455 31.3507 198.565 30.8707C202.935 29.8707 207.455 29.8207 211.805 28.5807C214.155 27.9107 216.485 28.2907 218.085 30.4607C219.275 32.0607 219.465 33.8407 218.565 35.6307C217.205 38.3207 214.715 38.8007 211.935 38.8107L211.905 38.8307Z" fill="black"/>
<path d="M68.3649 66.491C68.3649 63.401 69.0649 59.661 70.4149 56.041C70.7749 55.091 70.9249 54.121 70.9549 53.121C70.9849 52.111 71.0249 51.011 71.7249 50.281C75.5949 46.221 77.125 40.791 80.125 36.221C84.605 29.411 92.4649 25.971 100.385 27.491C102.075 27.811 103.615 28.481 104.755 29.731C107.585 32.821 111.205 41.491 108.375 46.911C106.165 51.151 102.505 53.641 98.2749 55.351C93.1649 57.421 87.825 58.751 82.265 58.721C80.335 58.721 79.445 59.551 78.905 61.301C78.125 63.881 77.9549 66.531 77.7249 69.171C77.575 70.861 78.4549 71.721 80.2349 71.861C83.3449 72.121 85.7149 70.931 87.6349 68.581C88.8349 67.111 89.8449 65.451 91.5049 64.381C93.7449 62.931 96.3949 63.101 98.1749 64.801C99.9849 66.531 100.285 69.171 98.9249 71.421C95.1049 77.771 82.7149 82.401 75.7049 80.091C70.2649 78.301 67.965 74.291 68.375 66.471L68.3649 66.491ZM99.5049 41.001C99.4149 37.631 97.6949 36.351 94.4849 37.261C89.6749 38.611 87.9049 42.741 85.9549 46.661C85.4849 47.611 86.1949 48.091 87.1049 47.941C90.9649 47.321 94.7649 46.461 97.9149 43.941C98.8349 43.211 99.5649 42.301 99.5049 41.001Z" fill="black"/>
<path d="M160.415 25.8003C160.445 27.0203 159.885 28.2003 159.025 29.2703C153.955 35.5603 149.955 42.5803 145.355 49.1903C144.575 50.3103 144.675 51.2903 145.295 52.4203C147.655 56.7203 149.665 61.1703 151.035 65.9104C151.655 68.0604 152.965 69.9303 154.325 71.7403C156.445 74.5703 156.165 77.5003 153.725 79.1803C151.385 80.7903 148.205 80.0403 146.385 77.2603C144.145 73.8403 142.345 70.1903 141.245 66.2304C140.655 64.1304 139.615 62.2403 138.755 60.2703C138.005 58.5603 137.235 58.9203 136.245 60.0503C132.465 64.3603 128.655 68.6403 124.845 72.9303C123.855 74.0503 122.915 75.2303 121.805 76.2203C119.745 78.0603 117.115 78.1503 115.195 76.6003C113.255 75.0303 112.775 72.5003 114.085 70.0703C115.395 67.6303 117.275 65.6203 119.215 63.6703C123.375 59.4804 127.265 55.0503 131.045 50.5103C132.175 49.1503 132.325 48.0503 131.465 46.5003C128.885 41.8403 127.305 36.7303 125.225 31.8503C124.565 30.2903 124.385 28.6303 124.505 26.9603C124.725 23.9703 126.785 21.8503 129.525 21.7303C132.365 21.6003 134.945 23.6703 135.065 26.6803C135.235 30.7003 137.005 34.2003 138.125 37.9103C138.305 38.5003 138.435 39.4203 139.105 39.5303C139.975 39.6603 140.245 38.7003 140.645 38.1003C143.615 33.6903 146.465 29.2003 148.885 24.4603C149.955 22.3703 151.515 20.8303 153.895 20.3103C157.365 19.5403 160.485 22.0903 160.405 25.8103L160.415 25.8003Z" fill="black"/>
</g>
<defs>
<clipPath id="clip0_202_2">
<rect width="218.21" height="81.89" fill="white" transform="translate(0.89502 0.110352)"/>
</clipPath>
</defs>
</svg>
