<svg width="38" height="21" viewBox="0 0 38 21" fill="none" xmlns="http://www.w3.org/2000/svg">
<g clip-path="url(#clip0_149_526)">
<path d="M13.115 12.1091C14.155 9.35914 14.955 6.72914 15.535 4.02914C15.655 3.48914 15.655 2.90914 15.855 2.39914C16.155 1.63914 16.815 1.34914 17.605 1.49914C18.305 1.62914 18.745 2.09914 18.825 2.79914C18.935 3.75914 18.775 4.70914 18.525 5.63914C17.605 9.02914 16.675 12.4091 15.755 15.7891C15.455 16.8991 15.065 17.9591 13.715 18.1591C12.655 18.3191 11.705 17.6291 11.045 16.1791C10.065 13.9991 8.68498 12.0291 7.87498 9.75914C7.63498 9.09914 7.21498 8.50914 6.56498 7.97914C6.06498 8.54914 5.98498 9.15914 5.93498 9.75914C5.69498 12.5591 4.84498 15.2291 4.28498 17.9591C4.19498 18.4191 4.02498 18.8991 3.75498 19.2691C3.30498 19.8791 2.64498 20.2091 1.86498 19.9591C1.01498 19.6891 0.504981 19.0891 0.524981 18.1791C0.524981 17.7891 0.624981 17.3791 0.784981 17.0291C2.32498 13.5491 2.68498 9.80914 3.27498 6.11914C3.71498 3.35914 5.75498 2.54914 7.88498 4.35914C9.42498 5.65914 10.445 7.37914 11.295 9.20914C11.735 10.1691 11.895 11.3491 13.115 12.1091Z" fill="black"/>
<path d="M37.4752 8.62954C37.1052 11.0695 36.1752 13.6495 34.0252 15.6495C33.0452 16.5495 31.8252 16.9095 30.5152 16.9595C25.3852 17.1495 21.8652 13.0295 22.8152 7.91954C22.9952 6.97954 23.3752 6.07954 23.5152 5.13954C23.8152 3.11954 25.1252 1.98954 26.7552 0.979538C28.9752 -0.390462 31.0952 0.299538 33.1352 1.18954C35.3352 2.13954 37.4652 5.83954 37.4652 8.62954H37.4752ZM25.9852 9.62954C26.0752 10.0095 26.1752 10.7295 26.4052 11.3995C27.0352 13.2595 30.2752 14.1495 31.8152 12.9295C34.5752 10.7495 34.6152 6.40954 31.8652 4.22954C31.1852 3.69954 30.3352 3.21954 29.4552 3.57954C27.4452 4.39954 25.9252 6.98954 25.9852 9.61954V9.62954Z" fill="black"/>
</g>
<defs>
<clipPath id="clip0_149_526">
<rect width="36.95" height="19.83" fill="white" transform="translate(0.525391 0.209961)"/>
</clipPath>
</defs>
</svg>
