<svg width="181" height="68" viewBox="0 0 181 68" fill="none" xmlns="http://www.w3.org/2000/svg">
<g clip-path="url(#clip0_149_567)">
<path d="M30.2071 36.1568C35.4456 41.4471 38.5887 47.5462 44.1313 51.6236C46.9364 53.7127 47.2068 56.7455 44.8748 59.4075C42.8132 61.7663 40.1433 61.7663 37.5748 60.014C34.6345 58.0259 32.5053 55.2291 30.2409 52.5334C26.1516 47.6136 22.096 42.6265 15.2353 38.8862C14.627 45.4907 14.0862 51.2192 13.6131 56.9476C13.5117 58.2955 13.6469 59.6434 13.6131 60.9912C13.5117 64.3946 11.7881 66.5849 8.476 67.3262C5.53571 68.0002 2.18986 65.7425 1.10837 62.3728C0.162069 59.4749 0.567626 56.5096 0.905591 53.5443C2.46023 40.2004 4.18385 26.8565 5.5695 13.4789C6.21164 7.34605 9.21952 3.7405 15.0663 1.88718C23.3802 -0.741167 31.4914 -0.80856 39.535 2.76329C45.348 5.32424 47.3757 8.66022 46.2267 14.8604C44.9762 21.7009 42.1035 27.6315 36.1553 31.7425C34.3979 32.9556 32.7081 34.2697 30.2071 36.1568ZM16.1816 21.8019C15.4719 24.6999 16.7899 26.1825 19.8992 26.2162C24.8673 26.2836 32.9446 20.5215 34.3303 15.9724C34.8373 14.2202 34.7021 12.8386 32.9109 11.9625C28.1793 9.60373 23.414 10.2777 18.8515 12.131C15.2691 13.5799 17.2293 17.354 16.4182 20.016C16.283 20.5215 16.283 21.0943 16.1816 21.8019Z" fill="black"/>
<path d="M114.902 41.8515C119.092 33.9328 122.202 27.463 124.229 20.4541C125.649 15.5344 127.474 10.7495 130.347 6.43628C132.239 3.60575 134.841 2.32528 137.951 4.01011C141.026 5.66125 141.635 8.59287 140.35 11.693C133.726 27.5641 128.184 43.806 122.844 60.1489C121.695 63.687 119.768 66.5512 115.544 66.5175C111.623 66.5175 110.069 63.5859 108.717 60.5532C103.073 47.7148 99.3552 34.2361 95.1644 20.9259C94.3533 18.3986 93.4408 15.8714 92.6973 13.3104C91.8523 10.4462 92.6973 7.98633 95.1982 6.2341C98.0709 4.24599 100.842 4.85253 103.377 6.94173C105.54 8.72765 106.926 11.1201 107.331 13.8159C108.615 22.9477 112.603 31.2708 114.935 41.8178L114.902 41.8515Z" fill="black"/>
<path d="M71.4388 2.86393C77.1166 2.93133 81.8819 5.39119 86.2079 8.72716C88.6074 10.6142 89.1144 13.3099 87.2218 15.9046C85.3292 18.4655 82.693 18.6677 80.0569 17.1513C78.4347 16.2078 77.1842 14.6241 75.5282 13.8154C72.2837 12.2316 69.1744 12.7034 66.8763 15.7024C65.0175 18.1622 64.7133 20.7569 67.6536 22.6439C70.5939 24.5309 73.7032 26.1821 76.7787 27.8332C77.9615 28.4734 79.4148 28.6756 80.4625 29.4507C89.3847 35.853 92.7644 41.5815 88.9792 49.4665C84.4505 58.969 74.7509 63.6191 65.8624 60.4516C62.28 59.1712 58.9003 57.4863 55.9262 55.1613C53.797 53.4764 51.8707 51.4883 51.1271 48.8263C50.2484 45.7599 50.654 42.8957 53.5943 41.0086C56.3656 39.2227 60.117 39.8292 62.0772 42.963C63.6994 45.5577 65.1865 47.8154 68.1606 49.0622C70.6953 50.1404 72.7231 50.0394 74.8861 48.3208C78.9078 45.1196 78.9078 42.2217 74.4129 39.6608C70.9319 37.639 67.1805 36.0552 63.6318 34.1345C55.5545 29.7876 52.31 23.4526 54.1688 15.7698C56.0614 7.95214 63.0235 2.79654 71.5402 2.86393H71.4388Z" fill="black"/>
<path d="M180.5 25.8459C180.196 37.6397 175.329 43.8062 163.703 45.7943C155.626 47.1759 156.809 47.4118 156.741 53.8815C156.741 56.5436 156.437 59.273 155.795 61.8677C154.713 66.3493 151.334 68.6407 147.65 67.8657C144.203 67.1244 142.141 64.159 142.547 59.8796C142.918 55.8696 143.966 51.9271 144.304 47.9509C144.98 39.3919 147.312 31.0689 147.008 22.3751C146.906 20.05 147.785 17.6239 148.495 15.2988C149.745 11.1204 152.618 8.55944 156.91 7.48115C168.976 4.38105 180.703 13.5129 180.5 25.8459ZM158.33 27.5981C159.175 29.6199 156.944 33.5624 161.27 34.27C165.461 34.944 168.536 31.7765 168.84 26.9916C168.874 26.4524 168.908 25.9133 168.84 25.4078C168.604 21.9033 165.63 19.3761 161.777 19.5109C158.093 19.6457 158.972 22.6784 158.465 24.8013C158.296 25.5763 158.363 26.385 158.296 27.5981H158.33Z" fill="black"/>
</g>
<defs>
<clipPath id="clip0_149_567">
<rect width="180" height="68" fill="white" transform="translate(0.5)"/>
</clipPath>
</defs>
</svg>
