<svg width="244" height="68" viewBox="0 0 244 68" fill="none" xmlns="http://www.w3.org/2000/svg">
<g clip-path="url(#clip0_113_249)">
<path d="M29.7071 36.1567C34.9456 41.4471 38.0887 47.5462 43.6313 51.6236C46.4364 53.7127 46.7068 56.7455 44.3748 59.4075C42.3132 61.7663 39.6433 61.7663 37.0748 60.014C34.1345 58.0259 32.0053 55.2291 29.7409 52.5334C25.6516 47.6136 21.596 42.6265 14.7353 38.8862C14.127 45.4907 13.5862 51.2192 13.1131 56.9476C13.0117 58.2955 13.1469 59.6434 13.1131 60.9912C13.0117 64.3946 11.2881 66.5849 7.976 67.3262C5.03571 68.0002 1.68986 65.7425 0.60837 62.3728C-0.337931 59.4749 0.0676261 56.5096 0.405591 53.5443C1.96023 40.2004 3.68385 26.8565 5.0695 13.4789C5.71164 7.34605 8.71952 3.7405 14.5663 1.88718C22.8802 -0.741167 30.9914 -0.80856 39.035 2.76329C44.848 5.32424 46.8757 8.66022 45.7267 14.8604C44.4762 21.7009 41.6035 27.6315 35.6553 31.7425C33.8979 32.9556 32.2081 34.2697 29.7071 36.1567ZM15.6816 21.8019C14.9719 24.6999 16.2899 26.1825 19.3992 26.2162C24.3673 26.2836 32.4446 20.5215 33.8303 15.9724C34.3372 14.2202 34.2021 12.8386 32.4109 11.9625C27.6793 9.60373 22.914 10.2777 18.3515 12.131C14.7691 13.5799 16.7293 17.354 15.9182 20.016C15.783 20.5215 15.783 21.0943 15.6816 21.8019Z" fill="black"/>
<path d="M114.401 41.8515C118.592 33.9328 121.701 27.463 123.729 20.4541C125.148 15.5344 126.973 10.7495 129.846 6.43628C131.739 3.60575 134.341 2.32528 137.45 4.01011C140.526 5.66125 141.134 8.59287 139.85 11.693C133.226 27.5641 127.683 43.806 122.343 60.1489C121.194 63.687 119.268 66.5512 115.043 66.5175C111.123 66.5175 109.568 63.5859 108.216 60.5532C102.572 47.7148 98.8547 34.2361 94.6639 20.9259C93.8528 18.3986 92.9403 15.8714 92.1968 13.3104C91.3519 10.4462 92.1968 7.98633 94.6977 6.2341C97.5704 4.24599 100.342 4.85253 102.876 6.94173C105.039 8.72765 106.425 11.1201 106.831 13.8159C108.115 22.9477 112.103 31.2708 114.435 41.8178L114.401 41.8515Z" fill="black"/>
<path d="M70.9388 2.86393C76.6166 2.93133 81.3819 5.39119 85.7079 8.72716C88.1074 10.6142 88.6144 13.3099 86.7218 15.9046C84.8292 18.4655 82.193 18.6677 79.5569 17.1513C77.9347 16.2078 76.6842 14.6241 75.0282 13.8154C71.7837 12.2316 68.6744 12.7034 66.3763 15.7024C64.5175 18.1622 64.2133 20.7569 67.1536 22.6439C70.0939 24.5309 73.2032 26.1821 76.2787 27.8332C77.4615 28.4734 78.9148 28.6756 79.9625 29.4507C88.8847 35.853 92.2644 41.5815 88.4792 49.4665C83.9505 58.969 74.2509 63.6191 65.3624 60.4516C61.78 59.1712 58.4003 57.4863 55.4262 55.1613C53.297 53.4764 51.3707 51.4883 50.6271 48.8263C49.7484 45.7599 50.154 42.8957 53.0943 41.0086C55.8656 39.2227 59.617 39.8293 61.5772 42.963C63.1994 45.5577 64.6865 47.8154 67.6606 49.0622C70.1953 50.1404 72.2231 50.0394 74.386 48.3208C78.4078 45.1196 78.4078 42.2217 73.9129 39.6608C70.4319 37.639 66.6805 36.0552 63.1318 34.1345C55.0545 29.7876 51.81 23.4526 53.6688 15.7698C55.5614 7.95214 62.5235 2.79654 71.0402 2.86393H70.9388Z" fill="black"/>
<path d="M180 25.8459C179.696 37.6397 174.829 43.8062 163.203 45.7943C155.126 47.1759 156.309 47.4118 156.241 53.8815C156.241 56.5436 155.937 59.273 155.295 61.8677C154.213 66.3493 150.834 68.6407 147.15 67.8657C143.703 67.1244 141.641 64.159 142.047 59.8796C142.418 55.8696 143.466 51.9271 143.804 47.9509C144.48 39.3919 146.812 31.0689 146.508 22.3751C146.406 20.05 147.285 17.6239 147.995 15.2988C149.245 11.1204 152.118 8.55944 156.41 7.48115C168.476 4.38105 180.203 13.5129 180 25.8459ZM157.83 27.5981C158.675 29.6199 156.444 33.5624 160.77 34.27C164.961 34.944 168.036 31.7765 168.34 26.9916C168.374 26.4524 168.408 25.9133 168.34 25.4078C168.104 21.9033 165.13 19.3761 161.277 19.5109C157.593 19.6457 158.472 22.6784 157.965 24.8013C157.796 25.5763 157.863 26.385 157.796 27.5981H157.83Z" fill="black"/>
</g>
<g clip-path="url(#clip1_113_249)">
<path d="M233.425 37.8316C232.382 37.5489 231.318 37.5409 230.428 37.2264C228.188 36.4342 225.936 36.9358 223.7 36.8164C221.742 36.7089 219.865 37.4374 217.923 37.5887C215.683 37.7639 213.447 37.9271 211.215 37.5131C211.119 37.4932 211.022 37.4135 210.933 37.4215C209.197 37.5808 207.67 36.8681 206.091 36.3386C205.015 35.9803 204.093 34.9014 204.004 33.6712C203.924 32.5246 204.878 31.3899 205.914 30.8883C207.404 30.1677 208.504 31.1272 209.769 31.4497C212.428 32.1305 215.115 32.4888 217.855 31.8637C218.241 31.7761 218.652 31.7642 219.055 31.7522C222.878 31.6248 226.701 31.7164 230.525 31.7244C231.58 31.7244 232.539 32.2021 233.582 32.1663C233.901 32.1543 234.247 32.3176 234.557 32.0031C233.735 30.6216 232.2 30.2035 230.988 29.3516C229.094 28.0258 227.056 26.8474 225.686 24.8926C224.816 23.6504 224.828 21.9504 225.569 21.0467C226.685 19.6891 228.712 19.6254 230.102 20.983C231.322 22.1774 232.374 23.539 233.836 24.4865C234.996 25.2389 236.144 26.0113 237.268 26.8195C237.691 27.1221 238.11 27.4963 238.388 27.9263C239.267 29.2958 240.375 30.4185 241.712 31.3541C242.804 32.1185 243.489 33.277 243.875 34.4635C244.355 35.9365 243.356 37.6723 241.494 38.5044C240.028 39.1573 238.848 40.1845 237.631 41.1957C236.721 41.9522 235.709 42.5891 234.726 43.258C232.684 44.6474 230.843 46.3434 228.579 47.4064C227.749 47.7966 226.911 48.2823 225.872 47.8006C224.316 47.084 223.857 45.5671 224.893 44.2055C225.549 43.3416 226.403 42.7245 227.322 42.1353C228.829 41.1678 230.247 40.073 231.689 39.01C232.229 38.6119 232.966 38.5163 233.417 37.8356L233.425 37.8316Z" fill="black"/>
</g>
<defs>
<clipPath id="clip0_113_249">
<rect width="180" height="68" fill="white"/>
</clipPath>
<clipPath id="clip1_113_249">
<rect width="40" height="28" fill="white" transform="translate(204 20)"/>
</clipPath>
</defs>
</svg>
