<svg width="50" height="26" viewBox="0 0 50 26" fill="none" xmlns="http://www.w3.org/2000/svg">
<g clip-path="url(#clip0_149_519)">
<path d="M23.0197 19.58C25.3797 18.99 27.5697 19.12 29.5097 17.97C30.5697 17.34 31.5297 17.65 31.9897 18.5C32.4897 19.41 32.0597 20.45 30.8797 21.02C30.4597 21.23 29.9797 21.35 29.5097 21.41C27.6897 21.65 25.8897 21.97 24.0797 22.34C21.1197 22.96 19.6697 21.71 19.6897 18.69C19.6897 17.41 19.8197 16.15 20.0097 14.88C20.4597 11.74 20.5997 8.58 20.1997 5.42C20.0497 4.28 20.4497 3.44 21.4997 3.18C24.2097 2.52 26.9497 1.97 29.6997 1.45C30.4697 1.3 31.0997 1.72 31.3597 2.51C31.6197 3.3 31.2997 3.94 30.6697 4.39C29.8397 4.98 28.8597 4.87 27.8997 4.93C24.5897 5.13 24.2197 5.46 23.8397 8.76C23.7197 9.84 23.5697 10.97 23.9197 12.15C25.4697 12.19 26.7097 11.51 27.9097 10.72C28.3097 10.46 28.6797 10.13 29.1197 9.97C29.8597 9.7 30.5697 9.86 31.0397 10.52C31.5697 11.26 31.5197 12.05 30.9097 12.72C30.5997 13.06 30.1697 13.34 29.7297 13.5C28.2297 14.05 26.7197 14.57 25.1997 15.04C23.0897 15.69 23.0797 15.67 22.9997 17.79C22.9797 18.26 22.9997 18.73 22.9997 19.58H23.0197Z" fill="black"/>
<path d="M6.49999 11.2796C8.63999 8.97958 10.64 6.83958 12.61 4.67958C13.09 4.14958 13.46 3.49958 14.16 3.21958C15.04 2.85958 15.92 2.86958 16.53 3.71958C17.13 4.55958 16.95 5.38958 16.22 6.08958C14.66 7.57958 13.12 9.07958 11.53 10.5496C10.04 11.9196 9.01999 13.6496 7.90999 15.2996C7.61999 15.7296 7.51999 16.3596 7.49999 16.8996C7.43999 18.9596 6.99999 21.0196 7.63999 23.0696C7.90999 23.9296 7.57999 24.6796 6.73999 25.0596C5.77999 25.4896 5.02999 25.0596 4.46999 24.2596C3.98999 23.5696 3.95999 22.7696 3.96999 21.9596C3.99999 19.4096 4.21999 16.8396 3.98999 14.2996C3.64999 10.4896 2.80999 6.74958 1.02999 3.29958C0.879992 3.01958 0.709992 2.73958 0.629992 2.42958C0.349992 1.33958 0.809992 0.379584 1.76999 0.0895837C2.78999 -0.220416 3.51999 0.249584 3.89999 1.13958C4.57999 2.75958 5.10999 4.43958 5.31999 6.19958C5.51999 7.84958 5.84999 9.45958 6.50999 11.2796H6.49999Z" fill="black"/>
<path d="M42.1998 20.0396C40.9398 19.9996 39.3998 19.9896 38.3598 18.5796C37.5598 17.4996 37.4998 16.4396 38.2098 15.7596C38.9498 15.0496 39.6898 15.1996 40.8498 16.2896C41.9898 17.3596 45.0798 16.9596 45.8998 15.6296C46.3198 14.9496 46.0898 14.3996 45.4498 14.0096C44.5598 13.4796 43.6798 12.9496 42.6698 12.6296C41.3198 12.1996 40.3298 11.2896 39.5698 10.1196C37.9398 7.63962 38.2698 5.37962 40.6398 3.62962C42.3498 2.36962 44.2498 1.55962 46.4598 2.02962C47.7598 2.30962 48.3998 3.06962 48.2198 4.14962C48.0398 5.30962 47.0398 5.90962 45.6598 5.47962C44.8598 5.23962 44.1898 4.99962 43.3898 5.45962C42.6198 5.89962 41.6398 6.21962 41.6398 7.22962C41.6398 8.12962 42.2598 8.88962 43.0498 9.33962C43.7998 9.76962 44.6598 10.0296 45.4398 10.4196C46.1498 10.7696 46.8598 11.1496 47.5198 11.5996C50.0398 13.3296 50.0898 16.5496 47.6498 18.4496C46.3398 19.4696 44.5398 20.0196 42.2098 20.0396H42.1998Z" fill="black"/>
</g>
<defs>
<clipPath id="clip0_149_519">
<rect width="48.88" height="25.21" fill="white" transform="translate(0.55957)"/>
</clipPath>
</defs>
</svg>
